<svg width="20" height="14" viewBox="0 0 20 14" fill="none" xmlns="http://www.w3.org/2000/svg">
<path fill-rule="evenodd" clip-rule="evenodd" d="M1.5 0C1.10218 0 0.720644 0.158035 0.43934 0.43934C0.158035 0.720644 0 1.10218 0 1.5V12.5C0 12.8978 0.158035 13.2794 0.43934 13.5607C0.720644 13.842 1.10218 14 1.5 14H18.5C18.8978 14 19.2794 13.842 19.5607 13.5607C19.842 13.2794 20 12.8978 20 12.5V1.5C20 1.10218 19.842 0.720644 19.5607 0.43934C19.2794 0.158035 18.8978 0 18.5 0H1.5ZM16.5 5C16.5 5.53043 16.2893 6.03914 15.9142 6.41421C15.5391 6.78929 15.0304 7 14.5 7C13.9696 7 13.4609 6.78929 13.0858 6.41421C12.7107 6.03914 12.5 5.53043 12.5 5C12.5 4.46957 12.7107 3.96086 13.0858 3.58579C13.4609 3.21071 13.9696 3 14.5 3C15.0304 3 15.5391 3.21071 15.9142 3.58579C16.2893 3.96086 16.5 4.46957 16.5 5ZM10 4.5H3V3.5H10V4.5ZM10 6.5H3V5.5H10V6.5ZM3 8.5H10V7.5H3V8.5ZM10 10.5H3V9.5H10V10.5ZM13.196 7.739C13.0509 7.71 12.9012 7.71356 12.7576 7.74943C12.614 7.7853 12.4802 7.85258 12.3658 7.94642C12.2514 8.04027 12.1592 8.15833 12.096 8.29211C12.0327 8.42588 11.9999 8.57202 12 8.72V11H17V8.72C17.0001 8.57202 16.9673 8.42588 16.904 8.29211C16.8408 8.15833 16.7486 8.04027 16.6342 7.94642C16.5198 7.85258 16.386 7.7853 16.2424 7.74943C16.0988 7.71356 15.9491 7.71 15.804 7.739L14.696 7.961C14.5666 7.98686 14.4334 7.98686 14.304 7.961L13.196 7.739Z" fill="#C21807"/>
</svg>
