<svg width="13" height="16" viewBox="0 0 13 16" fill="none" xmlns="http://www.w3.org/2000/svg">
<path d="M5.5 2H3.5C3.04037 2 2.58525 2.09053 2.16061 2.26642C1.73597 2.44231 1.35013 2.70012 1.02513 3.02513C0.700121 3.35013 0.442313 3.73597 0.266422 4.16061C0.0905301 4.58525 0 5.04037 0 5.5C0 5.95963 0.0905301 6.41475 0.266422 6.83939C0.442313 7.26403 0.700121 7.64987 1.02513 7.97487C1.35013 8.29988 1.73597 8.55769 2.16061 8.73358C2.58525 8.90947 3.04037 9 3.5 9H5.5V12H1V14H5.5V16H7.5V14H9.5C10.4283 14 11.3185 13.6313 11.9749 12.9749C12.6313 12.3185 13 11.4283 13 10.5C13 9.57174 12.6313 8.6815 11.9749 8.02513C11.3185 7.36875 10.4283 7 9.5 7H7.5V4H12V2H7.5V0H5.5V2ZM7.5 9H9.5C9.89782 9 10.2794 9.15804 10.5607 9.43934C10.842 9.72064 11 10.1022 11 10.5C11 10.8978 10.842 11.2794 10.5607 11.5607C10.2794 11.842 9.89782 12 9.5 12H7.5V9ZM5.5 7H3.5C3.30302 7 3.10796 6.9612 2.92597 6.88582C2.74399 6.81044 2.57863 6.69995 2.43934 6.56066C2.30005 6.42137 2.18956 6.25601 2.11418 6.07403C2.0388 5.89204 2 5.69698 2 5.5C2 5.30302 2.0388 5.10796 2.11418 4.92597C2.18956 4.74399 2.30005 4.57863 2.43934 4.43934C2.57863 4.30005 2.74399 4.18956 2.92597 4.11418C3.10796 4.0388 3.30302 4 3.5 4H5.5V7Z" fill="#C21807"/>
</svg>
