<svg width="17" height="21" viewBox="0 0 17 21" fill="none" xmlns="http://www.w3.org/2000/svg">
<path fill-rule="evenodd" clip-rule="evenodd" d="M0.029201 7.377C0.195538 5.36675 1.11143 3.49247 2.59517 2.12598C4.07891 0.7595 6.02208 0.000656573 8.0392 0H8.4712C10.4883 0.000656573 12.4315 0.7595 13.9152 2.12598C15.399 3.49247 16.3149 5.36675 16.4812 7.377C16.6658 9.62141 15.9729 11.8499 14.5482 13.594L9.7552 19.456C9.57354 19.6783 9.34471 19.8575 9.08529 19.9806C8.82586 20.1036 8.54233 20.1675 8.2552 20.1675C7.96808 20.1675 7.68454 20.1036 7.42512 19.9806C7.16569 19.8575 6.93687 19.6783 6.7552 19.456L1.9632 13.594C0.538163 11.8501 -0.155102 9.62154 0.029201 7.377ZM8.2552 3.75C6.99542 3.75 5.78724 4.25045 4.89644 5.14124C4.00565 6.03204 3.5052 7.24022 3.5052 8.5C3.5052 9.75978 4.00565 10.968 4.89644 11.8588C5.78724 12.7496 6.99542 13.25 8.2552 13.25C9.51498 13.25 10.7232 12.7496 11.614 11.8588C12.5048 10.968 13.0052 9.75978 13.0052 8.5C13.0052 7.24022 12.5048 6.03204 11.614 5.14124C10.7232 4.25045 9.51498 3.75 8.2552 3.75Z" fill="#C21807"/>
</svg>
