<svg width="20" height="20" viewBox="0 0 20 20" fill="none" xmlns="http://www.w3.org/2000/svg">
<path d="M19.25 7.695C19.0521 7.69242 18.863 7.6127 18.7229 7.47282C18.5828 7.33294 18.5029 7.14393 18.5 6.946V3.862C18.5072 3.54951 18.4506 3.23884 18.3337 2.94896C18.2168 2.65908 18.042 2.39608 17.82 2.176C17.3807 1.74155 16.7879 1.49762 16.17 1.497H13.12C12.9215 1.497 12.731 1.41826 12.5904 1.27804C12.4498 1.13782 12.3706 0.947566 12.37 0.749C12.3703 0.550261 12.4494 0.359752 12.5901 0.219316C12.7307 0.0788802 12.9213 -1.76657e-07 13.12 0H16.2C17.2134 0.0255355 18.176 0.448667 18.88 1.178C19.2362 1.5323 19.5186 1.95371 19.7108 2.41785C19.9031 2.88198 20.0014 3.37963 20 3.882V6.966C19.9946 7.16125 19.9131 7.34666 19.7731 7.48281C19.633 7.61895 19.4454 7.69508 19.25 7.695ZM16.17 20H13.12C12.9215 20 12.731 19.9213 12.5904 19.781C12.4498 19.6408 12.3706 19.4506 12.37 19.252C12.3703 19.0533 12.4494 18.8628 12.5901 18.7223C12.7307 18.5819 12.9213 18.503 13.12 18.503H16.2C16.6612 18.4993 17.1108 18.3583 17.4915 18.0979C17.8721 17.8374 18.1665 17.4695 18.337 17.041C18.4502 16.7571 18.5056 16.4535 18.5 16.148V13.094C18.5003 12.8953 18.5794 12.7048 18.7201 12.5643C18.8607 12.4239 19.0513 12.345 19.25 12.345C19.4488 12.345 19.6394 12.4239 19.78 12.5643C19.9206 12.7048 19.9998 12.8953 20 13.094V16.148C20.0019 16.9052 19.7781 17.6458 19.3573 18.2752C18.9364 18.9047 18.3375 19.3944 17.637 19.682C17.172 19.873 16.673 19.972 16.17 19.97V20ZM6.92004 20H3.84004C3.33434 19.9996 2.83367 19.8997 2.36663 19.7058C1.89958 19.5119 1.4753 19.2279 1.11804 18.87C0.761545 18.5125 0.479247 18.0881 0.287378 17.6211C0.0955098 17.1541 -0.00214343 16.6538 3.56812e-05 16.149V13.095C0.000300667 12.8963 0.0794353 12.7058 0.220059 12.5653C0.360682 12.4249 0.551296 12.346 0.750036 12.346C0.948775 12.346 1.13939 12.4249 1.28001 12.5653C1.42064 12.7058 1.49977 12.8963 1.50004 13.095V16.149C1.50242 16.7675 1.7502 17.3598 2.18895 17.7957C2.6277 18.2316 3.22154 18.4756 3.84004 18.474H6.92004C7.11877 18.474 7.30939 18.5529 7.45001 18.6933C7.59064 18.8338 7.66977 19.0243 7.67004 19.223C7.67017 19.3214 7.65084 19.4189 7.61318 19.5099C7.57551 19.6008 7.52024 19.6834 7.45054 19.7529C7.38084 19.8224 7.29809 19.8775 7.20705 19.9149C7.11601 19.9523 7.01847 19.9714 6.92004 19.971V20ZM0.750036 7.695C0.552099 7.69242 0.362982 7.6127 0.222914 7.47282C0.082847 7.33294 0.00288393 7.14393 3.56812e-05 6.946V3.862C0.00268946 2.85421 0.405563 1.88875 1.12004 1.178C1.8412 0.463459 2.81483 0.0617916 3.83004 0.0599999H6.91004C7.10877 0.0599998 7.29939 0.13888 7.44001 0.279316C7.58064 0.419752 7.65977 0.610261 7.66004 0.809C7.65951 1.00757 7.58025 1.19782 7.43966 1.33804C7.29906 1.47826 7.1086 1.557 6.91004 1.557H3.83004C3.21146 1.55514 2.61746 1.79902 2.17865 2.23501C1.73985 2.67101 1.49215 3.26342 1.49004 3.882V6.966C1.48463 7.15953 1.40459 7.34348 1.26667 7.47935C1.12875 7.61522 0.943627 7.69249 0.750036 7.695Z" fill="#C21807"/>
</svg>
