<svg width="21" height="21" viewBox="0 0 21 21" fill="none" xmlns="http://www.w3.org/2000/svg">
<path fill-rule="evenodd" clip-rule="evenodd" d="M8.81016 0.000244843H12.1552C12.6592 -0.00725516 13.1527 0.157745 13.5502 0.468245C13.9507 0.783245 14.2282 1.22574 14.3302 1.72374L14.6227 3.12625C14.7497 3.19425 14.8747 3.26425 14.9977 3.33625L16.4152 2.87124C16.7068 2.77713 17.0147 2.7444 17.3196 2.77512C17.6245 2.80584 17.9197 2.89934 18.1867 3.04975C18.5167 3.23574 18.7942 3.50274 18.9877 3.82974L20.6752 6.61374C20.9479 7.04514 21.0555 7.56063 20.9781 8.06512C20.9006 8.56961 20.6433 9.02907 20.2537 9.35874H20.2507L19.1377 10.3082V10.6952L20.2372 11.6747C20.6193 11.999 20.8738 12.4485 20.9554 12.943C21.037 13.4375 20.9403 13.9449 20.6827 14.3747L19.0477 17.1647V17.1677C18.8531 17.4933 18.5773 17.7628 18.2473 17.9497C17.9173 18.1367 17.5444 18.2347 17.1652 18.2342C16.9306 18.2355 16.6973 18.2001 16.4737 18.1292L16.4662 18.1262L15.0607 17.6627C14.9357 17.7367 14.8087 17.8072 14.6797 17.8742L14.3887 19.2752C14.2859 19.7735 14.0095 20.219 13.6087 20.5322C13.2102 20.844 12.7165 21.0093 12.2107 21.0002H8.83866C8.33379 21.0086 7.84136 20.8434 7.44366 20.5322C7.04313 20.2194 6.7667 19.7744 6.66366 19.2767L6.37116 17.8727C6.2445 17.8057 6.11947 17.7357 5.99616 17.6627L4.57866 18.1277C4.28705 18.2219 3.97911 18.2546 3.67423 18.2239C3.36935 18.1931 3.07413 18.0996 2.80716 17.9492C2.47671 17.7649 2.20049 17.4969 2.00616 17.1722L0.317157 14.3822C0.0552664 13.9596 -0.0493404 13.4582 0.0217069 12.966C0.0927543 12.4739 0.334913 12.0226 0.705657 11.6912L1.82616 10.2782L0.756657 9.32574C0.374029 9.0011 0.119291 8.55099 0.0379552 8.05583C-0.0433804 7.56068 0.0539854 7.05273 0.312657 6.62274L0.315657 6.61974L2.00616 3.82974C2.1979 3.50723 2.46981 3.2398 2.79547 3.05344C3.12112 2.86709 3.48945 2.76815 3.86466 2.76624C4.09066 2.75425 4.31366 2.77574 4.53366 2.83074L4.56666 2.83974L5.96916 3.33324C6.09216 3.26124 6.21716 3.19225 6.34416 3.12625L6.63516 1.72524C6.73787 1.22701 7.01433 0.781495 7.41516 0.468245C7.81116 0.157745 8.30616 -0.00725516 8.81016 0.000244843ZM10.5007 7.50024C9.70501 7.50024 8.94195 7.81632 8.37934 8.37892C7.81673 8.94153 7.50066 9.7046 7.50066 10.5002C7.50066 11.2959 7.81673 12.059 8.37934 12.6216C8.94195 13.1842 9.70501 13.5002 10.5007 13.5002C11.2963 13.5002 12.0594 13.1842 12.622 12.6216C13.1846 12.059 13.5007 11.2959 13.5007 10.5002C13.5007 9.7046 13.1846 8.94153 12.622 8.37892C12.0594 7.81632 11.2963 7.50024 10.5007 7.50024ZM6.00066 10.5002C6.00066 9.30677 6.47476 8.16218 7.31868 7.31826C8.16259 6.47435 9.30718 6.00024 10.5007 6.00024C11.6941 6.00024 12.8387 6.47435 13.6826 7.31826C14.5266 8.16218 15.0007 9.30677 15.0007 10.5002C15.0007 11.6937 14.5266 12.8383 13.6826 13.6822C12.8387 14.5261 11.6941 15.0002 10.5007 15.0002C9.30718 15.0002 8.16259 14.5261 7.31868 13.6822C6.47476 12.8383 6.00066 11.6937 6.00066 10.5002Z" fill="#C21807"/>
</svg>
