<svg width="458" height="460" viewBox="0 0 458 460" fill="none" xmlns="http://www.w3.org/2000/svg">
<path d="M179.559 0.988061C175.959 3.08806 177.959 8.88806 182.259 8.88806C186.659 8.88806 188.559 2.88806 184.859 0.888062C182.459 -0.311938 181.759 -0.311938 179.559 0.988061ZM184.559 3.08806C185.259 3.78806 185.359 4.78806 184.659 6.08806C183.459 8.28806 181.459 8.38806 179.759 6.38806C177.459 3.58806 181.859 0.388062 184.559 3.08806Z" fill="white" fill-opacity="0.52"/>
<path d="M260.959 2.28806C256.959 4.18806 255.359 7.98806 256.259 13.8881C257.159 19.8881 257.159 20.6881 255.859 33.9881C254.459 48.5881 250.659 67.4881 245.559 84.7881C242.559 95.1881 241.959 98.3881 242.959 98.9881C248.059 102.188 290.659 108.888 305.559 108.888C313.059 108.888 313.759 108.588 323.559 100.088C329.759 94.7881 329.759 94.6881 329.759 89.3881C329.759 86.3881 329.359 79.5881 328.759 74.1881C328.259 68.7881 327.659 52.9881 327.559 39.1881C327.259 15.3881 327.159 13.7881 325.259 11.9881C323.759 10.5881 319.159 9.38806 307.759 7.48806C299.259 5.98806 288.859 4.18806 284.759 3.38806C272.259 0.98806 264.659 0.688057 260.959 2.28806ZM284.259 4.78806C289.759 5.78806 300.259 7.68806 307.459 8.98806C314.759 10.1881 321.159 11.5881 321.759 11.8881C322.459 12.2881 320.059 22.2881 318.259 26.5881C317.959 27.1881 280.759 21.4881 269.959 19.1881C258.959 16.7881 257.659 16.2881 257.159 14.1881C256.359 11.1881 258.359 6.28806 261.159 4.38806C263.959 2.38806 272.159 2.48806 284.259 4.78806ZM326.259 19.1881C327.059 24.3881 325.459 28.8881 322.859 28.8881C321.859 28.8881 320.759 28.2881 320.459 27.5881C319.759 25.7881 323.659 13.6881 324.759 14.3881C325.259 14.6881 325.959 16.7881 326.259 19.1881ZM272.659 21.2881C279.059 22.6881 291.559 24.6881 300.559 25.8881C309.559 27.0881 317.659 28.2881 318.459 28.5881C322.359 30.0881 316.459 103.488 312.159 106.588C311.159 107.288 308.759 107.888 306.859 107.888C302.559 107.888 266.659 103.388 258.759 101.788C252.759 100.688 243.759 97.9881 243.759 97.2881C243.759 97.0881 245.559 90.6881 247.659 83.1881C252.959 64.3881 255.459 51.7881 257.259 34.7881C258.059 26.8881 258.759 20.0881 258.759 19.5881C258.759 18.4881 260.159 18.6881 272.659 21.2881ZM327.659 81.3881L328.759 93.3881L323.059 98.5881C319.859 101.488 316.859 103.888 316.359 103.888C315.959 103.888 315.759 102.388 316.159 100.588C317.759 91.5881 319.759 71.1881 320.859 52.1881C321.959 34.4881 322.459 30.8881 323.759 30.6881C325.059 30.3881 325.359 32.9881 325.859 49.8881C326.259 60.5881 327.059 74.7881 327.659 81.3881Z" fill="white" fill-opacity="0.52"/>
<path d="M265.359 31.0877C265.059 32.3877 264.759 34.5877 264.759 35.9877C264.759 38.3877 265.159 38.6877 268.759 39.0877C273.659 39.4877 274.759 38.5877 274.759 33.7877C274.759 30.4877 274.459 30.0877 271.659 29.4877C266.759 28.5877 266.059 28.6877 265.359 31.0877ZM273.259 31.8877C273.559 32.3877 273.559 33.9877 273.159 35.3877C272.659 37.2877 271.959 37.8877 269.659 37.8877C267.059 37.8877 266.759 37.5877 266.759 34.3877C266.759 31.1877 266.959 30.8877 269.659 30.8877C271.359 30.8877 272.859 31.2877 273.259 31.8877Z" fill="white" fill-opacity="0.52"/>
<path d="M278.859 36.3881C279.359 36.7881 305.059 40.8881 307.559 40.8881C308.559 40.8881 308.759 40.5881 308.259 40.0881C306.659 38.6881 277.559 34.9881 278.859 36.3881Z" fill="white" fill-opacity="0.52"/>
<path d="M263.459 47.5881C263.059 47.8881 262.759 49.9881 262.759 52.0881V55.8881H267.159C270.259 55.8881 271.759 55.3881 272.159 54.2881C273.259 51.3881 272.759 48.0881 271.159 47.4881C269.059 46.6881 264.259 46.6881 263.459 47.5881ZM268.559 48.4881C271.559 49.3881 271.359 54.2881 268.259 54.6881C265.159 54.9881 263.859 53.6881 264.459 50.5881C265.059 47.6881 265.159 47.5881 268.559 48.4881Z" fill="white" fill-opacity="0.52"/>
<path d="M276.759 52.5878C276.759 53.4878 292.159 56.4878 301.759 57.5878C311.259 58.5878 306.759 57.1878 293.759 54.8878C286.859 53.7878 280.259 52.5878 279.059 52.2878C277.759 52.0878 276.759 52.1878 276.759 52.5878Z" fill="white" fill-opacity="0.52"/>
<path d="M260.759 65.8881C259.259 68.6881 259.559 72.5881 261.359 73.2881C262.259 73.5881 264.159 73.8881 265.759 73.8881C268.159 73.8881 268.559 73.3881 269.059 70.1881C269.759 65.7881 269.859 65.8881 265.359 64.8881C262.359 64.1881 261.559 64.3881 260.759 65.8881ZM266.159 66.4881C267.059 66.7881 267.759 68.1881 267.759 69.4881C267.759 71.5881 267.259 71.8881 264.259 71.8881C260.559 71.8881 260.459 71.6881 261.359 68.0881C261.959 65.8881 263.359 65.3881 266.159 66.4881Z" fill="white" fill-opacity="0.52"/>
<path d="M275.759 70.6881C275.759 71.5881 298.159 75.8881 302.359 75.8881C306.759 75.7881 300.859 74.0881 290.259 72.4881C284.259 71.4881 278.459 70.4881 277.559 70.2881C276.559 69.9881 275.759 70.1881 275.759 70.6881Z" fill="white" fill-opacity="0.52"/>
<path d="M256.459 84.0879C255.059 89.2879 255.559 90.5879 259.359 91.3879C263.659 92.1879 264.759 91.0879 264.759 86.0879C264.759 83.6879 264.359 82.8879 263.059 82.8879C262.059 82.8879 260.259 82.5879 259.159 82.2879C257.559 81.8879 256.859 82.2879 256.459 84.0879ZM263.259 84.8879C264.259 86.5879 262.759 89.8879 260.959 89.8879C258.159 89.8879 256.759 88.4879 257.459 86.0879C258.059 83.7879 262.059 82.9879 263.259 84.8879Z" fill="white" fill-opacity="0.52"/>
<path d="M272.359 87.5881C271.759 88.2881 295.659 92.7881 299.759 92.7881C304.059 92.8881 297.259 90.9881 287.759 89.4881C281.959 88.5881 276.359 87.5881 275.159 87.3881C273.959 87.0881 272.759 87.2881 272.359 87.5881Z" fill="white" fill-opacity="0.52"/>
<path d="M237.759 12.5879C228.659 22.4879 227.859 23.8879 231.259 23.8879C232.959 23.8879 233.759 24.3879 233.759 25.6879C233.759 29.3879 223.759 47.7879 218.759 53.1879C208.959 63.8879 193.059 73.9879 179.859 77.8879C172.559 79.9879 172.559 80.0879 173.159 83.0879C173.459 84.7879 173.759 88.3879 173.759 91.0879C173.759 94.2879 174.259 96.0879 175.159 96.4879C175.959 96.7879 180.059 95.6879 184.259 93.8879C209.259 83.8879 232.159 59.5879 241.359 33.0879C243.259 27.6879 244.159 26.8879 245.159 29.3879C245.459 30.1879 246.459 30.8879 247.359 30.8879C248.659 30.8879 248.859 30.2879 248.359 27.7879C248.059 26.0879 247.759 20.1879 247.759 14.7879C247.759 6.88788 247.459 4.88788 246.359 4.88788C245.559 4.88788 241.659 8.38788 237.759 12.5879ZM246.759 17.9879C246.759 26.9879 245.959 29.6879 244.259 26.8879C242.959 24.8879 241.859 25.9879 240.259 31.0879C237.459 39.6879 231.159 51.8879 225.859 58.9879C219.059 67.8879 207.059 79.0879 197.859 84.9879C190.759 89.5879 177.259 95.6879 176.359 94.7879C176.159 94.5879 175.659 91.3879 175.259 87.6879L174.659 80.9879L180.459 79.2879C201.359 73.2879 221.759 56.5879 230.359 38.3879C232.759 33.2879 235.059 27.7879 235.359 25.9879C235.959 23.2879 235.759 22.8879 233.759 22.8879C232.559 22.8879 231.759 22.4879 231.959 21.8879C232.659 19.6879 244.959 6.88788 245.859 7.38788C246.359 7.78788 246.759 12.4879 246.759 17.9879Z" fill="white" fill-opacity="0.52"/>
<path d="M141.659 15.0878C127.259 24.5878 102.559 44.1878 91.1593 55.1878C82.1593 63.7878 80.7593 65.5878 79.7593 69.7878C78.7593 73.9878 78.8593 75.1878 80.3593 78.0878C84.9593 87.0878 102.659 108.488 108.459 111.988C113.259 114.988 116.659 113.988 127.259 106.388C132.259 102.888 146.659 92.8878 159.259 84.2878C191.159 62.4878 189.459 63.9878 190.359 57.1878C190.859 52.5878 190.659 50.8878 188.859 47.0878C182.759 34.5878 158.759 8.88779 153.259 8.88779C152.059 8.88779 146.859 11.6878 141.659 15.0878ZM155.559 11.2878C157.059 12.0878 162.159 16.6878 166.759 21.5878C179.959 35.2878 188.759 47.5878 188.759 52.3878C188.759 54.9878 181.159 60.8878 158.759 75.8878C151.859 80.4878 141.559 87.8878 135.759 92.3878C121.759 103.188 116.259 106.888 113.959 106.888C111.659 106.888 106.159 101.088 95.4593 87.6878C84.4593 73.7878 81.5593 69.2878 82.2593 66.9878C83.8593 61.9878 118.259 32.9878 141.759 16.9878C147.459 13.0878 152.259 9.88779 152.459 9.88779C152.659 9.88779 154.059 10.4878 155.559 11.2878ZM188.759 58.9878C188.759 61.0878 183.159 66.8878 181.059 66.8878C180.359 66.8878 179.759 67.1878 179.759 67.6878C179.759 68.0878 178.759 68.9878 177.659 69.7878C175.859 70.8878 175.359 70.8878 174.559 69.6878C173.759 68.6878 173.659 68.7878 174.159 70.0878C174.559 71.2878 172.959 72.8878 168.459 75.7878C165.059 78.0878 159.659 81.6878 156.459 83.8878C153.259 86.0878 150.259 87.8878 149.759 87.8878C149.259 87.8878 148.759 88.1878 148.559 88.5878C147.859 90.2878 141.659 93.8878 140.559 93.2878C139.959 92.8878 139.759 92.9878 140.059 93.5878C140.959 94.9878 120.059 110.188 114.659 112.188C111.659 113.188 102.959 105.988 95.5593 96.3878C94.3593 94.6878 92.8593 92.8878 92.2593 92.2878C91.7593 91.6878 90.5593 90.0878 89.7593 88.8878C88.9593 87.6878 87.7593 86.0878 87.2593 85.4878C84.1593 81.9878 80.6593 75.4878 80.9593 73.5878C81.2593 71.5878 81.4593 71.7878 83.4593 74.8878C84.6593 76.7878 86.7593 79.5878 87.9593 81.0878C89.2593 82.5878 91.3593 85.2878 92.7593 87.0878C96.4593 91.9878 107.959 105.188 109.759 106.588C113.259 109.488 115.459 109.188 121.959 104.788C128.459 100.388 135.859 94.8878 136.759 93.7878C137.959 92.2878 161.059 75.8878 161.859 75.8878C162.459 75.8878 163.359 75.3878 164.059 74.8878C166.359 72.8878 177.759 64.8878 178.259 64.8878C178.559 64.8878 179.559 64.1878 180.559 63.2878C182.959 61.0878 188.259 56.8878 188.559 56.8878C188.659 56.8878 188.759 57.7878 188.759 58.9878Z" fill="white" fill-opacity="0.52"/>
<path d="M148.759 19.5881C122.259 37.3881 95.7593 58.4881 95.7593 61.5881C95.7593 62.9881 111.959 85.6881 117.059 91.5881C118.659 93.3881 120.459 94.8881 121.159 94.8881C121.759 94.8881 125.159 92.8881 128.759 90.3881C132.359 87.8881 139.959 82.6881 145.759 78.6881C162.959 66.9881 178.559 55.1881 180.359 52.3881C181.959 49.9881 181.859 49.6881 178.659 44.2881C173.859 36.3881 156.159 17.8881 153.359 17.8881C152.159 17.8881 150.059 18.6881 148.759 19.5881ZM161.759 26.5881C171.459 36.5881 179.859 47.7881 179.559 50.3881C179.259 52.6881 169.359 60.4881 151.059 72.9881C143.759 77.8881 134.359 84.3881 130.159 87.3881C125.959 90.3881 121.959 92.8881 121.259 92.8881C119.159 92.8881 97.7593 64.0881 97.7593 61.2881C97.7593 59.7881 117.159 43.9881 132.359 33.0881C150.259 20.3881 152.259 18.9881 153.259 18.9881C153.759 18.8881 157.559 22.3881 161.759 26.5881Z" fill="white" fill-opacity="0.52"/>
<path d="M146.759 32.2879C146.759 33.1879 161.059 51.0879 163.359 52.9879C166.859 55.7879 164.159 51.5879 157.659 43.8879C149.159 33.6879 146.759 31.1879 146.759 32.2879Z" fill="white" fill-opacity="0.52"/>
<path d="M139.659 40.5881C141.559 43.8881 146.559 49.3881 147.159 48.7881C147.859 48.0881 140.859 38.8881 139.559 38.8881C139.059 38.8881 139.159 39.6881 139.659 40.5881Z" fill="white" fill-opacity="0.52"/>
<path d="M131.459 46.1881C133.459 49.5881 146.159 64.8881 146.959 64.8881C148.159 64.8881 147.259 63.3881 139.359 53.5881C135.559 48.7881 132.059 44.8881 131.559 44.8881C131.059 44.8881 131.059 45.4881 131.459 46.1881Z" fill="white" fill-opacity="0.52"/>
<path d="M98.4593 78.5881C95.9593 81.0881 101.159 89.8881 105.259 89.8881C109.359 89.8881 107.659 82.3881 102.859 79.5881C99.5593 77.6881 99.3593 77.5881 98.4593 78.5881ZM103.459 82.0881C105.359 83.8881 106.659 87.8881 105.359 87.8881C102.659 87.8881 97.9593 81.9881 99.4593 80.4881C100.459 79.4881 100.959 79.6881 103.459 82.0881Z" fill="white" fill-opacity="0.52"/>
<path d="M204.259 20.6879C197.859 22.0879 194.459 28.7879 197.059 35.0879C200.159 42.4879 209.259 44.7879 214.559 39.5879C216.759 37.2879 217.259 35.9879 217.259 31.8879C217.259 27.8879 216.759 26.3879 214.759 24.3879C211.959 21.6879 207.359 19.9879 204.259 20.6879ZM210.859 23.4879C212.559 24.2879 214.559 26.4879 215.359 28.4879C216.559 31.3879 216.559 32.3879 215.359 35.2879C212.259 42.6879 202.959 42.9879 199.259 35.8879C196.959 31.4879 197.359 28.0879 200.659 24.7879C203.959 21.4879 206.459 21.1879 210.859 23.4879Z" fill="white" fill-opacity="0.52"/>
<path d="M203.959 26.0879C202.259 27.7879 202.459 31.8879 204.159 31.8879C204.959 31.8879 205.859 32.5879 206.159 33.4879C206.959 35.6879 206.959 36.0879 205.759 35.3879C205.259 35.0879 204.759 35.2879 204.759 35.7879C204.759 37.4879 208.459 37.0879 210.159 35.2879C212.159 33.3879 212.259 30.9879 210.359 30.2879C207.459 29.1879 205.259 29.1879 204.559 30.2879C204.059 30.9879 203.759 30.6879 203.759 29.5879C203.759 28.4879 204.659 27.4879 205.759 27.1879C206.859 26.8879 207.459 26.2879 207.159 25.7879C206.459 24.5879 205.359 24.6879 203.959 26.0879ZM209.359 32.1879C210.159 31.8879 210.759 32.1879 210.759 32.8879C210.759 33.4879 210.359 33.6879 209.759 33.3879C209.259 33.0879 208.759 33.2879 208.759 33.8879C208.759 34.4879 208.359 34.6879 207.759 34.3879C207.259 34.0879 206.759 32.9879 206.859 32.0879C206.859 31.0879 207.159 30.8879 207.359 31.5879C207.659 32.2879 208.559 32.4879 209.359 32.1879Z" fill="white" fill-opacity="0.52"/>
<path d="M360.159 38.8881C359.059 39.2881 356.859 41.0881 355.459 42.8881C351.159 47.9881 351.659 53.1881 360.759 92.2881C365.159 111.188 368.759 127.488 368.759 128.388C368.759 130.088 375.459 141.688 379.159 146.388C381.159 148.888 381.759 149.088 383.059 148.088C384.659 146.688 388.459 133.688 388.859 127.888C389.259 122.488 387.859 108.688 384.159 81.5881C379.159 45.4881 378.159 41.7881 372.359 39.3881C368.459 37.7881 363.459 37.5881 360.159 38.8881ZM374.159 42.9881C378.559 48.1881 377.759 49.3881 369.959 49.4881C365.059 49.4881 362.159 50.0881 359.059 51.6881C356.759 52.8881 354.559 53.8881 354.259 53.8881C353.159 53.8881 353.859 48.6881 355.259 45.8881C357.559 41.4881 360.559 39.8881 366.359 39.8881C370.959 39.8881 371.859 40.2881 374.159 42.9881ZM374.559 50.6881C375.859 51.0881 376.859 51.7881 376.759 52.2881C376.659 52.7881 377.059 53.4881 377.559 53.7881C378.159 54.0881 378.859 56.0881 379.259 58.1881L379.959 61.9881L376.159 61.5881C371.959 61.0881 363.659 63.1881 359.859 65.5881C356.759 67.5881 355.659 66.2881 355.459 60.2881C355.259 55.8881 355.459 55.3881 358.259 53.9881C361.359 52.4881 369.459 49.9881 371.259 50.0881C371.859 50.0881 373.259 50.3881 374.559 50.6881ZM372.359 64.2881C372.659 65.0881 374.859 78.8881 377.159 94.8881C381.359 123.888 381.359 124.088 379.259 124.888C377.859 125.488 377.059 125.188 376.559 123.988C376.059 122.788 366.859 75.4881 365.359 66.4881C365.259 65.5881 369.459 62.8881 371.059 62.8881C371.459 62.8881 372.059 63.4881 372.359 64.2881ZM379.459 64.0881C380.759 65.6881 388.459 122.588 387.559 123.388C386.559 124.288 382.759 124.888 382.759 124.188C382.759 123.688 380.959 110.788 378.759 95.4881C374.159 63.2881 374.059 62.8881 376.659 62.8881C377.659 62.8881 378.959 63.4881 379.459 64.0881ZM368.559 92.0881C375.659 128.588 375.359 126.488 372.759 127.188C371.559 127.488 370.459 127.188 370.259 126.588C369.959 125.888 367.759 116.188 365.259 104.888C360.959 85.8881 358.359 74.8881 357.159 70.6881C356.859 69.5881 357.559 68.4881 359.459 67.4881C360.959 66.6881 362.559 65.9881 362.859 65.8881C363.259 65.8881 365.759 77.6881 368.559 92.0881ZM387.359 130.088C386.459 135.588 386.259 135.888 381.859 135.888C379.859 135.888 377.659 136.388 376.959 137.088C376.359 137.688 375.659 138.088 375.559 137.788C375.359 137.588 374.159 135.888 372.859 133.988C370.759 130.988 370.659 130.588 372.159 129.088C373.359 127.788 374.059 127.688 374.959 128.688C376.559 130.288 377.759 130.188 377.759 128.388C377.759 126.588 381.359 126.388 382.159 128.088C382.559 129.088 383.059 128.888 383.959 127.588C386.359 124.288 388.059 125.488 387.359 130.088ZM384.359 138.388C384.959 139.988 382.959 146.888 381.959 146.888C381.559 146.888 380.159 145.288 378.759 143.288C376.459 139.788 376.359 139.588 378.259 138.288C380.759 136.488 383.659 136.488 384.359 138.388Z" fill="white" fill-opacity="0.52"/>
<path d="M52.9593 87.0881C53.5593 88.8881 55.7593 89.1881 55.7593 87.4881C55.7593 86.5881 55.0593 85.8881 54.1593 85.8881C53.2593 85.8881 52.7593 86.3881 52.9593 87.0881Z" fill="white" fill-opacity="0.52"/>
<path d="M205.459 97.0878C204.559 98.3879 202.959 102.588 201.859 106.588L199.759 113.688L192.859 114.888C189.059 115.488 185.159 116.588 184.259 117.288C182.559 118.488 182.659 118.688 184.759 120.588C185.959 121.788 188.959 123.788 191.359 125.088L195.859 127.388L195.559 136.888C195.159 148.788 196.459 149.588 202.959 141.588L207.359 136.088L213.259 140.488C223.659 148.288 225.959 147.588 223.459 137.588C222.559 134.088 221.559 130.588 221.259 129.788C220.959 128.888 223.059 126.788 227.259 123.888C230.759 121.388 233.959 118.788 234.259 118.088C234.859 116.388 231.759 115.188 223.159 113.888L216.059 112.788L213.159 104.088C210.059 94.7878 208.059 92.9879 205.459 97.0878ZM210.259 100.188C211.059 102.088 212.159 105.788 212.859 108.488C213.559 111.188 214.159 113.488 214.259 113.688C214.359 113.788 218.359 114.588 223.059 115.488C227.859 116.388 231.759 117.488 231.759 117.888C231.759 118.388 228.859 120.788 225.359 123.288L218.959 127.888L220.859 133.988C222.959 140.688 223.259 143.888 221.859 143.888C221.259 143.888 217.859 141.588 214.259 138.888C210.659 136.088 207.559 133.888 207.359 133.888C207.159 133.888 205.059 136.388 202.659 139.388C197.059 146.388 195.259 146.588 196.159 140.088C196.559 137.488 197.059 133.488 197.359 131.188L197.959 126.988L192.459 123.888C183.859 119.088 183.659 118.288 190.459 116.988C200.659 114.988 201.059 114.788 202.459 109.888C204.559 102.288 206.859 96.8879 207.859 96.8879C208.459 96.8879 209.459 98.3879 210.259 100.188Z" fill="white" fill-opacity="0.52"/>
<path d="M407.759 95.5878C403.959 97.0878 403.459 103.988 407.059 106.288C413.159 110.288 428.059 111.688 430.559 108.488C432.959 105.488 432.659 102.588 429.759 99.8878C425.459 95.8878 413.259 93.4878 407.759 95.5878ZM426.159 99.3878C428.359 100.488 430.359 101.888 430.559 102.588C431.059 104.188 424.659 105.288 419.459 104.488C414.659 103.688 406.759 100.188 406.759 98.7878C406.759 95.6878 419.659 96.1878 426.159 99.3878ZM412.959 104.488C414.459 105.288 417.259 105.888 419.259 105.888C421.359 105.888 422.759 106.388 422.759 107.088C422.759 107.988 422.959 108.088 423.559 107.288C424.359 105.988 429.759 105.688 429.759 106.888C429.759 107.988 425.959 108.888 421.559 108.888C415.359 108.888 405.759 104.988 405.759 102.388C405.759 101.588 409.259 102.688 412.959 104.488Z" fill="white" fill-opacity="0.52"/>
<path d="M416.759 99.2879C416.759 100.088 416.159 100.988 415.559 101.188C414.759 101.588 414.859 101.788 415.959 101.788C416.859 101.888 417.859 101.288 418.059 100.588C418.359 99.8879 418.659 100.088 418.659 101.088C418.759 102.988 421.259 103.588 422.259 101.888C422.559 101.388 422.259 101.188 421.359 101.488C420.259 101.888 419.959 101.488 420.259 99.9879C420.559 98.3879 420.159 97.8879 418.659 97.8879C417.659 97.8879 416.759 98.4879 416.759 99.2879Z" fill="white" fill-opacity="0.52"/>
<path d="M70.2593 111.288C59.8593 114.288 33.1593 123.588 29.2593 125.588C25.4593 127.588 24.2593 129.288 22.3593 134.788L20.7593 139.188L26.1593 152.788C32.0593 167.588 32.1593 167.888 37.2593 188.688C39.1593 196.588 41.4593 204.388 42.3593 205.988C46.3593 213.788 60.0593 212.688 93.1593 201.688C109.359 196.288 110.259 195.388 110.259 183.588C110.159 176.888 109.459 173.088 106.359 163.388C99.2593 141.388 88.6593 114.788 85.4593 111.088C82.9593 108.388 80.5593 108.388 70.2593 111.288ZM85.1593 113.088C89.7593 120.188 106.459 166.388 108.759 178.488C110.659 188.288 109.459 189.388 88.4593 196.588C69.1593 203.088 53.0593 206.388 49.8593 204.488C47.6593 203.088 45.8593 198.088 43.2593 186.288C40.2593 172.988 34.2593 154.388 29.0593 142.588C24.7593 132.788 24.9593 130.088 30.2593 127.188C36.4593 123.788 75.8593 110.888 79.9593 110.888C82.7593 110.888 84.0593 111.488 85.1593 113.088ZM25.9593 142.088C25.7593 143.088 25.0593 143.888 24.5593 143.888C23.9593 143.888 23.8593 142.788 24.1593 141.288C24.6593 139.588 24.4593 138.988 23.7593 139.388C22.6593 140.088 22.3593 137.688 23.4593 136.588C24.3593 135.588 26.4593 140.088 25.9593 142.088ZM26.8593 148.188C26.0593 148.988 25.7593 148.588 25.7593 146.788C25.7593 143.488 27.1593 142.088 27.5593 144.888C27.7593 146.088 27.4593 147.588 26.8593 148.188ZM30.9593 150.888C31.5593 150.888 31.7593 152.088 31.3593 153.888C31.0593 155.688 31.1593 156.788 31.7593 156.388C32.6593 155.788 35.2593 163.388 34.8593 165.588C34.7593 166.288 35.1593 166.888 35.8593 166.888C36.5593 166.888 36.7593 167.788 36.3593 169.388C35.8593 171.188 36.0593 171.788 36.9593 171.688C37.7593 171.488 38.1593 172.288 38.0593 173.588C37.8593 174.888 38.2593 175.888 38.8593 175.888C39.4593 175.888 39.7593 176.788 39.4593 177.888C39.1593 178.888 39.4593 179.988 40.0593 180.188C40.6593 180.388 40.7593 181.888 40.3593 184.188C39.9593 186.388 39.2593 187.688 38.6593 187.288C38.0593 186.988 37.7593 185.588 38.0593 184.288C38.2593 182.988 38.0593 181.888 37.5593 181.888C36.9593 181.888 36.8593 180.788 37.1593 179.288C37.5593 177.888 37.4593 176.988 36.9593 177.288C36.4593 177.588 35.7593 175.788 35.3593 173.188C35.0593 170.688 34.3593 168.088 33.9593 167.488C33.4593 166.888 32.4593 164.388 31.7593 161.888C31.0593 159.388 29.9593 156.888 29.4593 156.188C28.9593 155.488 28.8593 154.488 29.2593 153.888C29.5593 153.388 29.3593 152.888 28.8593 152.888C27.6593 152.888 27.3593 148.588 28.5593 147.488C28.9593 147.088 29.3593 147.688 29.5593 148.788C29.7593 149.988 30.3593 150.888 30.9593 150.888ZM41.2593 189.788C40.8593 191.488 40.2593 192.688 39.7593 192.388C39.2593 192.088 39.3593 190.488 39.9593 188.788C41.2593 184.988 42.1593 185.688 41.2593 189.788ZM43.6593 196.888C44.5593 196.888 46.1593 202.588 45.8593 204.888C45.7593 206.088 45.8593 206.088 46.5593 205.088C47.8593 203.188 49.9593 205.888 48.7593 207.888C48.0593 208.988 47.6593 209.088 46.3593 207.888C44.1593 206.088 41.4593 200.188 42.2593 198.988C42.5593 198.388 42.3593 197.888 41.8593 197.888C40.5593 197.888 40.4593 194.888 41.5593 192.188C42.0593 190.788 42.3593 191.088 42.5593 193.588C42.7593 195.388 43.2593 196.888 43.6593 196.888ZM106.759 194.388C106.059 195.188 105.159 195.588 104.659 195.288C104.159 194.988 103.759 195.188 103.759 195.688C103.759 196.788 86.8593 202.288 86.0593 201.488C85.7593 201.188 84.9593 201.588 84.1593 202.288C83.0593 203.388 79.5593 204.488 67.2593 207.588C56.5593 210.188 53.7593 210.388 53.7593 208.288C53.7593 207.388 54.4593 206.888 55.5593 206.988C56.4593 207.088 58.0593 206.788 59.1593 206.388C60.2593 205.888 61.2593 206.088 61.7593 206.788C62.2593 207.788 62.6593 207.688 63.0593 206.588C63.3593 205.788 64.8593 204.888 66.4593 204.688C67.9593 204.388 70.1593 203.788 71.1593 203.388C72.6593 202.688 72.8593 202.888 72.2593 203.988C71.7593 204.788 72.2593 204.688 73.4593 203.588C74.5593 202.588 76.8593 201.688 78.6593 201.588C80.3593 201.488 81.7593 201.088 81.7593 200.788C81.7593 200.188 84.0593 199.588 89.2593 198.688C90.3593 198.488 91.8593 197.788 92.6593 197.088C93.6593 196.088 94.2593 196.088 94.7593 196.888C95.2593 197.688 95.6593 197.588 96.0593 196.488C96.4593 195.588 97.3593 194.888 98.2593 194.888C99.1593 194.888 100.959 194.188 102.259 193.288C104.259 191.988 104.759 191.888 104.759 192.988C104.759 193.888 105.259 193.588 105.959 192.388C106.759 191.088 107.259 190.888 107.559 191.688C107.759 192.388 107.359 193.588 106.759 194.388ZM52.5593 208.088C51.9593 209.888 49.7593 210.188 49.7593 208.488C49.7593 207.588 50.4593 206.888 51.3593 206.888C52.2593 206.888 52.7593 207.388 52.5593 208.088Z" fill="white" fill-opacity="0.52"/>
<path d="M55.8593 124.988C44.1593 129.288 34.2593 132.988 34.0593 133.288C33.1593 134.088 38.1593 147.088 39.5593 147.588C40.7593 148.088 81.4593 133.888 84.6593 131.988C86.5593 130.788 81.1593 116.888 78.8593 116.988C77.9593 117.088 67.6593 120.588 55.8593 124.988ZM81.6593 124.488C82.8593 127.688 83.5593 130.388 83.3593 130.588C82.5593 131.388 42.6593 145.888 41.3593 145.888C40.1593 145.888 35.7593 137.388 35.7593 134.988C35.7593 134.488 37.6593 133.388 40.0593 132.488C54.0593 127.188 77.4593 118.988 78.3593 118.988C78.9593 118.888 80.4593 121.388 81.6593 124.488Z" fill="white" fill-opacity="0.52"/>
<path d="M82.0593 141.588C79.1593 142.588 77.7593 143.688 77.7593 144.788C77.7593 147.988 79.9593 152.888 81.3593 152.888C83.4593 152.888 89.7593 149.688 89.7593 148.588C89.7593 146.788 87.4593 139.888 86.8593 139.988C86.5593 139.988 84.3593 140.688 82.0593 141.588ZM87.5593 145.088C88.3593 148.088 88.1593 148.488 85.8593 149.588C81.8593 151.388 81.0593 151.188 79.8593 147.688C79.2593 145.988 78.8593 144.488 78.9593 144.388C79.4593 143.988 85.1593 142.088 85.9593 141.988C86.3593 141.888 87.0593 143.388 87.5593 145.088Z" fill="white" fill-opacity="0.52"/>
<path d="M65.0592 147.188C60.5592 148.888 60.3592 149.288 61.7592 154.388C63.1592 159.388 64.0592 159.688 69.2592 157.188C72.9592 155.388 73.3592 154.088 71.6592 148.988C70.4592 145.588 69.8592 145.488 65.0592 147.188ZM70.6592 150.888C71.5592 153.688 71.4592 153.988 68.7592 155.388C64.6592 157.488 64.2592 157.288 63.0592 153.388C62.0592 150.188 62.1592 149.888 64.6592 148.988C68.7592 147.488 69.4592 147.688 70.6592 150.888Z" fill="white" fill-opacity="0.52"/>
<path d="M48.0593 153.188C43.7593 154.788 43.4593 155.288 44.1593 159.088C45.2593 164.988 45.9593 165.388 51.1593 163.388C56.0593 161.488 56.5593 160.388 54.6593 154.988C53.4593 151.588 52.8593 151.488 48.0593 153.188ZM53.1593 155.488C54.3593 158.588 53.7593 160.588 51.2593 161.688C47.5593 163.388 47.0593 163.188 45.8593 159.688C44.5593 156.088 44.5593 156.288 47.7593 154.988C51.3593 153.588 52.4593 153.688 53.1593 155.488Z" fill="white" fill-opacity="0.52"/>
<path d="M86.8593 156.288C84.9593 156.988 83.1593 158.088 82.9593 158.788C82.1593 161.188 89.0593 181.888 90.5593 181.888C94.1593 181.888 99.7593 179.488 99.7593 177.988C99.7593 174.588 92.8593 155.388 91.5593 155.188C90.8593 155.088 88.7593 155.588 86.8593 156.288ZM95.0593 167.388L98.6593 177.888L95.0593 179.388C93.0593 180.288 91.2593 180.688 90.9593 180.388C90.3593 179.788 83.7593 159.588 84.0593 159.188C84.6593 158.688 89.3593 156.988 90.4593 156.988C91.0593 156.888 93.1593 161.588 95.0593 167.388Z" fill="white" fill-opacity="0.52"/>
<path d="M69.0592 162.388C65.3592 163.988 65.0592 165.588 67.2592 169.888C69.0592 173.388 68.6592 173.288 73.7592 171.288C78.2592 169.488 78.1592 169.788 76.6592 164.588C75.5592 160.488 74.2592 160.088 69.0592 162.388ZM75.1592 164.488C76.2592 167.488 75.7592 168.688 72.7592 169.888C69.1592 171.388 68.9592 171.288 68.1592 167.188C67.6592 164.688 67.9592 163.988 69.3592 163.588C72.9592 162.688 74.5592 162.888 75.1592 164.488Z" fill="white" fill-opacity="0.52"/>
<path d="M51.5593 168.188C49.9593 168.788 48.7593 170.088 48.7593 170.988C48.7593 172.488 50.3593 177.188 51.3593 178.788C51.5593 178.988 53.6593 178.288 56.2593 177.388C59.5593 176.088 60.6593 175.188 60.3593 173.988C60.0593 173.088 59.5593 171.188 59.1593 169.588C58.4593 166.588 56.4593 166.288 51.5593 168.188ZM58.2593 171.988C58.8593 174.288 58.4593 174.788 55.6593 175.788C53.9593 176.388 52.3593 176.888 52.1593 176.888C52.0593 176.888 51.4593 175.488 50.8593 173.888C49.9593 170.988 50.0593 170.788 53.0593 169.488C56.6593 167.988 57.3593 168.288 58.2593 171.988Z" fill="white" fill-opacity="0.52"/>
<path d="M74.2592 177.588C72.6592 178.388 71.0592 179.288 70.9592 179.488C70.3592 179.988 72.8592 186.788 73.8592 187.388C74.3592 187.688 76.5592 187.488 78.7592 186.788C83.0592 185.488 83.5592 184.388 81.6592 178.988C80.4592 175.488 78.7592 175.188 74.2592 177.588ZM80.3592 180.588C80.8592 182.488 80.5592 183.588 79.2592 184.588C76.4592 186.588 74.8592 186.188 73.5592 183.288C72.4592 181.088 72.5592 180.488 74.2592 179.288C77.2592 177.088 79.6592 177.588 80.3592 180.588Z" fill="white" fill-opacity="0.52"/>
<path d="M57.0594 183.488C53.4594 185.088 53.2594 185.688 54.9594 190.588C56.3594 194.288 57.0594 194.488 62.1594 192.388C66.2594 190.688 66.1594 190.888 64.5594 185.788C63.3594 181.488 62.2594 181.188 57.0594 183.488ZM63.1594 186.488C63.9594 189.588 63.2594 190.488 59.6594 191.388C57.3594 191.988 56.9594 191.688 56.3594 189.288C55.7594 187.188 56.0594 186.088 57.3594 185.188C60.2594 183.088 62.4594 183.588 63.1594 186.488Z" fill="white" fill-opacity="0.52"/>
<path d="M333.459 113.988C332.559 114.488 331.059 116.388 330.159 118.088C325.259 127.488 336.459 136.188 344.659 129.288C347.259 127.088 347.759 125.988 347.759 122.288C347.759 116.388 344.559 112.888 339.059 112.888C336.959 112.888 334.459 113.388 333.459 113.988ZM342.059 114.988C346.959 117.188 348.059 123.288 344.359 127.488C339.459 133.288 330.759 129.988 330.759 122.488C330.859 119.088 332.159 116.888 335.259 115.088C337.759 113.688 339.059 113.588 342.059 114.988Z" fill="white" fill-opacity="0.52"/>
<path d="M334.859 119.588C333.859 121.688 333.959 122.388 334.959 122.988C336.659 124.088 337.759 124.088 337.759 123.088C337.759 122.688 338.659 122.288 339.759 122.188C340.859 122.088 341.759 122.288 341.759 122.488C341.759 123.688 339.159 125.488 338.059 125.188C336.459 124.588 335.559 126.588 337.159 127.188C338.859 127.888 342.759 125.188 342.759 123.388C342.759 122.588 341.859 121.488 340.659 120.888C339.559 120.188 338.859 119.188 339.059 118.488C340.059 116.088 335.959 117.088 334.859 119.588ZM337.659 120.988C335.459 122.388 334.359 121.988 335.759 120.388C336.459 119.588 337.459 119.188 337.959 119.488C338.559 119.888 338.459 120.488 337.659 120.988Z" fill="white" fill-opacity="0.52"/>
<path d="M140.059 119.288C125.959 123.888 117.759 134.388 116.059 149.888C115.659 154.288 116.059 157.388 117.759 162.988C119.659 169.288 120.759 171.088 126.159 176.488C131.259 181.588 133.459 183.088 138.259 184.388C152.559 188.588 168.159 182.188 174.859 169.388C176.959 165.488 177.559 164.888 179.659 165.388C180.959 165.688 183.659 167.288 185.659 168.888C190.159 172.488 197.359 175.688 210.059 179.788C225.859 184.788 232.759 183.688 232.759 176.088C232.759 171.288 228.259 168.688 211.259 163.388C199.359 159.688 195.159 158.788 190.259 158.988C180.459 159.388 180.159 159.088 179.459 150.088C179.159 145.288 178.159 140.288 176.759 137.088C174.159 130.988 166.659 123.588 160.059 120.688C154.259 118.088 145.459 117.488 140.059 119.288ZM159.759 122.488C166.559 125.588 171.159 129.888 174.559 136.388C176.959 140.888 177.259 142.488 177.259 151.888C177.259 161.588 177.059 162.788 174.459 167.088C168.159 177.888 160.159 182.988 148.559 183.688C141.659 184.088 140.159 183.888 135.359 181.488C129.359 178.488 123.959 173.188 120.659 166.688C117.359 160.288 116.859 148.188 119.659 140.788C126.059 123.788 144.559 115.388 159.759 122.488ZM183.559 162.088C183.859 163.388 183.259 163.888 181.459 163.888C178.559 163.888 177.759 163.188 178.459 161.188C179.259 159.288 183.159 159.988 183.559 162.088ZM193.759 160.688C193.759 161.088 195.659 161.488 197.859 161.588C200.159 161.588 202.259 162.088 202.659 162.588C202.959 162.988 203.759 163.388 204.259 163.488C208.959 163.688 226.259 169.888 229.059 172.288C232.059 174.888 232.359 176.488 230.259 179.288C227.959 182.288 220.859 181.688 208.159 177.388C195.459 173.088 185.359 167.988 184.959 165.488C184.459 162.888 187.359 160.188 190.759 160.088C192.459 160.088 193.759 160.288 193.759 160.688Z" fill="white" fill-opacity="0.52"/>
<path d="M137.959 127.088C121.559 134.988 117.759 157.988 130.659 170.888C145.059 185.188 168.759 176.488 172.759 155.288C173.759 150.088 173.759 148.288 172.259 143.288C170.159 136.088 165.259 129.788 159.459 126.988C153.659 124.188 143.859 124.188 137.959 127.088ZM160.259 129.288C170.859 135.488 174.859 150.188 169.159 161.588C157.259 185.588 124.759 178.488 124.759 151.988C124.759 132.388 144.259 119.988 160.259 129.288Z" fill="white" fill-opacity="0.52"/>
<path d="M220.959 176.888C220.959 178.788 221.159 179.588 221.459 178.588C221.659 177.688 221.659 176.088 221.459 175.088C221.159 174.188 220.959 174.988 220.959 176.888Z" fill="white" fill-opacity="0.52"/>
<path d="M286.759 123.788C277.259 126.788 266.059 135.288 262.259 142.288C261.159 144.288 259.859 145.888 259.259 145.888C258.659 145.888 256.659 143.788 254.859 141.288C253.059 138.788 251.359 136.888 251.059 137.188C250.759 137.488 251.559 139.188 252.759 140.888C253.959 142.588 254.759 144.188 254.459 144.488C253.959 145.088 252.359 143.588 248.359 138.888C246.859 137.088 245.459 135.888 245.159 136.088C244.859 136.388 245.859 138.088 247.259 139.788C251.059 144.188 248.259 143.688 244.159 139.088C240.759 135.288 239.859 135.288 241.959 139.188C243.959 142.788 243.559 144.888 240.859 146.388C239.459 147.188 238.959 147.788 239.759 147.788C240.559 147.788 242.359 147.188 243.759 146.388C245.159 145.588 246.859 144.988 247.559 144.888C249.859 144.888 248.759 146.788 245.559 148.488C243.759 149.488 242.759 150.388 243.459 150.588C244.059 150.788 246.459 149.788 248.759 148.288C253.559 145.088 255.459 145.888 251.259 149.388C247.659 152.288 249.359 152.788 253.059 149.888C255.059 148.288 258.759 147.088 258.759 148.088C258.759 148.288 258.059 150.588 257.159 153.388C254.959 160.488 255.159 173.288 257.559 180.188C259.359 185.288 264.659 194.088 266.659 195.288C267.159 195.588 266.659 198.388 265.659 201.488C262.959 209.588 263.159 213.488 266.259 215.488C270.759 218.388 278.859 215.188 281.259 209.488L282.559 206.488H294.359C305.659 206.388 306.559 206.188 312.459 203.288L318.659 200.088L319.559 202.788C320.159 204.188 320.959 206.888 321.459 208.788C322.659 213.688 324.859 214.688 329.259 212.588C336.659 209.088 338.559 200.988 334.459 190.888L332.159 185.388L334.659 179.388C337.959 171.288 338.159 156.088 335.059 148.188C330.659 136.988 320.659 127.488 309.959 124.288C305.159 122.788 290.959 122.588 286.759 123.788ZM313.959 127.788C321.759 131.488 328.859 138.588 332.559 146.688C334.959 151.788 335.259 153.588 335.259 163.388C335.259 173.288 334.959 174.988 332.459 180.288C326.759 192.488 316.759 200.988 304.359 204.388C293.659 207.288 283.859 205.488 273.659 198.688C262.459 191.188 255.859 177.088 257.059 162.988C257.359 159.288 258.259 154.588 259.159 152.588L260.659 148.988L264.659 150.588C268.659 152.188 268.759 152.288 268.059 155.788C266.459 163.288 267.159 171.188 270.059 177.188C278.859 194.988 301.059 199.388 315.659 186.288C322.359 180.288 325.159 173.688 325.159 163.888C325.159 151.488 319.659 142.388 308.959 137.188C301.659 133.688 291.659 133.388 284.659 136.488C280.059 138.688 272.959 144.788 271.059 148.288C270.059 150.088 269.559 150.188 265.859 148.988C263.559 148.388 261.759 147.488 261.759 147.088C261.759 146.688 263.259 144.088 265.159 141.288C275.859 125.488 296.959 119.588 313.959 127.788ZM307.259 138.288C317.259 142.988 322.759 151.188 323.559 162.488C323.959 168.588 323.659 170.488 321.559 174.988C318.059 182.588 314.559 186.388 308.059 189.488C298.259 194.388 286.659 192.788 278.059 185.488C273.259 181.488 268.759 171.688 268.759 165.388C268.759 158.188 269.759 153.888 271.359 153.888C272.059 153.888 275.259 155.088 278.359 156.588C283.459 159.188 283.859 159.588 283.359 162.188C282.659 165.588 284.659 170.688 287.759 173.388C289.359 174.888 291.359 175.388 295.359 175.388C300.059 175.388 301.159 174.988 303.859 172.288C306.159 169.988 307.059 167.888 307.459 164.788C308.659 153.388 294.659 146.988 286.859 155.288L284.559 157.688L278.959 155.188C271.259 151.688 271.059 151.488 273.859 147.388C280.959 136.988 295.859 132.888 307.259 138.288ZM299.959 153.788C300.359 153.888 301.959 155.788 303.359 157.988C305.359 161.288 305.859 162.988 305.359 165.688C304.359 171.988 303.159 171.488 298.359 162.688C295.859 158.188 293.759 154.788 293.759 155.188C293.759 155.688 295.659 159.588 297.959 163.888C302.059 171.388 302.559 174.688 299.259 171.888C297.959 170.788 297.859 170.888 298.259 172.088C299.059 174.188 294.359 174.988 291.959 173.288C290.859 172.588 289.759 172.188 289.459 172.488C288.859 173.088 284.759 167.088 284.759 165.588C284.759 165.088 285.359 165.088 286.059 165.488C286.859 166.088 286.859 165.788 285.859 164.588C285.159 163.688 284.859 162.188 285.259 161.188C285.859 159.588 286.259 159.788 288.459 162.388C289.859 163.988 290.659 164.788 290.359 164.088C289.459 162.588 290.259 162.588 292.859 163.888C293.959 164.488 294.759 164.588 294.759 163.988C294.759 163.488 293.059 162.188 291.059 161.088C288.959 160.088 287.259 158.588 287.259 157.788C287.259 155.888 293.759 152.788 296.759 153.288C298.159 153.488 299.559 153.788 299.959 153.788ZM332.259 189.888C332.559 190.988 332.559 192.388 332.159 192.988C331.759 193.688 331.859 193.888 332.459 193.588C333.659 192.788 335.759 197.888 335.759 201.488C335.759 204.388 333.759 205.688 333.659 202.988C333.559 200.988 333.259 199.788 332.759 198.088C332.659 197.688 332.559 197.088 332.659 196.588C332.659 196.188 332.359 195.888 331.959 195.888C331.459 195.888 330.559 194.788 329.959 193.388C329.259 191.988 329.159 190.888 329.759 190.888C330.259 190.888 330.459 190.188 330.159 189.388C329.759 188.588 330.059 187.888 330.559 187.888C331.159 187.888 331.859 188.788 332.259 189.888ZM331.059 199.688C331.959 201.988 332.759 204.988 332.759 206.388C332.759 209.088 329.459 211.888 326.059 211.888C324.159 211.888 323.559 210.888 321.959 205.588L320.059 199.388L323.559 195.688C327.559 191.488 327.959 191.688 331.059 199.688ZM272.959 200.488C275.059 201.988 276.759 203.388 276.759 203.788C276.459 207.688 273.759 214.488 272.359 214.688C269.559 215.288 266.059 214.088 265.359 212.288C264.759 210.688 267.559 197.888 268.559 197.888C268.859 197.888 270.859 199.088 272.959 200.488ZM280.359 206.188C280.259 207.488 279.359 209.588 278.459 210.988L276.759 213.388L277.259 209.488C277.459 207.288 278.259 205.188 278.959 204.688C280.659 203.588 280.659 203.588 280.359 206.188Z" fill="white" fill-opacity="0.52"/>
<path d="M301.359 161.888C302.859 164.688 304.259 166.788 304.459 166.588C304.859 166.088 299.759 156.888 299.159 156.888C298.859 156.888 299.859 159.188 301.359 161.888Z" fill="white" fill-opacity="0.52"/>
<path d="M427.759 125.788C423.259 127.188 417.159 130.688 413.959 133.688C410.359 137.088 409.659 141.888 412.359 145.688C416.359 151.488 437.059 145.088 442.859 136.288C444.459 133.788 444.459 133.188 443.159 129.988C442.359 128.088 441.159 126.088 440.459 125.688C438.959 124.688 431.059 124.788 427.759 125.788ZM439.259 127.288C441.059 128.588 441.059 128.788 439.459 131.288C437.359 134.388 431.159 138.488 425.559 140.488C420.759 142.188 413.159 142.288 412.159 140.788C410.459 137.888 419.859 130.188 428.259 127.588C434.659 125.588 436.959 125.588 439.259 127.288ZM442.059 133.088C441.159 136.788 436.959 140.488 430.459 143.488C423.759 146.488 414.759 147.388 414.059 145.088C413.759 144.288 414.559 143.888 416.459 143.888C424.359 143.888 436.359 138.288 440.559 132.688C442.259 130.288 442.659 130.388 442.059 133.088Z" fill="white" fill-opacity="0.52"/>
<path d="M422.359 131.988C420.959 133.088 419.959 134.388 420.259 134.888C420.959 135.988 424.759 135.788 424.759 134.588C424.759 134.188 425.159 133.988 425.659 134.388C426.159 134.688 426.859 134.488 427.259 133.888C428.159 132.488 424.459 132.588 422.959 134.088C422.059 134.988 421.759 134.988 421.759 134.088C421.759 133.388 422.159 132.888 422.559 132.888C423.859 132.888 427.359 129.988 426.159 129.888C425.559 129.888 423.859 130.788 422.359 131.988Z" fill="white" fill-opacity="0.52"/>
<path d="M429.659 132.788C430.759 133.488 430.659 133.988 428.859 134.988C427.759 135.788 426.759 136.788 426.759 137.288C426.759 137.788 427.859 137.188 429.259 135.888C431.659 133.588 431.759 131.888 429.459 131.888C428.659 131.888 428.759 132.188 429.659 132.788Z" fill="white" fill-opacity="0.52"/>
<path d="M422.259 137.888C420.559 138.688 420.659 138.688 423.059 138.588C424.559 138.488 425.759 138.088 425.759 137.688C425.759 136.688 424.859 136.788 422.259 137.888Z" fill="white" fill-opacity="0.52"/>
<path d="M356.759 151.788C355.059 155.188 357.159 158.088 361.059 157.688C363.959 157.388 364.259 157.088 364.259 153.888C364.259 150.688 363.959 150.388 361.059 150.088C358.659 149.888 357.659 150.288 356.759 151.788ZM362.759 152.488C363.859 153.688 363.759 154.288 362.459 155.588C361.159 156.888 360.559 156.988 359.359 155.888C357.459 154.388 357.259 152.288 359.059 151.588C361.059 150.688 361.459 150.788 362.759 152.488Z" fill="white" fill-opacity="0.52"/>
<path d="M401.359 160.588C401.959 165.288 402.459 166.588 403.059 165.788C403.859 164.888 402.459 155.888 401.559 155.888C401.059 155.888 400.959 157.788 401.359 160.588Z" fill="white" fill-opacity="0.52"/>
<path d="M429.659 165.688C428.959 167.688 428.159 169.688 427.959 170.088C427.759 170.588 428.059 170.888 428.559 170.888C429.759 170.888 432.859 163.088 431.859 162.488C431.459 162.188 430.459 163.688 429.659 165.688Z" fill="white" fill-opacity="0.52"/>
<path d="M376.759 168.488C376.859 170.188 382.759 176.388 382.759 174.788C382.759 173.988 381.459 171.988 379.759 170.388C378.159 168.788 376.759 167.888 376.759 168.488Z" fill="white" fill-opacity="0.52"/>
<path d="M400.859 174.088C398.959 174.588 395.459 176.388 393.159 177.988C380.859 186.388 377.259 198.388 381.859 214.888C385.159 226.888 384.259 235.688 379.359 239.788C378.459 240.588 377.759 241.688 377.759 242.488C377.759 243.188 376.659 245.888 375.259 248.488C373.859 251.088 372.759 253.588 372.759 253.988C372.759 256.488 380.359 262.988 385.459 264.888C393.059 267.688 395.759 267.288 398.259 262.688C399.359 260.688 401.259 257.188 402.559 254.988C403.759 252.688 404.759 249.788 404.759 248.488C404.759 244.288 411.859 237.688 423.159 231.488C434.759 225.188 437.659 222.388 441.959 213.388C447.359 201.888 445.259 192.888 434.959 183.688C425.459 175.088 411.159 171.088 400.859 174.088ZM425.159 179.288C433.059 183.188 439.159 188.988 442.259 195.588C445.159 201.688 442.759 211.388 436.059 220.388C433.859 223.288 430.259 225.888 422.859 229.788C415.459 233.788 411.259 236.788 407.659 240.688C404.959 243.588 402.759 246.388 402.759 246.888C402.759 248.088 399.559 249.088 398.559 248.088C397.359 246.888 400.959 238.588 406.059 231.188C409.859 225.488 410.559 224.888 413.859 224.888C417.759 224.888 422.759 221.688 422.759 219.288C422.759 217.088 416.459 217.588 413.359 219.988C410.759 222.088 410.559 222.088 409.259 220.288C408.159 218.688 408.259 218.088 410.359 215.588C413.359 212.088 413.659 206.888 410.859 206.888C408.359 206.888 406.759 208.988 406.059 213.388C405.359 217.588 403.859 218.588 400.759 216.888C399.059 215.988 398.759 215.188 399.359 212.488C400.159 208.088 398.359 204.888 395.259 204.888C393.159 204.888 392.759 205.388 392.759 207.788C392.759 209.288 393.759 211.888 394.859 213.288C396.859 215.788 396.959 216.488 395.859 220.188C393.859 226.988 386.559 241.888 385.159 241.888C382.859 241.888 382.659 239.988 384.259 235.388C386.259 229.288 386.159 224.788 383.759 216.388C378.559 198.388 382.959 185.488 396.759 177.888C401.859 175.088 402.859 174.788 409.959 175.188C416.359 175.488 418.959 176.188 425.159 179.288ZM397.559 209.688C397.759 211.488 397.459 212.888 396.959 212.888C395.759 212.888 393.559 207.988 394.359 206.788C395.459 204.888 397.259 206.588 397.559 209.688ZM410.759 212.588C408.559 216.488 406.659 216.788 407.759 212.988C409.059 208.388 409.759 207.488 411.059 208.788C411.959 209.688 411.859 210.688 410.759 212.588ZM404.359 219.188C405.659 219.188 407.059 220.088 407.759 221.488C408.959 223.588 408.659 224.488 404.459 230.788C401.859 234.588 399.759 237.888 399.759 238.188C399.759 238.388 398.859 240.688 397.759 243.188C395.759 247.588 395.659 247.688 392.759 246.788C387.259 244.788 387.159 243.688 391.559 234.688C393.859 230.088 396.259 224.488 396.959 222.188C398.059 218.588 398.559 217.988 400.259 218.588C401.359 218.988 403.259 219.288 404.359 219.188ZM420.759 219.888C420.759 221.088 417.459 222.888 415.359 222.888C413.059 222.888 413.459 221.388 416.059 220.088C418.859 218.688 420.759 218.588 420.759 219.888ZM382.859 242.588C384.959 245.088 395.859 249.888 399.559 249.888C402.159 249.888 402.859 250.288 402.559 251.588C402.359 252.588 401.159 253.588 399.859 253.688C397.959 253.988 397.759 254.288 398.859 254.988C399.959 255.688 400.059 256.188 398.959 257.588C398.259 258.588 397.259 260.588 396.659 261.988C396.059 263.488 394.759 264.888 393.759 265.188C391.159 265.888 381.059 261.488 377.659 258.288C374.559 255.388 374.159 253.888 375.659 251.088C376.259 250.188 377.459 247.488 378.359 245.088C380.359 240.388 380.859 240.088 382.859 242.588Z" fill="white" fill-opacity="0.52"/>
<path d="M8.55928 175.588C4.85928 177.088 1.75928 181.688 1.75928 185.588C1.75928 188.988 5.45928 193.688 9.15928 194.888C13.3593 196.188 18.4593 194.988 21.2593 191.888C23.4593 189.488 24.3593 182.788 22.8593 179.988C20.2593 175.288 14.0593 173.288 8.55928 175.588ZM17.6593 177.388C25.9593 181.588 21.8593 193.888 12.1593 193.888C8.45928 193.888 3.75928 188.788 3.75928 184.888C3.75928 182.688 4.65928 180.788 6.65928 178.788C9.95928 175.588 13.3593 175.088 17.6593 177.388Z" fill="white" fill-opacity="0.52"/>
<path d="M10.7593 179.888C9.55932 180.588 9.45932 181.188 10.4593 182.588C11.0593 183.588 12.0593 184.288 12.6593 184.088C13.2593 183.988 13.7593 184.688 13.7593 185.588C13.7593 187.088 13.9593 187.188 14.7593 185.888C15.5593 184.588 15.7593 184.588 15.7593 185.988C15.7593 188.288 11.7593 189.288 11.6593 187.088C11.6593 185.988 11.4593 185.788 11.0593 186.688C10.6593 187.688 10.2593 187.688 8.95932 186.688C7.65932 185.588 7.55932 185.588 7.85932 186.788C8.65932 189.088 11.2593 190.188 14.0593 189.488C16.0593 188.988 16.7593 188.188 16.7593 186.288C16.7593 184.988 16.0593 183.588 15.2593 183.288C14.4593 182.888 13.7593 182.088 13.7593 181.288C13.7593 180.488 14.3593 180.188 15.4593 180.588C16.5593 180.988 16.8593 180.888 16.3593 180.088C15.4593 178.688 12.8593 178.588 10.7593 179.888Z" fill="white" fill-opacity="0.52"/>
<path d="M450.259 186.388C447.559 187.688 445.959 188.788 446.759 188.788C448.859 188.888 456.759 185.788 456.759 184.788C456.759 183.488 455.859 183.688 450.259 186.388Z" fill="white" fill-opacity="0.52"/>
<path d="M364.759 191.888C365.559 192.388 368.259 192.788 370.759 192.788C374.159 192.788 374.759 192.588 373.259 191.888C370.359 190.588 362.859 190.588 364.759 191.888Z" fill="white" fill-opacity="0.52"/>
<path d="M164.259 199.588C157.159 200.588 90.5592 214.088 83.8592 215.988C79.7592 217.088 75.1592 218.888 73.6592 219.988C70.5592 222.088 68.5592 227.488 69.2592 231.788C69.4592 233.188 70.1592 239.988 70.7592 246.888C72.2592 263.588 74.6592 282.488 75.8592 287.088C76.3592 289.188 77.6592 291.388 78.5592 292.088C79.5592 292.788 80.8592 294.988 81.3592 296.888C82.8592 302.388 89.2592 304.188 131.959 310.988L151.559 314.088L168.459 308.888C177.659 306.088 193.459 301.088 203.459 297.888C213.459 294.588 225.459 290.988 229.959 289.888C240.359 287.188 242.759 285.688 242.759 281.988C242.759 279.788 242.059 278.888 240.059 277.988C237.759 277.088 201.759 269.388 190.059 267.188C187.359 266.688 186.959 266.388 187.759 264.788C189.059 262.488 189.059 235.088 187.759 217.388C186.759 204.288 186.559 203.288 184.159 201.088C181.959 199.188 180.659 198.888 174.459 198.988C170.459 199.088 165.959 199.388 164.259 199.588ZM181.759 201.388C183.759 202.488 184.859 203.888 185.259 206.188C186.059 211.488 187.759 240.588 187.759 251.088C187.759 261.588 186.859 265.188 184.059 266.288C180.959 267.588 144.159 276.888 126.259 280.988C116.959 283.088 103.059 286.488 95.5592 288.488C88.0592 290.488 81.1592 291.888 80.2592 291.588C79.4592 291.188 78.3592 289.888 77.7592 288.488C76.3592 284.688 70.7592 238.488 70.7592 230.288C70.7592 228.288 71.5592 225.388 72.4592 223.788C75.2592 219.188 80.6592 217.588 123.859 208.988C170.359 199.688 176.859 198.788 181.759 201.388ZM214.259 273.688C235.959 278.288 240.759 279.588 240.759 280.888C240.759 281.388 239.259 281.988 237.559 282.388C221.959 285.588 201.159 291.388 179.959 298.488C165.959 303.088 152.959 306.888 150.859 306.888C146.359 306.888 102.359 299.588 93.3592 297.288C81.7592 294.388 81.9592 293.588 95.3592 290.088C101.959 288.388 113.559 285.588 121.259 283.788C128.959 282.088 145.359 277.988 157.759 274.788C184.859 267.788 185.859 267.688 214.259 273.688ZM237.559 284.988C237.359 285.688 232.059 287.588 225.759 289.388C213.559 292.788 201.559 296.488 198.259 297.888C196.559 298.588 191.859 300.088 179.259 303.788C177.659 304.288 171.159 306.388 164.859 308.288C158.659 310.288 152.159 311.888 150.559 311.888C146.959 311.888 113.259 306.588 102.759 304.288C93.4592 302.288 93.8592 302.388 90.3592 300.988C88.7592 300.388 86.5592 299.688 85.3592 299.488C84.2592 299.288 83.0592 298.388 82.8592 297.388C82.6592 296.188 83.0592 295.788 83.8592 296.088C90.9592 298.688 98.6592 300.388 119.259 303.888C132.459 306.188 144.959 308.188 146.959 308.488C151.659 309.088 158.459 307.288 182.759 299.188C198.159 293.988 232.759 284.288 237.059 283.988C237.559 283.888 237.759 284.388 237.559 284.988Z" fill="white" fill-opacity="0.52"/>
<path d="M155.259 210.888C145.359 212.888 124.459 217.188 108.759 220.388C93.0592 223.588 79.9592 226.388 79.6592 226.788C79.2592 227.088 80.5592 240.288 82.5592 256.088C85.5592 280.288 86.3592 284.888 87.6592 284.888C88.5592 284.888 109.259 279.788 133.759 273.588L178.259 262.188L178.559 257.788C178.759 255.388 178.659 242.888 178.259 230.088C177.559 207.188 177.459 206.888 175.359 206.988C174.259 207.088 165.159 208.788 155.259 210.888ZM176.159 214.088C176.459 216.988 176.859 228.688 177.159 240.088L177.759 260.788L173.959 261.788C140.459 270.488 89.3592 282.988 88.4592 282.588C87.1592 282.088 80.2592 229.088 81.3592 227.988C81.9592 227.288 170.159 209.188 173.459 208.988C175.359 208.888 175.659 209.488 176.159 214.088Z" fill="white" fill-opacity="0.52"/>
<path d="M142.759 223.588L137.259 229.388L143.059 223.888C148.359 218.888 149.259 217.888 148.459 217.888C148.359 217.888 145.759 220.488 142.759 223.588Z" fill="white" fill-opacity="0.52"/>
<path d="M110.659 236.588C106.359 241.388 104.459 243.888 104.959 243.888C105.259 243.888 107.359 241.588 109.659 238.888C114.159 233.588 114.859 231.988 110.659 236.588Z" fill="white" fill-opacity="0.52"/>
<path d="M124.259 212.888C123.959 213.388 124.559 213.888 125.659 213.888C126.859 213.888 127.759 213.388 127.759 212.888C127.759 212.288 127.159 211.888 126.359 211.888C125.559 211.888 124.559 212.288 124.259 212.888Z" fill="white" fill-opacity="0.52"/>
<path d="M150.759 281.888C105.959 293.088 102.759 293.888 102.759 294.888C102.759 295.288 106.659 294.688 111.559 293.388C116.359 292.088 135.559 287.388 154.259 282.788C184.759 275.388 194.159 272.688 188.259 272.988C187.159 272.988 170.259 277.088 150.759 281.888Z" fill="white" fill-opacity="0.52"/>
<path d="M186.759 278.488C161.059 284.988 127.259 293.988 123.759 295.088C119.859 296.388 116.959 298.488 120.259 297.588C121.359 297.388 128.159 295.488 135.259 293.588C142.459 291.588 160.559 286.788 175.659 282.988C190.659 279.088 203.259 275.688 203.559 275.388C204.759 274.288 199.759 275.188 186.759 278.488Z" fill="white" fill-opacity="0.52"/>
<path d="M201.359 279.688C196.559 281.088 193.059 282.488 193.759 282.688C195.159 283.188 211.859 278.888 213.259 277.688C214.859 276.288 210.559 276.988 201.359 279.688Z" fill="white" fill-opacity="0.52"/>
<path d="M173.059 286.788C167.959 288.188 163.759 289.788 163.759 290.188C163.759 290.588 165.859 291.888 168.459 292.988L173.159 294.988L182.959 292.288C188.359 290.688 192.759 289.188 192.759 288.688C192.759 288.288 192.559 287.888 192.259 287.888C192.059 287.888 189.659 287.088 187.059 286.088C182.259 284.188 182.259 284.188 173.059 286.788ZM186.259 287.288C189.559 288.788 189.559 288.788 180.559 291.288C173.659 293.288 171.659 293.288 169.259 291.488C167.559 290.288 167.959 289.988 173.859 288.088C181.659 285.688 182.459 285.588 186.259 287.288Z" fill="white" fill-opacity="0.52"/>
<path d="M146.259 295.388C144.059 296.188 140.359 297.288 138.059 297.888C135.659 298.488 133.759 299.288 133.759 299.788C133.759 300.588 153.359 295.688 154.459 294.488C155.559 293.388 150.459 293.988 146.259 295.388Z" fill="white" fill-opacity="0.52"/>
<path d="M221.359 200.188C217.559 202.888 221.559 209.688 225.559 207.288C227.959 205.688 228.359 201.788 226.159 200.188C225.159 199.488 224.059 198.888 223.759 198.888C223.459 198.888 222.359 199.488 221.359 200.188ZM225.459 201.988C227.059 203.588 225.959 205.888 223.759 205.888C221.459 205.888 220.359 204.288 221.159 202.388C221.759 200.588 223.959 200.488 225.459 201.988Z" fill="white" fill-opacity="0.52"/>
<path d="M446.759 215.588C446.759 216.188 448.559 217.088 450.859 217.788C453.159 218.488 455.559 219.288 456.359 219.588C457.159 219.888 457.759 219.688 457.759 219.188C457.759 218.588 455.959 217.688 453.659 216.988C451.359 216.288 448.959 215.488 448.159 215.188C447.359 214.888 446.759 215.088 446.759 215.588Z" fill="white" fill-opacity="0.52"/>
<path d="M14.5593 219.588C9.95928 222.488 8.35928 226.688 8.95928 234.188C9.45928 240.288 9.35928 240.888 7.15928 242.388C5.85928 243.188 3.65928 245.888 2.15928 248.388C-0.940716 253.788 -0.840716 256.788 3.35928 269.988C7.25928 282.488 10.4593 288.788 13.2593 289.488C15.5593 290.088 36.4593 281.788 46.0593 276.488C50.8593 273.788 55.6593 266.188 55.7593 261.388C55.7593 257.288 48.0593 234.588 45.5593 231.388C43.8593 229.188 42.9593 228.888 39.8593 229.288C36.5593 229.888 36.0593 229.588 33.9593 226.188C32.6593 224.088 30.4593 221.488 29.0593 220.488C25.4593 217.788 17.9593 217.388 14.5593 219.588ZM27.7593 221.788C30.9593 224.088 34.7593 229.688 34.7593 231.988C34.7593 235.188 31.9593 234.088 30.7593 230.388C29.3593 226.188 24.4593 221.888 21.0593 221.888C18.0593 221.888 12.7593 226.888 12.7593 229.888C12.7593 231.088 13.2593 233.988 13.8593 236.488C14.4593 238.988 14.6593 241.288 14.2593 241.688C13.0593 242.888 10.9593 238.888 10.2593 233.888C9.45928 227.888 10.9593 224.388 15.7593 221.088C19.6593 218.488 23.5593 218.688 27.7593 221.788ZM27.5593 227.888C28.7593 229.788 29.4593 231.588 29.0593 231.988C28.5593 232.388 25.4593 233.788 22.0593 235.188C15.1593 237.988 14.7593 237.788 14.7593 230.788C14.7593 227.488 15.2593 226.588 17.8593 224.988C21.7593 222.588 24.4593 223.388 27.5593 227.888ZM41.7593 231.488C41.7593 233.388 39.4593 235.788 37.0593 236.288C33.6593 237.088 21.2593 241.888 13.7593 245.188C10.7593 246.488 7.15928 247.988 5.75928 248.388C3.25928 249.088 3.25928 249.088 6.25928 245.988C8.75928 243.288 9.75928 242.888 12.3593 243.388C15.0593 243.888 15.6593 243.588 16.1593 241.488C16.9593 238.088 28.7593 233.288 31.8593 235.088C33.7593 236.288 34.2593 236.088 36.0593 233.588C37.8593 231.288 41.7593 229.788 41.7593 231.488ZM50.2593 247.188C54.5593 259.588 54.8593 261.188 53.7593 263.988C53.0593 265.588 52.1593 266.588 51.6593 266.188C51.2593 265.788 49.1593 259.588 46.8593 252.588C44.6593 245.588 42.3593 239.088 41.8593 238.188C40.8593 236.288 43.5593 231.188 44.8593 232.588C45.2593 232.988 47.6593 239.588 50.2593 247.188ZM45.6593 254.188L50.9593 269.988L48.7593 272.388C46.2593 274.988 24.6593 285.088 17.2593 287.088C11.7593 288.588 12.1593 288.888 7.65928 277.388C3.15928 265.788 0.759284 255.788 1.95928 253.588C2.95928 251.588 5.55928 250.288 23.7593 242.788C30.0593 240.088 36.3593 238.088 37.7593 238.188C40.0593 238.388 40.6593 239.688 45.6593 254.188Z" fill="white" fill-opacity="0.52"/>
<path d="M19.2594 253.388C15.3594 257.188 16.0594 261.988 20.8594 264.388C22.7594 265.388 24.0594 267.188 24.8594 269.888C26.2594 274.388 27.4594 274.788 30.8594 271.988C33.1594 270.088 33.1594 269.888 31.6594 267.088C30.4594 264.988 30.1594 262.688 30.4594 259.688C30.9594 255.688 30.6594 254.988 28.2594 253.088C24.6594 250.288 22.2594 250.288 19.2594 253.388ZM25.7594 254.788C25.7594 256.188 25.9594 256.188 26.7594 254.888C27.6594 253.388 27.6594 253.288 29.2594 258.388C29.4594 259.188 29.2594 259.888 28.7594 259.888C28.1594 259.888 27.7594 259.388 27.7594 258.688C27.7594 258.088 27.5594 257.788 27.2594 258.088C26.8594 258.388 27.5594 261.288 28.6594 264.488C30.2594 268.988 30.4594 270.488 29.4594 271.088C27.3594 272.388 26.9594 271.988 25.2594 266.988C24.2594 263.788 23.1594 262.188 22.3594 262.488C21.6594 262.788 20.2594 261.988 19.1594 260.788C17.7594 259.188 17.6594 258.488 18.5594 258.188C19.1594 257.888 19.5594 257.288 19.2594 256.788C18.3594 255.388 20.9594 253.088 23.4594 253.088C24.9594 253.088 25.7594 253.788 25.7594 254.788Z" fill="white" fill-opacity="0.52"/>
<path d="M342.059 226.688C332.959 231.588 331.659 243.088 339.259 249.788C342.159 252.288 343.659 252.888 347.559 252.888C355.559 252.888 361.059 248.188 362.259 240.388C363.859 229.788 351.459 221.388 342.059 226.688ZM354.759 228.388C363.859 233.088 361.859 247.988 351.759 250.988C341.559 254.088 332.359 243.288 337.259 233.888C340.659 227.388 348.159 224.988 354.759 228.388Z" fill="white" fill-opacity="0.52"/>
<path d="M346.759 232.588C344.859 233.288 342.759 235.888 342.759 237.488C342.759 238.088 343.659 238.888 344.759 239.188C346.159 239.488 346.759 240.588 346.759 242.288C346.759 243.688 346.359 244.888 345.759 244.888C345.259 244.888 344.759 245.388 344.759 245.988C344.759 246.488 345.259 246.688 345.859 246.288C346.459 245.988 347.359 246.288 347.859 246.988C348.559 248.088 348.759 247.988 348.759 246.588C348.759 245.588 349.359 244.888 349.959 245.088C351.959 245.788 355.059 242.288 354.359 240.188C353.759 238.288 348.759 235.388 348.759 236.988C348.759 237.488 348.359 237.888 347.759 237.888C347.259 237.888 346.759 236.988 346.759 235.888C346.759 234.388 347.459 233.888 349.559 233.888C351.659 233.888 351.959 233.688 350.759 232.888C349.059 231.788 348.959 231.788 346.759 232.588ZM349.759 241.488C349.759 242.888 349.359 243.788 348.759 243.388C348.259 243.088 347.759 241.888 347.759 240.788C347.759 239.788 348.259 238.888 348.759 238.888C349.359 238.888 349.759 240.088 349.759 241.488ZM352.759 241.488C352.759 242.288 352.359 242.888 351.759 242.888C351.259 242.888 350.759 241.988 350.759 240.788C350.759 239.688 351.259 239.088 351.759 239.388C352.359 239.688 352.759 240.688 352.759 241.488Z" fill="white" fill-opacity="0.52"/>
<path d="M208.759 227.688C208.759 228.588 211.359 232.288 214.459 235.888C220.159 242.488 238.959 265.088 250.559 279.188C253.959 283.388 257.459 286.888 258.159 286.888C258.959 286.888 262.559 283.288 266.159 278.888C269.859 274.488 273.259 270.888 273.759 270.888C274.259 270.888 277.159 272.488 280.159 274.388C287.859 279.288 288.759 279.088 288.759 272.588C288.659 269.788 288.059 264.488 287.359 260.988C285.659 253.488 285.859 253.288 296.359 247.088C303.459 242.988 308.559 238.388 307.459 237.288C306.159 235.888 250.359 227.988 234.759 226.988C211.359 225.388 208.759 225.488 208.759 227.688ZM233.759 228.388C244.259 228.988 284.159 234.288 299.659 237.188L306.059 238.388L302.659 240.988C298.159 244.388 285.759 251.888 284.659 251.888C284.159 251.888 276.659 248.988 268.059 245.488C253.259 239.488 221.959 228.888 219.059 228.888C218.359 228.888 217.759 228.388 217.759 227.888C217.759 227.288 218.759 227.088 220.059 227.288C221.259 227.588 227.459 228.088 233.759 228.388ZM234.059 234.988C249.259 239.788 280.959 251.988 283.359 253.988C284.659 255.088 288.159 273.188 287.459 275.088C287.259 275.788 285.559 273.288 283.659 269.588L280.259 262.788L247.259 246.188C229.159 237.088 214.059 229.388 213.759 229.188C213.059 228.488 215.559 229.188 234.059 234.988ZM247.059 248.088L276.859 262.988L275.059 265.188C274.059 266.388 269.959 271.588 265.959 276.688C261.859 281.688 258.459 285.888 258.259 285.888C258.159 285.888 255.359 282.588 252.159 278.588C240.159 263.588 222.259 242.188 217.359 236.988C213.059 232.588 212.659 231.788 214.759 232.388C216.159 232.788 230.659 239.888 247.059 248.088ZM281.559 268.588C282.659 271.188 283.459 273.588 283.159 273.788C282.959 273.988 280.959 272.988 278.759 271.488C274.859 268.888 274.759 268.788 276.359 266.388C277.259 264.988 278.359 263.888 278.759 263.888C279.159 263.888 280.459 265.988 281.559 268.588Z" fill="white" fill-opacity="0.52"/>
<path d="M423.859 252.088C423.159 258.288 422.359 264.888 422.059 266.588C421.359 270.688 423.059 270.888 426.959 267.188C428.459 265.788 430.059 264.888 430.459 265.288C431.959 266.788 431.159 287.188 429.359 293.888C428.359 297.488 427.459 300.988 427.459 301.788C427.259 303.688 434.159 307.588 439.159 308.488C444.059 309.288 444.759 308.288 444.759 300.188C444.759 293.488 440.359 267.888 438.659 264.688C437.559 262.688 437.759 262.688 442.259 263.288C445.859 263.888 446.859 263.788 446.559 262.788C445.859 260.788 427.459 241.088 426.159 240.988C425.459 240.888 424.559 245.088 423.859 252.088ZM431.759 248.588C434.259 251.288 438.059 255.388 440.259 257.788L444.259 262.088L440.059 261.388C435.259 260.588 434.959 261.088 437.259 266.088C439.559 271.288 442.759 290.188 442.759 298.988V306.888H440.059C437.459 306.888 428.759 303.488 428.759 302.588C428.759 302.388 429.659 298.688 430.759 294.388C432.959 285.788 433.459 268.988 431.759 264.288L430.659 261.588L427.059 264.988L423.459 268.388L424.059 263.388C424.459 260.588 424.959 255.088 425.359 251.088C425.759 247.188 426.359 243.888 426.659 243.888C427.059 243.888 429.359 245.988 431.759 248.588Z" fill="white" fill-opacity="0.52"/>
<path d="M329.759 276.088C329.759 276.288 328.659 285.188 327.259 295.888C323.759 323.288 323.159 320.588 333.059 321.388C337.559 321.688 341.959 322.188 342.859 322.488C343.759 322.688 345.359 325.888 346.759 330.388C348.059 334.488 349.559 337.888 350.059 337.888C351.559 337.888 411.159 315.888 412.059 314.988C412.859 314.188 402.259 277.988 400.759 276.488C400.259 275.988 397.359 276.488 394.059 277.588C388.359 279.588 387.959 279.588 362.759 277.788C337.959 275.988 329.759 275.588 329.759 276.088ZM356.259 278.988C387.359 280.788 387.059 280.088 360.759 289.788C348.359 294.388 337.959 298.488 337.559 298.788C337.159 299.188 337.159 300.888 337.659 302.688L338.659 305.888H333.159C329.459 305.888 327.759 305.488 327.759 304.588C327.759 302.388 330.759 279.488 331.259 278.088C331.559 277.388 332.659 277.088 333.959 277.288C335.259 277.588 345.259 278.288 356.259 278.988ZM405.459 295.388C408.359 304.788 410.559 312.888 410.359 313.388C409.959 314.488 350.959 336.488 350.359 335.788C349.259 334.588 338.759 300.588 339.259 299.988C340.459 298.788 397.259 277.888 398.659 278.188C399.659 278.288 402.059 284.388 405.459 295.388ZM339.559 309.588C339.859 311.688 339.659 311.688 334.059 311.188C327.859 310.588 326.059 309.788 327.259 307.888C327.659 307.188 330.159 306.888 333.559 307.088C338.559 307.388 339.259 307.688 339.559 309.588ZM340.959 313.788C341.359 314.188 342.059 315.988 342.359 317.788L343.059 321.188L339.159 320.588C337.059 320.188 333.659 319.888 331.759 319.888C326.759 319.888 325.659 318.788 326.359 315.088L327.059 311.888L333.659 312.488C337.259 312.888 340.559 313.388 340.959 313.788Z" fill="white" fill-opacity="0.52"/>
<path d="M351.859 308.188C348.759 309.188 348.559 309.488 349.159 312.688C349.959 317.788 350.959 318.488 355.759 316.888C358.059 316.188 360.059 315.188 360.259 314.888C360.459 314.488 360.259 312.588 359.659 310.588C358.559 306.588 357.659 306.288 351.859 308.188ZM358.759 312.888C358.759 314.988 352.659 317.388 351.559 315.588C349.959 312.988 350.759 310.288 353.559 309.288C356.459 308.088 358.759 309.688 358.759 312.888Z" fill="white" fill-opacity="0.52"/>
<path d="M394.559 310.588C393.559 310.788 392.759 311.488 392.759 311.988C392.759 312.988 395.959 312.388 398.759 310.788C399.959 310.088 399.859 309.988 398.259 309.988C397.159 310.088 395.459 310.288 394.559 310.588Z" fill="white" fill-opacity="0.52"/>
<path d="M381.759 315.088C380.359 315.688 379.759 316.288 380.359 316.588C381.059 316.788 383.059 316.288 384.859 315.488C387.259 314.488 387.659 314.088 386.259 313.988C385.159 313.988 383.159 314.488 381.759 315.088Z" fill="white" fill-opacity="0.52"/>
<path d="M370.259 319.388C367.959 320.388 367.759 320.788 369.259 320.788C371.359 320.888 374.459 319.288 373.759 318.488C373.459 318.288 371.959 318.688 370.259 319.388Z" fill="white" fill-opacity="0.52"/>
<path d="M356.259 324.388C353.859 325.488 353.659 325.788 355.359 325.788C356.459 325.888 358.259 325.188 359.359 324.388C361.759 322.588 360.159 322.588 356.259 324.388Z" fill="white" fill-opacity="0.52"/>
<path d="M292.759 283.088C292.759 283.488 294.159 285.988 295.759 288.588C297.759 291.688 298.759 292.588 298.759 291.288C298.659 289.588 292.859 281.488 292.759 283.088Z" fill="white" fill-opacity="0.52"/>
<path d="M278.759 297.388C278.759 298.188 279.259 298.888 279.759 298.888C280.359 298.888 280.759 298.188 280.759 297.388C280.759 296.588 280.359 295.888 279.759 295.888C279.259 295.888 278.759 296.588 278.759 297.388Z" fill="white" fill-opacity="0.52"/>
<path d="M251.759 300.188C246.259 302.988 245.559 310.988 250.459 314.888C254.159 317.788 258.359 317.488 261.859 313.988C269.259 306.488 261.159 295.388 251.759 300.188ZM261.259 302.888C265.659 307.688 262.259 314.888 255.659 314.888C249.259 314.888 246.459 307.988 250.959 303.188C253.659 300.288 258.759 300.088 261.259 302.888Z" fill="white" fill-opacity="0.52"/>
<path d="M251.959 307.088C252.259 309.688 255.559 310.788 256.859 308.788C257.259 308.088 257.959 307.788 258.359 308.188C258.759 308.488 258.459 309.588 257.659 310.488C256.459 311.988 256.459 312.188 257.659 311.788C259.859 310.988 261.359 308.088 260.259 306.988C259.659 306.588 257.559 305.788 255.459 305.488C251.859 304.788 251.659 304.888 251.959 307.088Z" fill="white" fill-opacity="0.52"/>
<path d="M302.159 301.088C302.559 302.388 303.059 304.888 303.459 306.588C303.759 308.388 304.459 309.888 304.959 309.888C305.559 309.888 305.659 308.488 305.259 306.588C304.259 302.188 302.959 298.888 302.159 298.888C301.859 298.888 301.859 299.888 302.159 301.088Z" fill="white" fill-opacity="0.52"/>
<path d="M272.759 303.388C272.759 304.288 273.259 304.888 273.859 304.688C274.459 304.488 274.959 303.888 274.959 303.388C274.959 302.888 274.459 302.288 273.859 302.088C273.259 301.888 272.759 302.488 272.759 303.388Z" fill="white" fill-opacity="0.52"/>
<path d="M27.8592 311.488C24.0592 314.588 23.6592 319.788 26.7592 322.888C32.0592 328.188 42.1592 323.888 42.1592 316.288C42.1592 309.188 33.8592 306.388 27.8592 311.488ZM39.0592 312.688C41.4592 314.788 41.1592 318.588 38.2592 321.388C35.1592 324.588 30.5592 324.688 27.7592 321.688C25.2592 318.988 25.2592 316.888 27.7592 313.588C30.7592 309.788 35.2592 309.488 39.0592 312.688Z" fill="white" fill-opacity="0.52"/>
<path d="M72.7594 320.188C62.9594 323.188 50.7594 327.988 50.7594 328.888C50.7594 329.288 52.9594 329.388 55.5594 329.088C59.1594 328.788 61.4594 329.188 64.5594 330.788C66.8594 331.988 68.7594 333.288 68.7594 333.788C68.7594 334.188 66.8594 335.088 64.5594 335.788C62.1594 336.488 56.9594 338.588 52.9594 340.488C44.7594 344.388 42.4594 347.188 40.6594 355.388C39.0594 362.888 40.9594 367.588 46.7594 370.588C51.8594 373.088 69.3594 377.788 96.7594 383.788C106.959 385.988 119.859 389.288 125.559 391.088L135.859 394.288L155.559 387.988C166.359 384.488 176.759 381.088 178.459 380.388L181.759 378.988L181.159 371.688C180.859 367.688 180.459 363.488 180.259 362.288C179.759 359.888 174.959 357.988 147.259 348.888C134.859 344.788 124.459 340.688 117.159 336.888C111.159 333.688 104.259 330.488 102.059 329.888C99.4594 329.088 97.5594 327.788 96.8594 326.288C95.4594 322.988 88.6594 318.788 84.0594 318.288C81.8594 318.088 77.1594 318.788 72.7594 320.188ZM88.5594 321.288C92.2594 323.288 96.4594 327.888 97.2594 330.888C97.8594 333.588 99.3594 332.988 74.8594 339.988C73.9594 340.288 73.1594 339.188 72.5594 337.188C71.5594 333.488 66.6594 328.988 62.6594 328.188C61.0594 327.888 59.7594 327.288 59.7594 326.888C59.7594 325.688 77.8594 319.988 82.0594 319.988C84.1594 319.888 87.0594 320.488 88.5594 321.288ZM114.459 337.488C121.359 341.188 132.659 345.688 149.859 351.488C171.459 358.688 179.559 361.888 176.459 361.888C176.059 361.888 166.759 364.588 155.659 367.888L135.659 373.988L121.459 368.788C103.759 362.388 95.8594 358.988 87.1594 353.988C77.9594 348.688 66.4594 344.188 60.0594 343.288C57.1594 342.988 54.7594 342.288 54.7594 341.888C54.7594 341.088 60.9594 338.588 66.8594 336.888C70.5594 335.788 71.7594 336.688 71.7594 340.688C71.7594 342.188 72.2594 342.888 73.0594 342.488C75.0594 341.688 89.8594 337.088 94.3594 335.988C97.2594 335.188 98.6594 334.188 99.0594 332.788C99.7594 330.088 101.359 330.588 114.459 337.488ZM62.7594 345.388C66.5594 346.288 76.7594 350.588 87.2594 355.888C97.1594 360.788 111.159 366.888 118.259 369.388C125.459 371.888 131.959 374.288 132.759 374.788C133.859 375.388 134.359 377.788 134.559 383.788C134.759 388.188 134.459 391.888 134.059 391.888C133.659 391.888 129.759 390.688 125.359 389.388C121.059 387.988 109.359 384.988 99.3594 382.788C75.5594 377.588 51.3594 371.288 47.7594 369.388C46.1594 368.588 44.1594 366.888 43.3594 365.688C40.1594 361.088 42.1594 350.388 47.0594 346.288C50.3594 343.488 53.5594 343.288 62.7594 345.388ZM179.559 370.988L179.859 378.488L158.659 385.288C141.559 390.788 137.359 391.888 136.659 390.788C136.159 389.988 135.859 386.188 135.959 382.388L136.259 375.388L149.259 371.588C156.459 369.488 165.459 366.688 169.259 365.388C179.159 361.988 179.159 362.088 179.559 370.988Z" fill="white" fill-opacity="0.52"/>
<path d="M102.259 338.788C94.2593 341.688 83.7593 346.688 83.7593 347.588C83.8593 348.488 92.3593 353.888 93.8593 353.888C94.3593 353.888 96.9593 352.788 99.5593 351.488C102.159 350.188 107.159 348.088 110.759 346.888C114.359 345.588 117.659 344.188 118.159 343.788C119.059 342.988 112.659 338.488 109.259 337.488C108.159 337.188 105.059 337.788 102.259 338.788ZM112.659 340.588C114.359 341.588 115.759 342.688 115.759 342.988C115.759 343.288 113.859 344.088 111.659 344.788C109.359 345.488 104.359 347.588 100.559 349.388L93.5593 352.788L90.4593 350.588C88.6593 349.388 87.0593 348.288 86.8593 348.188C85.9593 347.588 87.7593 346.688 96.4593 342.888C106.459 338.488 108.359 338.188 112.659 340.588Z" fill="white" fill-opacity="0.52"/>
<path d="M116.759 351.988C111.059 354.188 105.959 356.288 105.459 356.788C104.659 357.588 108.359 359.288 124.759 365.788L134.259 369.588L146.259 365.788C152.859 363.688 159.059 361.988 160.059 361.988C164.459 361.788 160.359 359.288 150.159 355.888C144.159 353.788 136.759 351.188 133.759 349.988C130.759 348.888 128.059 347.888 127.759 347.988C127.459 347.988 122.559 349.788 116.759 351.988ZM133.359 351.388C135.659 352.288 136.659 353.288 136.159 353.988C135.759 354.788 135.859 354.888 136.659 354.488C137.859 353.688 146.759 355.788 146.759 356.888C146.759 357.188 147.759 357.488 149.059 357.488C150.259 357.588 152.859 358.288 154.759 359.088L158.259 360.588L152.259 362.388C148.959 363.388 144.859 364.188 143.059 364.288C141.359 364.388 139.959 364.788 140.059 365.288C140.159 365.788 138.959 366.588 137.259 366.988C134.959 367.688 132.759 367.188 127.759 365.288C113.459 359.688 108.759 357.488 109.459 356.788C109.859 356.388 113.559 354.888 117.559 353.588C121.559 352.188 125.159 350.888 125.459 350.488C126.559 349.488 129.659 349.788 133.359 351.388Z" fill="white" fill-opacity="0.52"/>
<path d="M306.659 318.388C305.859 319.088 307.659 326.988 308.859 328.288C310.059 329.588 309.959 328.388 308.459 322.588C307.759 319.888 306.959 317.988 306.659 318.388Z" fill="white" fill-opacity="0.52"/>
<path d="M184.159 323.788C177.959 327.588 177.559 335.788 183.459 340.888C186.159 343.288 187.759 343.888 191.359 343.888C195.259 343.888 196.459 343.388 199.359 340.488C201.759 338.088 202.759 336.188 202.759 333.888C202.759 324.688 192.159 318.888 184.159 323.788ZM197.059 325.888C202.959 330.488 201.959 338.688 195.159 341.488C184.459 345.988 175.559 332.188 184.659 325.188C187.259 323.188 194.159 323.588 197.059 325.888Z" fill="white" fill-opacity="0.52"/>
<path d="M189.359 328.788C187.259 331.088 187.959 332.888 190.859 332.888C193.259 332.888 194.559 335.788 192.759 336.888C192.059 337.388 190.359 337.288 189.059 336.788C187.359 336.188 186.859 336.188 187.259 336.988C188.659 339.088 192.059 339.588 193.959 337.988C194.959 337.188 195.759 335.888 195.759 335.288C195.759 333.488 192.659 331.388 190.559 331.688C188.259 332.088 188.159 330.288 190.459 328.988C191.659 328.388 192.859 328.388 194.259 329.088C196.059 330.088 196.159 330.088 194.859 328.588C193.059 326.388 191.459 326.488 189.359 328.788Z" fill="white" fill-opacity="0.52"/>
<path d="M135.959 326.088C132.859 329.188 136.059 334.888 140.859 334.888C143.959 334.888 145.759 333.188 145.759 330.388C145.759 325.988 138.959 323.088 135.959 326.088ZM143.759 330.388C143.759 332.488 143.259 332.888 140.759 332.888C136.159 332.888 134.559 328.088 138.759 326.688C141.159 325.888 143.759 327.788 143.759 330.388Z" fill="white" fill-opacity="0.52"/>
<path d="M256.959 330.188C246.059 338.288 237.059 358.588 236.059 377.388C235.459 388.388 236.459 393.988 239.959 398.388C241.959 400.988 242.359 401.088 248.159 400.488C271.259 398.288 284.159 398.888 298.359 403.088C306.659 405.488 306.759 405.888 300.659 412.488C296.059 417.688 294.559 420.288 295.359 422.388C295.759 423.288 294.759 426.488 293.259 429.588C291.559 432.788 290.259 437.388 289.959 440.488C289.559 445.388 289.759 446.088 292.559 448.888C299.059 455.388 307.459 450.688 309.659 439.388C311.859 428.088 315.759 416.888 318.659 413.688L321.359 410.588L326.659 411.888C333.159 413.388 340.159 412.688 343.659 410.188C348.759 406.288 352.059 400.388 352.559 393.988C353.059 386.488 351.659 382.088 346.959 377.388C342.159 372.588 338.259 370.688 322.359 365.188C304.359 359.088 300.659 356.688 280.759 338.588C268.859 327.688 263.159 325.688 256.959 330.188ZM268.959 332.088C271.259 334.688 272.759 340.288 272.759 346.488V351.688L267.159 354.388C260.659 357.588 256.759 362.788 256.059 369.088C255.659 372.488 256.159 374.588 258.659 379.288C260.359 382.488 261.759 385.488 261.759 385.888C261.759 387.588 251.659 397.688 248.759 398.888C244.759 400.588 241.559 398.988 239.059 393.988C236.559 389.088 236.859 374.188 239.659 363.688C244.759 344.288 257.359 327.388 265.259 329.488C266.359 329.788 268.059 330.988 268.959 332.088ZM279.759 339.788L286.259 345.688L286.059 353.488C285.659 367.788 279.059 387.388 272.359 393.688C269.659 396.288 268.259 396.888 261.859 397.488L254.459 398.188L258.759 392.788C264.159 385.988 269.359 374.688 271.859 364.388C273.859 355.788 274.459 340.788 272.759 336.488C272.259 335.088 272.159 333.888 272.559 333.888C272.959 333.888 276.159 336.588 279.759 339.788ZM291.359 349.988C296.759 356.088 307.059 361.788 320.759 366.388C328.359 368.888 335.159 371.688 335.859 372.488C340.659 378.388 334.659 398.088 325.259 406.888L322.759 409.288L307.959 404.488C292.959 399.688 284.559 397.888 277.059 397.888C274.659 397.888 272.759 397.688 272.759 397.388C272.759 397.088 274.359 394.488 276.259 391.588C282.459 382.288 287.759 364.288 287.759 352.888C287.759 347.388 288.459 346.788 291.359 349.988ZM271.759 356.588C271.759 358.888 268.659 371.188 267.759 372.388C267.359 372.888 266.759 374.588 266.359 376.088C266.059 377.688 265.259 378.888 264.659 378.888C264.059 378.888 263.859 379.288 264.159 379.688C264.359 380.088 264.259 381.088 263.859 381.788C263.259 382.688 262.359 382.188 260.659 379.688C258.759 377.088 258.259 375.088 258.259 370.188C258.259 363.488 259.959 360.688 266.259 356.788C269.959 354.488 271.759 354.388 271.759 356.588ZM344.059 376.988C346.159 378.688 348.459 381.288 349.159 382.688C356.159 396.488 345.659 413.188 331.259 411.188C328.759 410.888 326.459 410.188 326.159 409.688C325.859 409.288 327.259 406.988 329.259 404.688C335.659 397.088 340.759 382.588 339.159 376.288C338.359 373.088 339.559 373.288 344.059 376.988ZM317.059 409.288C318.859 409.888 318.759 409.988 316.859 412.488C314.559 415.388 310.659 426.888 308.759 436.388C307.159 444.288 305.359 447.488 301.759 449.388C299.159 450.688 298.259 450.788 295.959 449.688C291.759 447.688 290.359 443.688 291.759 438.088C292.359 435.488 293.759 431.888 294.859 430.088C295.859 428.288 296.759 425.088 296.759 422.988C296.759 420.388 297.459 418.588 298.859 417.288C299.959 416.288 302.459 413.288 304.359 410.688L307.859 405.988L311.559 407.288C313.559 408.088 316.059 408.988 317.059 409.288Z" fill="white" fill-opacity="0.52"/>
<path d="M240.959 379.888C240.959 381.788 241.159 382.588 241.459 381.588C241.659 380.688 241.659 379.088 241.459 378.088C241.159 377.188 240.959 377.988 240.959 379.888Z" fill="white" fill-opacity="0.52"/>
<path d="M326.659 399.588C323.759 403.088 322.559 404.888 323.059 404.888C323.259 404.888 324.759 403.288 326.159 401.388C328.959 397.788 329.259 396.488 326.659 399.588Z" fill="white" fill-opacity="0.52"/>
<path d="M292.959 442.888C292.959 444.788 293.159 445.588 293.459 444.588C293.659 443.688 293.659 442.088 293.459 441.088C293.159 440.188 292.959 440.988 292.959 442.888Z" fill="white" fill-opacity="0.52"/>
<path d="M234.759 332.088C234.759 334.288 236.859 338.888 237.959 338.888C239.159 338.888 238.859 337.788 236.759 333.888C235.659 331.788 234.859 331.088 234.759 332.088Z" fill="white" fill-opacity="0.52"/>
<path d="M313.759 337.688C313.759 338.088 315.359 339.988 317.259 341.888C321.459 345.988 321.859 344.688 317.759 340.088C314.759 336.888 313.759 336.188 313.759 337.688Z" fill="white" fill-opacity="0.52"/>
<path d="M438.259 339.588C434.359 341.688 436.659 342.488 440.659 340.388C442.359 339.588 443.759 338.588 443.759 338.388C443.759 337.388 441.159 337.988 438.259 339.588Z" fill="white" fill-opacity="0.52"/>
<path d="M216.759 343.988C216.759 344.988 224.559 350.888 225.959 350.888C227.859 350.888 226.359 349.188 221.659 346.188C218.959 344.488 216.759 343.488 216.759 343.988Z" fill="white" fill-opacity="0.52"/>
<path d="M398.759 344.888C398.759 345.388 401.259 345.888 404.259 345.888C407.259 345.888 409.759 345.388 409.759 344.888C409.759 344.288 407.259 343.888 404.259 343.888C401.259 343.888 398.759 344.288 398.759 344.888Z" fill="white" fill-opacity="0.52"/>
<path d="M418.759 344.888C418.759 346.088 423.459 346.088 426.259 344.888C427.759 344.288 427.059 343.988 423.559 343.988C420.859 343.888 418.759 344.288 418.759 344.888Z" fill="white" fill-opacity="0.52"/>
<path d="M383.759 347.088C379.859 348.688 382.959 349.088 387.359 347.488C390.459 346.288 390.759 345.988 388.759 345.988C387.359 345.988 385.159 346.488 383.759 347.088Z" fill="white" fill-opacity="0.52"/>
<path d="M326.759 350.288C326.759 350.888 333.259 354.588 335.659 355.388C339.559 356.588 337.659 354.388 332.859 352.088C328.159 349.888 326.759 349.488 326.759 350.288Z" fill="white" fill-opacity="0.52"/>
<path d="M369.259 355.388C367.059 356.688 365.759 357.888 366.459 357.888C367.959 357.888 373.759 354.588 373.759 353.588C373.759 352.588 373.759 352.588 369.259 355.388Z" fill="white" fill-opacity="0.52"/>
<path d="M347.259 358.888C347.559 359.388 349.759 359.888 352.059 359.888C355.159 359.888 355.859 359.588 354.759 358.888C352.759 357.588 346.459 357.588 347.259 358.888Z" fill="white" fill-opacity="0.52"/>
<path d="M216.859 364.788C215.459 365.188 214.259 365.988 214.059 366.588C213.759 367.388 214.659 367.388 217.659 366.488C219.859 365.888 221.959 364.988 222.359 364.588C223.259 363.788 220.259 363.788 216.859 364.788Z" fill="white" fill-opacity="0.52"/>
<path d="M384.759 368.388C384.759 369.188 385.259 369.888 385.759 369.888C386.359 369.888 386.759 369.188 386.759 368.388C386.759 367.588 386.359 366.888 385.759 366.888C385.259 366.888 384.759 367.588 384.759 368.388Z" fill="white" fill-opacity="0.52"/>
<path d="M222.559 378.888C220.759 380.488 219.759 381.888 220.459 381.888C221.059 381.888 223.159 380.488 224.959 378.888C226.759 377.188 227.659 375.888 226.959 375.888C226.359 375.888 224.359 377.188 222.559 378.888Z" fill="white" fill-opacity="0.52"/>
<path d="M387.559 379.588C384.959 382.488 384.559 385.588 386.159 388.688C388.659 393.588 393.459 394.288 397.259 390.388C400.359 387.388 400.559 382.688 397.759 379.888C395.259 377.388 389.659 377.188 387.559 379.588ZM397.059 381.988C398.759 384.388 398.859 384.988 397.659 387.488C395.059 392.888 386.759 391.088 386.759 385.188C386.759 382.188 390.259 378.688 392.959 379.088C394.159 379.288 395.959 380.588 397.059 381.988Z" fill="white" fill-opacity="0.52"/>
<path d="M159.259 401.388C160.859 414.488 166.359 437.888 167.759 437.888C168.259 437.888 170.059 435.888 171.759 433.388C173.459 430.888 175.059 428.888 175.359 428.888C176.159 428.888 178.159 431.288 187.959 444.188C197.459 456.488 195.459 455.988 211.359 449.788C216.859 447.688 221.759 445.888 222.359 445.888C222.859 445.888 225.859 448.088 229.059 450.788C232.159 453.588 235.959 456.688 237.559 457.688L240.259 459.688L249.259 453.688C254.259 450.488 263.559 444.588 270.059 440.688C276.459 436.788 281.759 433.388 281.759 432.988C281.759 431.688 269.159 419.888 267.759 419.888C266.959 419.888 262.959 422.488 258.759 425.688C254.659 428.888 249.659 432.488 247.659 433.688L244.159 435.788L238.259 429.888C234.959 426.588 231.559 423.888 230.659 423.888C229.659 423.888 223.559 425.888 216.959 428.388C210.359 430.888 204.659 432.888 204.259 432.888C203.259 432.888 198.059 428.188 192.959 422.788L188.759 418.088L193.759 414.888C196.559 413.088 198.659 411.188 198.459 410.588C198.359 410.088 196.659 409.088 194.759 408.288C175.359 400.988 161.059 395.888 159.959 395.888C158.859 395.888 158.659 396.988 159.259 401.388ZM179.559 404.388C188.459 407.688 195.759 410.688 195.759 411.188C195.759 411.588 193.759 413.188 191.259 414.688C188.759 416.188 186.759 417.688 186.759 418.088C186.759 419.288 201.959 434.888 203.159 434.888C203.759 434.888 209.659 432.888 216.259 430.388C222.859 427.888 228.959 425.888 229.759 425.888C230.559 425.888 233.959 428.588 237.359 431.988L243.559 438.088L248.059 435.388C250.559 433.988 255.759 430.288 259.459 427.288C263.159 424.388 266.759 421.888 267.259 421.888C267.859 421.888 270.759 424.388 273.759 427.488C278.659 432.388 279.059 433.088 277.559 434.188C276.659 434.888 268.759 439.788 260.059 445.188C251.359 450.588 243.359 455.588 242.159 456.388C240.259 457.788 239.559 457.488 231.659 450.888C227.059 447.088 222.959 443.888 222.559 443.888C222.259 443.888 216.759 445.888 210.459 448.388C204.059 450.888 198.559 452.888 198.059 452.888C197.559 452.888 192.459 446.988 186.859 439.888C181.159 432.688 175.959 426.888 175.259 426.888C174.559 426.888 172.759 428.788 171.259 430.988C169.759 433.388 168.159 434.688 167.659 434.188C166.759 433.288 160.759 404.088 160.759 400.288C160.759 397.188 159.459 396.888 179.559 404.388Z" fill="white" fill-opacity="0.52"/>
<path d="M367.359 405.588C366.259 406.688 366.759 407.888 368.259 407.888C369.059 407.888 369.759 407.488 369.759 406.988C369.759 405.688 368.159 404.788 367.359 405.588Z" fill="white" fill-opacity="0.52"/>
<path d="M115.759 409.588C106.559 413.088 108.359 425.888 117.959 425.888C122.559 425.888 125.659 423.288 126.359 418.788C126.859 415.988 126.459 414.688 124.659 412.588C122.159 409.888 118.359 408.588 115.759 409.588ZM122.559 412.488C125.759 414.688 125.559 420.088 122.159 422.788C120.659 423.988 118.659 424.888 117.559 424.888C115.059 424.888 110.759 420.488 110.759 417.888C110.759 415.088 115.059 410.888 117.959 410.888C119.259 410.888 121.359 411.588 122.559 412.488Z" fill="white" fill-opacity="0.52"/>
<path d="M363.759 416.388C363.759 417.188 364.259 417.888 364.759 417.888C365.359 417.888 365.759 417.188 365.759 416.388C365.759 415.588 365.359 414.888 364.759 414.888C364.259 414.888 363.759 415.588 363.759 416.388Z" fill="white" fill-opacity="0.52"/>
</svg>
