<svg width="1512" height="820" viewBox="0 0 1512 820" fill="none" xmlns="http://www.w3.org/2000/svg">
<rect width="1512" height="820" fill="#F8F8F8"/>
<path opacity="0.14" d="M119.628 176H99.8551L129.983 88.7273H153.761L183.847 176H164.074L142.213 108.67H141.531L119.628 176ZM118.392 141.696H165.097V156.099H118.392V141.696ZM239.702 113.827C239.362 110.389 237.898 107.719 235.313 105.815C232.728 103.912 229.219 102.96 224.788 102.96C221.776 102.96 219.234 103.386 217.16 104.239C215.086 105.062 213.495 106.213 212.387 107.69C211.308 109.168 210.768 110.844 210.768 112.719C210.711 114.281 211.038 115.645 211.748 116.81C212.487 117.974 213.495 118.983 214.773 119.835C216.052 120.659 217.529 121.384 219.205 122.009C220.881 122.605 222.671 123.116 224.575 123.543L232.415 125.418C236.222 126.27 239.717 127.406 242.898 128.827C246.08 130.247 248.836 131.994 251.165 134.068C253.495 136.142 255.299 138.585 256.577 141.398C257.884 144.21 258.552 147.435 258.58 151.071C258.552 156.412 257.188 161.043 254.489 164.963C251.819 168.855 247.955 171.881 242.898 174.04C237.87 176.17 231.805 177.236 224.702 177.236C217.657 177.236 211.521 176.156 206.293 173.997C201.094 171.838 197.032 168.642 194.106 164.409C191.208 160.148 189.688 154.878 189.546 148.599H207.401C207.6 151.526 208.438 153.969 209.915 155.929C211.421 157.861 213.424 159.324 215.924 160.318C218.452 161.284 221.308 161.767 224.489 161.767C227.614 161.767 230.327 161.312 232.629 160.403C234.958 159.494 236.762 158.23 238.04 156.611C239.319 154.991 239.958 153.131 239.958 151.028C239.958 149.068 239.376 147.42 238.211 146.085C237.075 144.75 235.398 143.614 233.183 142.676C230.995 141.739 228.31 140.886 225.129 140.119L215.626 137.733C208.268 135.943 202.458 133.145 198.197 129.338C193.935 125.531 191.819 120.403 191.847 113.955C191.819 108.67 193.225 104.054 196.066 100.105C198.935 96.1562 202.87 93.0739 207.87 90.858C212.87 88.642 218.552 87.5341 224.915 87.5341C231.393 87.5341 237.046 88.642 241.876 90.858C246.734 93.0739 250.512 96.1562 253.211 100.105C255.91 104.054 257.302 108.628 257.387 113.827H239.702ZM318.335 113.827C317.994 110.389 316.531 107.719 313.946 105.815C311.361 103.912 307.852 102.96 303.42 102.96C300.409 102.96 297.866 103.386 295.793 104.239C293.719 105.062 292.128 106.213 291.02 107.69C289.94 109.168 289.401 110.844 289.401 112.719C289.344 114.281 289.67 115.645 290.381 116.81C291.119 117.974 292.128 118.983 293.406 119.835C294.685 120.659 296.162 121.384 297.838 122.009C299.514 122.605 301.304 123.116 303.207 123.543L311.048 125.418C314.855 126.27 318.349 127.406 321.531 128.827C324.713 130.247 327.469 131.994 329.798 134.068C332.128 136.142 333.932 138.585 335.21 141.398C336.517 144.21 337.185 147.435 337.213 151.071C337.185 156.412 335.821 161.043 333.122 164.963C330.452 168.855 326.588 171.881 321.531 174.04C316.503 176.17 310.438 177.236 303.335 177.236C296.29 177.236 290.153 176.156 284.926 173.997C279.727 171.838 275.665 168.642 272.739 164.409C269.841 160.148 268.321 154.878 268.179 148.599H286.034C286.233 151.526 287.071 153.969 288.548 155.929C290.054 157.861 292.057 159.324 294.557 160.318C297.085 161.284 299.94 161.767 303.122 161.767C306.247 161.767 308.96 161.312 311.261 160.403C313.591 159.494 315.395 158.23 316.673 156.611C317.952 154.991 318.591 153.131 318.591 151.028C318.591 149.068 318.009 147.42 316.844 146.085C315.707 144.75 314.031 143.614 311.815 142.676C309.628 141.739 306.943 140.886 303.761 140.119L294.259 137.733C286.901 135.943 281.091 133.145 276.83 129.338C272.568 125.531 270.452 120.403 270.48 113.955C270.452 108.67 271.858 104.054 274.699 100.105C277.568 96.1562 281.503 93.0739 286.503 90.858C291.503 88.642 297.185 87.5341 303.548 87.5341C310.026 87.5341 315.679 88.642 320.509 90.858C325.366 93.0739 329.145 96.1562 331.844 100.105C334.543 104.054 335.935 108.628 336.02 113.827H318.335ZM349.624 176V88.7273H408.431V103.94H368.076V124.736H405.406V139.949H368.076V160.787H408.602V176H349.624ZM419.777 103.94V88.7273H491.453V103.94H464.734V176H446.496V103.94H419.777ZM531.031 88.7273H553.786L577.82 147.364H578.843L602.877 88.7273H625.633V176H607.735V119.196H607.011L584.425 175.574H572.238L549.653 118.983H548.928V176H531.031V88.7273ZM655.878 176H636.105L666.233 88.7273H690.011L720.097 176H700.324L678.463 108.67H677.781L655.878 176ZM654.642 141.696H701.347V156.099H654.642V141.696ZM803.598 88.7273V176H787.661L749.692 121.071H749.053V176H730.601V88.7273H746.794L784.464 143.614H785.232V88.7273H803.598ZM833.886 176H814.113L844.241 88.7273H868.019L898.104 176H878.332L856.471 108.67H855.789L833.886 176ZM832.65 141.696H879.354V156.099H832.65V141.696ZM962.376 116.938C961.78 114.864 960.942 113.031 959.862 111.44C958.783 109.821 957.462 108.457 955.899 107.349C954.365 106.213 952.604 105.347 950.615 104.75C948.655 104.153 946.482 103.855 944.095 103.855C939.635 103.855 935.714 104.963 932.334 107.179C928.982 109.395 926.368 112.619 924.493 116.852C922.618 121.057 921.68 126.199 921.68 132.278C921.68 138.358 922.604 143.528 924.45 147.79C926.297 152.051 928.911 155.304 932.291 157.548C935.672 159.764 939.663 160.872 944.266 160.872C948.442 160.872 952.007 160.134 954.962 158.656C957.945 157.151 960.217 155.034 961.78 152.307C963.371 149.58 964.166 146.355 964.166 142.634L967.916 143.188H945.416V129.295H981.936V140.29C981.936 147.96 980.317 154.551 977.078 160.062C973.839 165.545 969.379 169.778 963.697 172.761C958.016 175.716 951.51 177.193 944.18 177.193C935.999 177.193 928.811 175.389 922.618 171.781C916.425 168.145 911.595 162.989 908.129 156.312C904.692 149.608 902.973 141.653 902.973 132.449C902.973 125.375 903.996 119.068 906.041 113.528C908.115 107.96 911.013 103.244 914.734 99.3807C918.456 95.517 922.788 92.5767 927.732 90.5597C932.675 88.5426 938.03 87.5341 943.797 87.5341C948.74 87.5341 953.342 88.2585 957.604 89.7074C961.865 91.1278 965.643 93.1449 968.939 95.7585C972.263 98.3722 974.976 101.483 977.078 105.091C979.18 108.67 980.53 112.619 981.126 116.938H962.376ZM995.796 176V88.7273H1054.6V103.94H1014.25V124.736H1051.58V139.949H1014.25V160.787H1054.77V176H995.796ZM1069.27 88.7273H1092.03L1116.06 147.364H1117.09L1141.12 88.7273H1163.88V176H1145.98V119.196H1145.25L1122.67 175.574H1110.48L1087.89 118.983H1087.17V176H1069.27V88.7273ZM1179.08 176V88.7273H1237.88V103.94H1197.53V124.736H1234.86V139.949H1197.53V160.787H1238.05V176H1179.08ZM1325.55 88.7273V176H1309.61L1271.64 121.071H1271.01V176H1252.55V88.7273H1268.75L1306.42 143.614H1307.18V88.7273H1325.55ZM1337.47 103.94V88.7273H1409.15V103.94H1382.43V176H1364.19V103.94H1337.47Z" fill="url(#paint0_linear_56_54)"/>
<g filter="url(#filter0_d_56_54)">
<g clip-path="url(#clip0_56_54)">
<rect x="166" y="159" width="1180" height="545" rx="20" fill="#CA0000"/>
<path d="M405.559 201.988C401.959 204.088 403.959 209.888 408.259 209.888C412.659 209.888 414.559 203.888 410.859 201.888C408.459 200.688 407.759 200.688 405.559 201.988ZM410.559 204.088C411.259 204.788 411.359 205.788 410.659 207.088C409.459 209.288 407.459 209.388 405.759 207.388C403.459 204.588 407.859 201.388 410.559 204.088Z" fill="white" fill-opacity="0.52"/>
<path d="M486.959 203.288C482.959 205.188 481.359 208.988 482.259 214.888C483.159 220.888 483.159 221.688 481.859 234.988C480.459 249.588 476.659 268.488 471.559 285.788C468.559 296.188 467.959 299.388 468.959 299.988C474.059 303.188 516.659 309.888 531.559 309.888C539.059 309.888 539.759 309.588 549.559 301.088C555.759 295.788 555.759 295.688 555.759 290.388C555.759 287.388 555.359 280.588 554.759 275.188C554.259 269.788 553.659 253.988 553.559 240.188C553.259 216.388 553.159 214.788 551.259 212.988C549.759 211.588 545.159 210.388 533.759 208.488C525.259 206.988 514.859 205.188 510.759 204.388C498.259 201.988 490.659 201.688 486.959 203.288ZM510.259 205.788C515.759 206.788 526.259 208.688 533.459 209.988C540.759 211.188 547.159 212.588 547.759 212.888C548.459 213.288 546.059 223.288 544.259 227.588C543.959 228.188 506.759 222.488 495.959 220.188C484.959 217.788 483.659 217.288 483.159 215.188C482.359 212.188 484.359 207.288 487.159 205.388C489.959 203.388 498.159 203.488 510.259 205.788ZM552.259 220.188C553.059 225.388 551.459 229.888 548.859 229.888C547.859 229.888 546.759 229.288 546.459 228.588C545.759 226.788 549.659 214.688 550.759 215.388C551.259 215.688 551.959 217.788 552.259 220.188ZM498.659 222.288C505.059 223.688 517.559 225.688 526.559 226.888C535.559 228.088 543.659 229.288 544.459 229.588C548.359 231.088 542.459 304.488 538.159 307.588C537.159 308.288 534.759 308.888 532.859 308.888C528.559 308.888 492.659 304.388 484.759 302.788C478.759 301.688 469.759 298.988 469.759 298.288C469.759 298.088 471.559 291.688 473.659 284.188C478.959 265.388 481.459 252.788 483.259 235.788C484.059 227.888 484.759 221.088 484.759 220.588C484.759 219.488 486.159 219.688 498.659 222.288ZM553.659 282.388L554.759 294.388L549.059 299.588C545.859 302.488 542.859 304.888 542.359 304.888C541.959 304.888 541.759 303.388 542.159 301.588C543.759 292.588 545.759 272.188 546.859 253.188C547.959 235.488 548.459 231.888 549.759 231.688C551.059 231.388 551.359 233.988 551.859 250.888C552.259 261.588 553.059 275.788 553.659 282.388Z" fill="white" fill-opacity="0.52"/>
<path d="M491.359 232.088C491.059 233.388 490.759 235.588 490.759 236.988C490.759 239.388 491.159 239.688 494.759 240.088C499.659 240.488 500.759 239.588 500.759 234.788C500.759 231.488 500.459 231.088 497.659 230.488C492.759 229.588 492.059 229.688 491.359 232.088ZM499.259 232.888C499.559 233.388 499.559 234.988 499.159 236.388C498.659 238.288 497.959 238.888 495.659 238.888C493.059 238.888 492.759 238.588 492.759 235.388C492.759 232.188 492.959 231.888 495.659 231.888C497.359 231.888 498.859 232.288 499.259 232.888Z" fill="white" fill-opacity="0.52"/>
<path d="M504.859 237.388C505.359 237.788 531.059 241.888 533.559 241.888C534.559 241.888 534.759 241.588 534.259 241.088C532.659 239.688 503.559 235.988 504.859 237.388Z" fill="white" fill-opacity="0.52"/>
<path d="M489.459 248.588C489.059 248.888 488.759 250.988 488.759 253.088V256.888H493.159C496.259 256.888 497.759 256.388 498.159 255.288C499.259 252.388 498.759 249.088 497.159 248.488C495.059 247.688 490.259 247.688 489.459 248.588ZM494.559 249.488C497.559 250.388 497.359 255.288 494.259 255.688C491.159 255.988 489.859 254.688 490.459 251.588C491.059 248.688 491.159 248.588 494.559 249.488Z" fill="white" fill-opacity="0.52"/>
<path d="M502.759 253.588C502.759 254.488 518.159 257.488 527.759 258.588C537.259 259.588 532.759 258.188 519.759 255.888C512.859 254.788 506.259 253.588 505.059 253.288C503.759 253.088 502.759 253.188 502.759 253.588Z" fill="white" fill-opacity="0.52"/>
<path d="M486.759 266.888C485.259 269.688 485.559 273.588 487.359 274.288C488.259 274.588 490.159 274.888 491.759 274.888C494.159 274.888 494.559 274.388 495.059 271.188C495.759 266.788 495.859 266.888 491.359 265.888C488.359 265.188 487.559 265.388 486.759 266.888ZM492.159 267.488C493.059 267.788 493.759 269.188 493.759 270.488C493.759 272.588 493.259 272.888 490.259 272.888C486.559 272.888 486.459 272.688 487.359 269.088C487.959 266.888 489.359 266.388 492.159 267.488Z" fill="white" fill-opacity="0.52"/>
<path d="M501.759 271.688C501.759 272.588 524.159 276.888 528.359 276.888C532.759 276.788 526.859 275.088 516.259 273.488C510.259 272.488 504.459 271.488 503.559 271.288C502.559 270.988 501.759 271.188 501.759 271.688Z" fill="white" fill-opacity="0.52"/>
<path d="M482.459 285.088C481.059 290.288 481.559 291.588 485.359 292.388C489.659 293.188 490.759 292.088 490.759 287.088C490.759 284.688 490.359 283.888 489.059 283.888C488.059 283.888 486.259 283.588 485.159 283.288C483.559 282.888 482.859 283.288 482.459 285.088ZM489.259 285.888C490.259 287.588 488.759 290.888 486.959 290.888C484.159 290.888 482.759 289.488 483.459 287.088C484.059 284.788 488.059 283.988 489.259 285.888Z" fill="white" fill-opacity="0.52"/>
<path d="M498.359 288.588C497.759 289.288 521.659 293.788 525.759 293.788C530.059 293.888 523.259 291.988 513.759 290.488C507.959 289.588 502.359 288.588 501.159 288.388C499.959 288.088 498.759 288.288 498.359 288.588Z" fill="white" fill-opacity="0.52"/>
<path d="M463.759 213.588C454.659 223.488 453.859 224.888 457.259 224.888C458.959 224.888 459.759 225.388 459.759 226.688C459.759 230.388 449.759 248.788 444.759 254.188C434.959 264.888 419.059 274.988 405.859 278.888C398.559 280.988 398.559 281.088 399.159 284.088C399.459 285.788 399.759 289.388 399.759 292.088C399.759 295.288 400.259 297.088 401.159 297.488C401.959 297.788 406.059 296.688 410.259 294.888C435.259 284.888 458.159 260.588 467.359 234.088C469.259 228.688 470.159 227.888 471.159 230.388C471.459 231.188 472.459 231.888 473.359 231.888C474.659 231.888 474.859 231.288 474.359 228.788C474.059 227.088 473.759 221.188 473.759 215.788C473.759 207.888 473.459 205.888 472.359 205.888C471.559 205.888 467.659 209.388 463.759 213.588ZM472.759 218.988C472.759 227.988 471.959 230.688 470.259 227.888C468.959 225.888 467.859 226.988 466.259 232.088C463.459 240.688 457.159 252.888 451.859 259.988C445.059 268.888 433.059 280.088 423.859 285.988C416.759 290.588 403.259 296.688 402.359 295.788C402.159 295.588 401.659 292.388 401.259 288.688L400.659 281.988L406.459 280.288C427.359 274.288 447.759 257.588 456.359 239.388C458.759 234.288 461.059 228.788 461.359 226.988C461.959 224.288 461.759 223.888 459.759 223.888C458.559 223.888 457.759 223.488 457.959 222.888C458.659 220.688 470.959 207.888 471.859 208.388C472.359 208.788 472.759 213.488 472.759 218.988Z" fill="white" fill-opacity="0.52"/>
<path d="M367.659 216.088C353.259 225.588 328.559 245.188 317.159 256.188C308.159 264.788 306.759 266.588 305.759 270.788C304.759 274.988 304.859 276.188 306.359 279.088C310.959 288.088 328.659 309.488 334.459 312.988C339.259 315.988 342.659 314.988 353.259 307.388C358.259 303.888 372.659 293.888 385.259 285.288C417.159 263.488 415.459 264.988 416.359 258.188C416.859 253.588 416.659 251.888 414.859 248.088C408.759 235.588 384.759 209.888 379.259 209.888C378.059 209.888 372.859 212.688 367.659 216.088ZM381.559 212.288C383.059 213.088 388.159 217.688 392.759 222.588C405.959 236.288 414.759 248.588 414.759 253.388C414.759 255.988 407.159 261.888 384.759 276.888C377.859 281.488 367.559 288.888 361.759 293.388C347.759 304.188 342.259 307.888 339.959 307.888C337.659 307.888 332.159 302.088 321.459 288.688C310.459 274.788 307.559 270.288 308.259 267.988C309.859 262.988 344.259 233.988 367.759 217.988C373.459 214.088 378.259 210.888 378.459 210.888C378.659 210.888 380.059 211.488 381.559 212.288ZM414.759 259.988C414.759 262.088 409.159 267.888 407.059 267.888C406.359 267.888 405.759 268.188 405.759 268.688C405.759 269.088 404.759 269.988 403.659 270.788C401.859 271.888 401.359 271.888 400.559 270.688C399.759 269.688 399.659 269.788 400.159 271.088C400.559 272.288 398.959 273.888 394.459 276.788C391.059 279.088 385.659 282.688 382.459 284.888C379.259 287.088 376.259 288.888 375.759 288.888C375.259 288.888 374.759 289.188 374.559 289.588C373.859 291.288 367.659 294.888 366.559 294.288C365.959 293.888 365.759 293.988 366.059 294.588C366.959 295.988 346.059 311.188 340.659 313.188C337.659 314.188 328.959 306.988 321.559 297.388C320.359 295.688 318.859 293.888 318.259 293.288C317.759 292.688 316.559 291.088 315.759 289.888C314.959 288.688 313.759 287.088 313.259 286.488C310.159 282.988 306.659 276.488 306.959 274.588C307.259 272.588 307.459 272.788 309.459 275.888C310.659 277.788 312.759 280.588 313.959 282.088C315.259 283.588 317.359 286.288 318.759 288.088C322.459 292.988 333.959 306.188 335.759 307.588C339.259 310.488 341.459 310.188 347.959 305.788C354.459 301.388 361.859 295.888 362.759 294.788C363.959 293.288 387.059 276.888 387.859 276.888C388.459 276.888 389.359 276.388 390.059 275.888C392.359 273.888 403.759 265.888 404.259 265.888C404.559 265.888 405.559 265.188 406.559 264.288C408.959 262.088 414.259 257.888 414.559 257.888C414.659 257.888 414.759 258.788 414.759 259.988Z" fill="white" fill-opacity="0.52"/>
<path d="M374.759 220.588C348.259 238.388 321.759 259.488 321.759 262.588C321.759 263.988 337.959 286.688 343.059 292.588C344.659 294.388 346.459 295.888 347.159 295.888C347.759 295.888 351.159 293.888 354.759 291.388C358.359 288.888 365.959 283.688 371.759 279.688C388.959 267.988 404.559 256.188 406.359 253.388C407.959 250.988 407.859 250.688 404.659 245.288C399.859 237.388 382.159 218.888 379.359 218.888C378.159 218.888 376.059 219.688 374.759 220.588ZM387.759 227.588C397.459 237.588 405.859 248.788 405.559 251.388C405.259 253.688 395.359 261.488 377.059 273.988C369.759 278.888 360.359 285.388 356.159 288.388C351.959 291.388 347.959 293.888 347.259 293.888C345.159 293.888 323.759 265.088 323.759 262.288C323.759 260.788 343.159 244.988 358.359 234.088C376.259 221.388 378.259 219.988 379.259 219.988C379.759 219.888 383.559 223.388 387.759 227.588Z" fill="white" fill-opacity="0.52"/>
<path d="M372.759 233.288C372.759 234.188 387.059 252.088 389.359 253.988C392.859 256.788 390.159 252.588 383.659 244.888C375.159 234.688 372.759 232.188 372.759 233.288Z" fill="white" fill-opacity="0.52"/>
<path d="M365.659 241.588C367.559 244.888 372.559 250.388 373.159 249.788C373.859 249.088 366.859 239.888 365.559 239.888C365.059 239.888 365.159 240.688 365.659 241.588Z" fill="white" fill-opacity="0.52"/>
<path d="M357.459 247.188C359.459 250.588 372.159 265.888 372.959 265.888C374.159 265.888 373.259 264.388 365.359 254.588C361.559 249.788 358.059 245.888 357.559 245.888C357.059 245.888 357.059 246.488 357.459 247.188Z" fill="white" fill-opacity="0.52"/>
<path d="M324.459 279.588C321.959 282.088 327.159 290.888 331.259 290.888C335.359 290.888 333.659 283.388 328.859 280.588C325.559 278.688 325.359 278.588 324.459 279.588ZM329.459 283.088C331.359 284.888 332.659 288.888 331.359 288.888C328.659 288.888 323.959 282.988 325.459 281.488C326.459 280.488 326.959 280.688 329.459 283.088Z" fill="white" fill-opacity="0.52"/>
<path d="M430.259 221.688C423.859 223.088 420.459 229.788 423.059 236.088C426.159 243.488 435.259 245.788 440.559 240.588C442.759 238.288 443.259 236.988 443.259 232.888C443.259 228.888 442.759 227.388 440.759 225.388C437.959 222.688 433.359 220.988 430.259 221.688ZM436.859 224.488C438.559 225.288 440.559 227.488 441.359 229.488C442.559 232.388 442.559 233.388 441.359 236.288C438.259 243.688 428.959 243.988 425.259 236.888C422.959 232.488 423.359 229.088 426.659 225.788C429.959 222.488 432.459 222.188 436.859 224.488Z" fill="white" fill-opacity="0.52"/>
<path d="M429.959 227.088C428.259 228.788 428.459 232.888 430.159 232.888C430.959 232.888 431.859 233.588 432.159 234.488C432.959 236.688 432.959 237.088 431.759 236.388C431.259 236.088 430.759 236.288 430.759 236.788C430.759 238.488 434.459 238.088 436.159 236.288C438.159 234.388 438.259 231.988 436.359 231.288C433.459 230.188 431.259 230.188 430.559 231.288C430.059 231.988 429.759 231.688 429.759 230.588C429.759 229.488 430.659 228.488 431.759 228.188C432.859 227.888 433.459 227.288 433.159 226.788C432.459 225.588 431.359 225.688 429.959 227.088ZM435.359 233.188C436.159 232.888 436.759 233.188 436.759 233.888C436.759 234.488 436.359 234.688 435.759 234.388C435.259 234.088 434.759 234.288 434.759 234.888C434.759 235.488 434.359 235.688 433.759 235.388C433.259 235.088 432.759 233.988 432.859 233.088C432.859 232.088 433.159 231.888 433.359 232.588C433.659 233.288 434.559 233.488 435.359 233.188Z" fill="white" fill-opacity="0.52"/>
<path d="M586.159 239.888C585.059 240.288 582.859 242.088 581.459 243.888C577.159 248.988 577.659 254.188 586.759 293.288C591.159 312.188 594.759 328.488 594.759 329.388C594.759 331.088 601.459 342.688 605.159 347.388C607.159 349.888 607.759 350.088 609.059 349.088C610.659 347.688 614.459 334.688 614.859 328.888C615.259 323.488 613.859 309.688 610.159 282.588C605.159 246.488 604.159 242.788 598.359 240.388C594.459 238.788 589.459 238.588 586.159 239.888ZM600.159 243.988C604.559 249.188 603.759 250.388 595.959 250.488C591.059 250.488 588.159 251.088 585.059 252.688C582.759 253.888 580.559 254.888 580.259 254.888C579.159 254.888 579.859 249.688 581.259 246.888C583.559 242.488 586.559 240.888 592.359 240.888C596.959 240.888 597.859 241.288 600.159 243.988ZM600.559 251.688C601.859 252.088 602.859 252.788 602.759 253.288C602.659 253.788 603.059 254.488 603.559 254.788C604.159 255.088 604.859 257.088 605.259 259.188L605.959 262.988L602.159 262.588C597.959 262.088 589.659 264.188 585.859 266.588C582.759 268.588 581.659 267.288 581.459 261.288C581.259 256.888 581.459 256.388 584.259 254.988C587.359 253.488 595.459 250.988 597.259 251.088C597.859 251.088 599.259 251.388 600.559 251.688ZM598.359 265.288C598.659 266.088 600.859 279.888 603.159 295.888C607.359 324.888 607.359 325.088 605.259 325.888C603.859 326.488 603.059 326.188 602.559 324.988C602.059 323.788 592.859 276.488 591.359 267.488C591.259 266.588 595.459 263.888 597.059 263.888C597.459 263.888 598.059 264.488 598.359 265.288ZM605.459 265.088C606.759 266.688 614.459 323.588 613.559 324.388C612.559 325.288 608.759 325.888 608.759 325.188C608.759 324.688 606.959 311.788 604.759 296.488C600.159 264.288 600.059 263.888 602.659 263.888C603.659 263.888 604.959 264.488 605.459 265.088ZM594.559 293.088C601.659 329.588 601.359 327.488 598.759 328.188C597.559 328.488 596.459 328.188 596.259 327.588C595.959 326.888 593.759 317.188 591.259 305.888C586.959 286.888 584.359 275.888 583.159 271.688C582.859 270.588 583.559 269.488 585.459 268.488C586.959 267.688 588.559 266.988 588.859 266.888C589.259 266.888 591.759 278.688 594.559 293.088ZM613.359 331.088C612.459 336.588 612.259 336.888 607.859 336.888C605.859 336.888 603.659 337.388 602.959 338.088C602.359 338.688 601.659 339.088 601.559 338.788C601.359 338.588 600.159 336.888 598.859 334.988C596.759 331.988 596.659 331.588 598.159 330.088C599.359 328.788 600.059 328.688 600.959 329.688C602.559 331.288 603.759 331.188 603.759 329.388C603.759 327.588 607.359 327.388 608.159 329.088C608.559 330.088 609.059 329.888 609.959 328.588C612.359 325.288 614.059 326.488 613.359 331.088ZM610.359 339.388C610.959 340.988 608.959 347.888 607.959 347.888C607.559 347.888 606.159 346.288 604.759 344.288C602.459 340.788 602.359 340.588 604.259 339.288C606.759 337.488 609.659 337.488 610.359 339.388Z" fill="white" fill-opacity="0.52"/>
<path d="M278.959 288.088C279.559 289.888 281.759 290.188 281.759 288.488C281.759 287.588 281.059 286.888 280.159 286.888C279.259 286.888 278.759 287.388 278.959 288.088Z" fill="white" fill-opacity="0.52"/>
<path d="M431.459 298.088C430.559 299.388 428.959 303.588 427.859 307.588L425.759 314.688L418.859 315.888C415.059 316.488 411.159 317.588 410.259 318.288C408.559 319.488 408.659 319.688 410.759 321.588C411.959 322.788 414.959 324.788 417.359 326.088L421.859 328.388L421.559 337.888C421.159 349.788 422.459 350.588 428.959 342.588L433.359 337.088L439.259 341.488C449.659 349.288 451.959 348.588 449.459 338.588C448.559 335.088 447.559 331.588 447.259 330.788C446.959 329.888 449.059 327.788 453.259 324.888C456.759 322.388 459.959 319.788 460.259 319.088C460.859 317.388 457.759 316.188 449.159 314.888L442.059 313.788L439.159 305.088C436.059 295.788 434.059 293.988 431.459 298.088ZM436.259 301.188C437.059 303.088 438.159 306.788 438.859 309.488C439.559 312.188 440.159 314.488 440.259 314.688C440.359 314.788 444.359 315.588 449.059 316.488C453.859 317.388 457.759 318.488 457.759 318.888C457.759 319.388 454.859 321.788 451.359 324.288L444.959 328.888L446.859 334.988C448.959 341.688 449.259 344.888 447.859 344.888C447.259 344.888 443.859 342.588 440.259 339.888C436.659 337.088 433.559 334.888 433.359 334.888C433.159 334.888 431.059 337.388 428.659 340.388C423.059 347.388 421.259 347.588 422.159 341.088C422.559 338.488 423.059 334.488 423.359 332.188L423.959 327.988L418.459 324.888C409.859 320.088 409.659 319.288 416.459 317.988C426.659 315.988 427.059 315.788 428.459 310.888C430.559 303.288 432.859 297.888 433.859 297.888C434.459 297.888 435.459 299.388 436.259 301.188Z" fill="white" fill-opacity="0.52"/>
<path d="M633.759 296.588C629.959 298.088 629.459 304.988 633.059 307.288C639.159 311.288 654.059 312.688 656.559 309.488C658.959 306.488 658.659 303.588 655.759 300.888C651.459 296.888 639.259 294.488 633.759 296.588ZM652.159 300.388C654.359 301.488 656.359 302.888 656.559 303.588C657.059 305.188 650.659 306.288 645.459 305.488C640.659 304.688 632.759 301.188 632.759 299.788C632.759 296.688 645.659 297.188 652.159 300.388ZM638.959 305.488C640.459 306.288 643.259 306.888 645.259 306.888C647.359 306.888 648.759 307.388 648.759 308.088C648.759 308.988 648.959 309.088 649.559 308.288C650.359 306.988 655.759 306.688 655.759 307.888C655.759 308.988 651.959 309.888 647.559 309.888C641.359 309.888 631.759 305.988 631.759 303.388C631.759 302.588 635.259 303.688 638.959 305.488Z" fill="white" fill-opacity="0.52"/>
<path d="M642.759 300.288C642.759 301.088 642.159 301.988 641.559 302.188C640.759 302.588 640.859 302.788 641.959 302.788C642.859 302.888 643.859 302.288 644.059 301.588C644.359 300.888 644.659 301.088 644.659 302.088C644.759 303.988 647.259 304.588 648.259 302.888C648.559 302.388 648.259 302.188 647.359 302.488C646.259 302.888 645.959 302.488 646.259 300.988C646.559 299.388 646.159 298.888 644.659 298.888C643.659 298.888 642.759 299.488 642.759 300.288Z" fill="white" fill-opacity="0.52"/>
<path d="M296.259 312.288C285.859 315.288 259.159 324.588 255.259 326.588C251.459 328.588 250.259 330.288 248.359 335.788L246.759 340.188L252.159 353.788C258.059 368.588 258.159 368.888 263.259 389.688C265.159 397.588 267.459 405.388 268.359 406.988C272.359 414.788 286.059 413.688 319.159 402.688C335.359 397.288 336.259 396.388 336.259 384.588C336.159 377.888 335.459 374.088 332.359 364.388C325.259 342.388 314.659 315.788 311.459 312.088C308.959 309.388 306.559 309.388 296.259 312.288ZM311.159 314.088C315.759 321.188 332.459 367.388 334.759 379.488C336.659 389.288 335.459 390.388 314.459 397.588C295.159 404.088 279.059 407.388 275.859 405.488C273.659 404.088 271.859 399.088 269.259 387.288C266.259 373.988 260.259 355.388 255.059 343.588C250.759 333.788 250.959 331.088 256.259 328.188C262.459 324.788 301.859 311.888 305.959 311.888C308.759 311.888 310.059 312.488 311.159 314.088ZM251.959 343.088C251.759 344.088 251.059 344.888 250.559 344.888C249.959 344.888 249.859 343.788 250.159 342.288C250.659 340.588 250.459 339.988 249.759 340.388C248.659 341.088 248.359 338.688 249.459 337.588C250.359 336.588 252.459 341.088 251.959 343.088ZM252.859 349.188C252.059 349.988 251.759 349.588 251.759 347.788C251.759 344.488 253.159 343.088 253.559 345.888C253.759 347.088 253.459 348.588 252.859 349.188ZM256.959 351.888C257.559 351.888 257.759 353.088 257.359 354.888C257.059 356.688 257.159 357.788 257.759 357.388C258.659 356.788 261.259 364.388 260.859 366.588C260.759 367.288 261.159 367.888 261.859 367.888C262.559 367.888 262.759 368.788 262.359 370.388C261.859 372.188 262.059 372.788 262.959 372.688C263.759 372.488 264.159 373.288 264.059 374.588C263.859 375.888 264.259 376.888 264.859 376.888C265.459 376.888 265.759 377.788 265.459 378.888C265.159 379.888 265.459 380.988 266.059 381.188C266.659 381.388 266.759 382.888 266.359 385.188C265.959 387.388 265.259 388.688 264.659 388.288C264.059 387.988 263.759 386.588 264.059 385.288C264.259 383.988 264.059 382.888 263.559 382.888C262.959 382.888 262.859 381.788 263.159 380.288C263.559 378.888 263.459 377.988 262.959 378.288C262.459 378.588 261.759 376.788 261.359 374.188C261.059 371.688 260.359 369.088 259.959 368.488C259.459 367.888 258.459 365.388 257.759 362.888C257.059 360.388 255.959 357.888 255.459 357.188C254.959 356.488 254.859 355.488 255.259 354.888C255.559 354.388 255.359 353.888 254.859 353.888C253.659 353.888 253.359 349.588 254.559 348.488C254.959 348.088 255.359 348.688 255.559 349.788C255.759 350.988 256.359 351.888 256.959 351.888ZM267.259 390.788C266.859 392.488 266.259 393.688 265.759 393.388C265.259 393.088 265.359 391.488 265.959 389.788C267.259 385.988 268.159 386.688 267.259 390.788ZM269.659 397.888C270.559 397.888 272.159 403.588 271.859 405.888C271.759 407.088 271.859 407.088 272.559 406.088C273.859 404.188 275.959 406.888 274.759 408.888C274.059 409.988 273.659 410.088 272.359 408.888C270.159 407.088 267.459 401.188 268.259 399.988C268.559 399.388 268.359 398.888 267.859 398.888C266.559 398.888 266.459 395.888 267.559 393.188C268.059 391.788 268.359 392.088 268.559 394.588C268.759 396.388 269.259 397.888 269.659 397.888ZM332.759 395.388C332.059 396.188 331.159 396.588 330.659 396.288C330.159 395.988 329.759 396.188 329.759 396.688C329.759 397.788 312.859 403.288 312.059 402.488C311.759 402.188 310.959 402.588 310.159 403.288C309.059 404.388 305.559 405.488 293.259 408.588C282.559 411.188 279.759 411.388 279.759 409.288C279.759 408.388 280.459 407.888 281.559 407.988C282.459 408.088 284.059 407.788 285.159 407.388C286.259 406.888 287.259 407.088 287.759 407.788C288.259 408.788 288.659 408.688 289.059 407.588C289.359 406.788 290.859 405.888 292.459 405.688C293.959 405.388 296.159 404.788 297.159 404.388C298.659 403.688 298.859 403.888 298.259 404.988C297.759 405.788 298.259 405.688 299.459 404.588C300.559 403.588 302.859 402.688 304.659 402.588C306.359 402.488 307.759 402.088 307.759 401.788C307.759 401.188 310.059 400.588 315.259 399.688C316.359 399.488 317.859 398.788 318.659 398.088C319.659 397.088 320.259 397.088 320.759 397.888C321.259 398.688 321.659 398.588 322.059 397.488C322.459 396.588 323.359 395.888 324.259 395.888C325.159 395.888 326.959 395.188 328.259 394.288C330.259 392.988 330.759 392.888 330.759 393.988C330.759 394.888 331.259 394.588 331.959 393.388C332.759 392.088 333.259 391.888 333.559 392.688C333.759 393.388 333.359 394.588 332.759 395.388ZM278.559 409.088C277.959 410.888 275.759 411.188 275.759 409.488C275.759 408.588 276.459 407.888 277.359 407.888C278.259 407.888 278.759 408.388 278.559 409.088Z" fill="white" fill-opacity="0.52"/>
<path d="M281.859 325.988C270.159 330.288 260.259 333.988 260.059 334.288C259.159 335.088 264.159 348.088 265.559 348.588C266.759 349.088 307.459 334.888 310.659 332.988C312.559 331.788 307.159 317.888 304.859 317.988C303.959 318.088 293.659 321.588 281.859 325.988ZM307.659 325.488C308.859 328.688 309.559 331.388 309.359 331.588C308.559 332.388 268.659 346.888 267.359 346.888C266.159 346.888 261.759 338.388 261.759 335.988C261.759 335.488 263.659 334.388 266.059 333.488C280.059 328.188 303.459 319.988 304.359 319.988C304.959 319.888 306.459 322.388 307.659 325.488Z" fill="white" fill-opacity="0.52"/>
<path d="M308.059 342.588C305.159 343.588 303.759 344.688 303.759 345.788C303.759 348.988 305.959 353.888 307.359 353.888C309.459 353.888 315.759 350.688 315.759 349.588C315.759 347.788 313.459 340.888 312.859 340.988C312.559 340.988 310.359 341.688 308.059 342.588ZM313.559 346.088C314.359 349.088 314.159 349.488 311.859 350.588C307.859 352.388 307.059 352.188 305.859 348.688C305.259 346.988 304.859 345.488 304.959 345.388C305.459 344.988 311.159 343.088 311.959 342.988C312.359 342.888 313.059 344.388 313.559 346.088Z" fill="white" fill-opacity="0.52"/>
<path d="M291.059 348.188C286.559 349.888 286.359 350.288 287.759 355.388C289.159 360.388 290.059 360.688 295.259 358.188C298.959 356.388 299.359 355.088 297.659 349.988C296.459 346.588 295.859 346.488 291.059 348.188ZM296.659 351.888C297.559 354.688 297.459 354.988 294.759 356.388C290.659 358.488 290.259 358.288 289.059 354.388C288.059 351.188 288.159 350.888 290.659 349.988C294.759 348.488 295.459 348.688 296.659 351.888Z" fill="white" fill-opacity="0.52"/>
<path d="M274.059 354.188C269.759 355.788 269.459 356.288 270.159 360.088C271.259 365.988 271.959 366.388 277.159 364.388C282.059 362.488 282.559 361.388 280.659 355.988C279.459 352.588 278.859 352.488 274.059 354.188ZM279.159 356.488C280.359 359.588 279.759 361.588 277.259 362.688C273.559 364.388 273.059 364.188 271.859 360.688C270.559 357.088 270.559 357.288 273.759 355.988C277.359 354.588 278.459 354.688 279.159 356.488Z" fill="white" fill-opacity="0.52"/>
<path d="M312.859 357.288C310.959 357.988 309.159 359.088 308.959 359.788C308.159 362.188 315.059 382.888 316.559 382.888C320.159 382.888 325.759 380.488 325.759 378.988C325.759 375.588 318.859 356.388 317.559 356.188C316.859 356.088 314.759 356.588 312.859 357.288ZM321.059 368.388L324.659 378.888L321.059 380.388C319.059 381.288 317.259 381.688 316.959 381.388C316.359 380.788 309.759 360.588 310.059 360.188C310.659 359.688 315.359 357.988 316.459 357.988C317.059 357.888 319.159 362.588 321.059 368.388Z" fill="white" fill-opacity="0.52"/>
<path d="M295.059 363.388C291.359 364.988 291.059 366.588 293.259 370.888C295.059 374.388 294.659 374.288 299.759 372.288C304.259 370.488 304.159 370.788 302.659 365.588C301.559 361.488 300.259 361.088 295.059 363.388ZM301.159 365.488C302.259 368.488 301.759 369.688 298.759 370.888C295.159 372.388 294.959 372.288 294.159 368.188C293.659 365.688 293.959 364.988 295.359 364.588C298.959 363.688 300.559 363.888 301.159 365.488Z" fill="white" fill-opacity="0.52"/>
<path d="M277.559 369.188C275.959 369.788 274.759 371.088 274.759 371.988C274.759 373.488 276.359 378.188 277.359 379.788C277.559 379.988 279.659 379.288 282.259 378.388C285.559 377.088 286.659 376.188 286.359 374.988C286.059 374.088 285.559 372.188 285.159 370.588C284.459 367.588 282.459 367.288 277.559 369.188ZM284.259 372.988C284.859 375.288 284.459 375.788 281.659 376.788C279.959 377.388 278.359 377.888 278.159 377.888C278.059 377.888 277.459 376.488 276.859 374.888C275.959 371.988 276.059 371.788 279.059 370.488C282.659 368.988 283.359 369.288 284.259 372.988Z" fill="white" fill-opacity="0.52"/>
<path d="M300.259 378.588C298.659 379.388 297.059 380.288 296.959 380.488C296.359 380.988 298.859 387.788 299.859 388.388C300.359 388.688 302.559 388.488 304.759 387.788C309.059 386.488 309.559 385.388 307.659 379.988C306.459 376.488 304.759 376.188 300.259 378.588ZM306.359 381.588C306.859 383.488 306.559 384.588 305.259 385.588C302.459 387.588 300.859 387.188 299.559 384.288C298.459 382.088 298.559 381.488 300.259 380.288C303.259 378.088 305.659 378.588 306.359 381.588Z" fill="white" fill-opacity="0.52"/>
<path d="M283.059 384.488C279.459 386.088 279.259 386.688 280.959 391.588C282.359 395.288 283.059 395.488 288.159 393.388C292.259 391.688 292.159 391.888 290.559 386.788C289.359 382.488 288.259 382.188 283.059 384.488ZM289.159 387.488C289.959 390.588 289.259 391.488 285.659 392.388C283.359 392.988 282.959 392.688 282.359 390.288C281.759 388.188 282.059 387.088 283.359 386.188C286.259 384.088 288.459 384.588 289.159 387.488Z" fill="white" fill-opacity="0.52"/>
<path d="M559.459 314.988C558.559 315.488 557.059 317.388 556.159 319.088C551.259 328.488 562.459 337.188 570.659 330.288C573.259 328.088 573.759 326.988 573.759 323.288C573.759 317.388 570.559 313.888 565.059 313.888C562.959 313.888 560.459 314.388 559.459 314.988ZM568.059 315.988C572.959 318.188 574.059 324.288 570.359 328.488C565.459 334.288 556.759 330.988 556.759 323.488C556.859 320.088 558.159 317.888 561.259 316.088C563.759 314.688 565.059 314.588 568.059 315.988Z" fill="white" fill-opacity="0.52"/>
<path d="M560.859 320.588C559.859 322.688 559.959 323.388 560.959 323.988C562.659 325.088 563.759 325.088 563.759 324.088C563.759 323.688 564.659 323.288 565.759 323.188C566.859 323.088 567.759 323.288 567.759 323.488C567.759 324.688 565.159 326.488 564.059 326.188C562.459 325.588 561.559 327.588 563.159 328.188C564.859 328.888 568.759 326.188 568.759 324.388C568.759 323.588 567.859 322.488 566.659 321.888C565.559 321.188 564.859 320.188 565.059 319.488C566.059 317.088 561.959 318.088 560.859 320.588ZM563.659 321.988C561.459 323.388 560.359 322.988 561.759 321.388C562.459 320.588 563.459 320.188 563.959 320.488C564.559 320.888 564.459 321.488 563.659 321.988Z" fill="white" fill-opacity="0.52"/>
<path d="M366.059 320.288C351.959 324.888 343.759 335.388 342.059 350.888C341.659 355.288 342.059 358.388 343.759 363.988C345.659 370.288 346.759 372.088 352.159 377.488C357.259 382.588 359.459 384.088 364.259 385.388C378.559 389.588 394.159 383.188 400.859 370.388C402.959 366.488 403.559 365.888 405.659 366.388C406.959 366.688 409.659 368.288 411.659 369.888C416.159 373.488 423.359 376.688 436.059 380.788C451.859 385.788 458.759 384.688 458.759 377.088C458.759 372.288 454.259 369.688 437.259 364.388C425.359 360.688 421.159 359.788 416.259 359.988C406.459 360.388 406.159 360.088 405.459 351.088C405.159 346.288 404.159 341.288 402.759 338.088C400.159 331.988 392.659 324.588 386.059 321.688C380.259 319.088 371.459 318.488 366.059 320.288ZM385.759 323.488C392.559 326.588 397.159 330.888 400.559 337.388C402.959 341.888 403.259 343.488 403.259 352.888C403.259 362.588 403.059 363.788 400.459 368.088C394.159 378.888 386.159 383.988 374.559 384.688C367.659 385.088 366.159 384.888 361.359 382.488C355.359 379.488 349.959 374.188 346.659 367.688C343.359 361.288 342.859 349.188 345.659 341.788C352.059 324.788 370.559 316.388 385.759 323.488ZM409.559 363.088C409.859 364.388 409.259 364.888 407.459 364.888C404.559 364.888 403.759 364.188 404.459 362.188C405.259 360.288 409.159 360.988 409.559 363.088ZM419.759 361.688C419.759 362.088 421.659 362.488 423.859 362.588C426.159 362.588 428.259 363.088 428.659 363.588C428.959 363.988 429.759 364.388 430.259 364.488C434.959 364.688 452.259 370.888 455.059 373.288C458.059 375.888 458.359 377.488 456.259 380.288C453.959 383.288 446.859 382.688 434.159 378.388C421.459 374.088 411.359 368.988 410.959 366.488C410.459 363.888 413.359 361.188 416.759 361.088C418.459 361.088 419.759 361.288 419.759 361.688Z" fill="white" fill-opacity="0.52"/>
<path d="M363.959 328.088C347.559 335.988 343.759 358.988 356.659 371.888C371.059 386.188 394.759 377.488 398.759 356.288C399.759 351.088 399.759 349.288 398.259 344.288C396.159 337.088 391.259 330.788 385.459 327.988C379.659 325.188 369.859 325.188 363.959 328.088ZM386.259 330.288C396.859 336.488 400.859 351.188 395.159 362.588C383.259 386.588 350.759 379.488 350.759 352.988C350.759 333.388 370.259 320.988 386.259 330.288Z" fill="white" fill-opacity="0.52"/>
<path d="M446.959 377.888C446.959 379.788 447.159 380.588 447.459 379.588C447.659 378.688 447.659 377.088 447.459 376.088C447.159 375.188 446.959 375.988 446.959 377.888Z" fill="white" fill-opacity="0.52"/>
<path d="M512.759 324.788C503.259 327.788 492.059 336.288 488.259 343.288C487.159 345.288 485.859 346.888 485.259 346.888C484.659 346.888 482.659 344.788 480.859 342.288C479.059 339.788 477.359 337.888 477.059 338.188C476.759 338.488 477.559 340.188 478.759 341.888C479.959 343.588 480.759 345.188 480.459 345.488C479.959 346.088 478.359 344.588 474.359 339.888C472.859 338.088 471.459 336.888 471.159 337.088C470.859 337.388 471.859 339.088 473.259 340.788C477.059 345.188 474.259 344.688 470.159 340.088C466.759 336.288 465.859 336.288 467.959 340.188C469.959 343.788 469.559 345.888 466.859 347.388C465.459 348.188 464.959 348.788 465.759 348.788C466.559 348.788 468.359 348.188 469.759 347.388C471.159 346.588 472.859 345.988 473.559 345.888C475.859 345.888 474.759 347.788 471.559 349.488C469.759 350.488 468.759 351.388 469.459 351.588C470.059 351.788 472.459 350.788 474.759 349.288C479.559 346.088 481.459 346.888 477.259 350.388C473.659 353.288 475.359 353.788 479.059 350.888C481.059 349.288 484.759 348.088 484.759 349.088C484.759 349.288 484.059 351.588 483.159 354.388C480.959 361.488 481.159 374.288 483.559 381.188C485.359 386.288 490.659 395.088 492.659 396.288C493.159 396.588 492.659 399.388 491.659 402.488C488.959 410.588 489.159 414.488 492.259 416.488C496.759 419.388 504.859 416.188 507.259 410.488L508.559 407.488H520.359C531.659 407.388 532.559 407.188 538.459 404.288L544.659 401.088L545.559 403.788C546.159 405.188 546.959 407.888 547.459 409.788C548.659 414.688 550.859 415.688 555.259 413.588C562.659 410.088 564.559 401.988 560.459 391.888L558.159 386.388L560.659 380.388C563.959 372.288 564.159 357.088 561.059 349.188C556.659 337.988 546.659 328.488 535.959 325.288C531.159 323.788 516.959 323.588 512.759 324.788ZM539.959 328.788C547.759 332.488 554.859 339.588 558.559 347.688C560.959 352.788 561.259 354.588 561.259 364.388C561.259 374.288 560.959 375.988 558.459 381.288C552.759 393.488 542.759 401.988 530.359 405.388C519.659 408.288 509.859 406.488 499.659 399.688C488.459 392.188 481.859 378.088 483.059 363.988C483.359 360.288 484.259 355.588 485.159 353.588L486.659 349.988L490.659 351.588C494.659 353.188 494.759 353.288 494.059 356.788C492.459 364.288 493.159 372.188 496.059 378.188C504.859 395.988 527.059 400.388 541.659 387.288C548.359 381.288 551.159 374.688 551.159 364.888C551.159 352.488 545.659 343.388 534.959 338.188C527.659 334.688 517.659 334.388 510.659 337.488C506.059 339.688 498.959 345.788 497.059 349.288C496.059 351.088 495.559 351.188 491.859 349.988C489.559 349.388 487.759 348.488 487.759 348.088C487.759 347.688 489.259 345.088 491.159 342.288C501.859 326.488 522.959 320.588 539.959 328.788ZM533.259 339.288C543.259 343.988 548.759 352.188 549.559 363.488C549.959 369.588 549.659 371.488 547.559 375.988C544.059 383.588 540.559 387.388 534.059 390.488C524.259 395.388 512.659 393.788 504.059 386.488C499.259 382.488 494.759 372.688 494.759 366.388C494.759 359.188 495.759 354.888 497.359 354.888C498.059 354.888 501.259 356.088 504.359 357.588C509.459 360.188 509.859 360.588 509.359 363.188C508.659 366.588 510.659 371.688 513.759 374.388C515.359 375.888 517.359 376.388 521.359 376.388C526.059 376.388 527.159 375.988 529.859 373.288C532.159 370.988 533.059 368.888 533.459 365.788C534.659 354.388 520.659 347.988 512.859 356.288L510.559 358.688L504.959 356.188C497.259 352.688 497.059 352.488 499.859 348.388C506.959 337.988 521.859 333.888 533.259 339.288ZM525.959 354.788C526.359 354.888 527.959 356.788 529.359 358.988C531.359 362.288 531.859 363.988 531.359 366.688C530.359 372.988 529.159 372.488 524.359 363.688C521.859 359.188 519.759 355.788 519.759 356.188C519.759 356.688 521.659 360.588 523.959 364.888C528.059 372.388 528.559 375.688 525.259 372.888C523.959 371.788 523.859 371.888 524.259 373.088C525.059 375.188 520.359 375.988 517.959 374.288C516.859 373.588 515.759 373.188 515.459 373.488C514.859 374.088 510.759 368.088 510.759 366.588C510.759 366.088 511.359 366.088 512.059 366.488C512.859 367.088 512.859 366.788 511.859 365.588C511.159 364.688 510.859 363.188 511.259 362.188C511.859 360.588 512.259 360.788 514.459 363.388C515.859 364.988 516.659 365.788 516.359 365.088C515.459 363.588 516.259 363.588 518.859 364.888C519.959 365.488 520.759 365.588 520.759 364.988C520.759 364.488 519.059 363.188 517.059 362.088C514.959 361.088 513.259 359.588 513.259 358.788C513.259 356.888 519.759 353.788 522.759 354.288C524.159 354.488 525.559 354.788 525.959 354.788ZM558.259 390.888C558.559 391.988 558.559 393.388 558.159 393.988C557.759 394.688 557.859 394.888 558.459 394.588C559.659 393.788 561.759 398.888 561.759 402.488C561.759 405.388 559.759 406.688 559.659 403.988C559.559 401.988 559.259 400.788 558.759 399.088C558.659 398.688 558.559 398.088 558.659 397.588C558.659 397.188 558.359 396.888 557.959 396.888C557.459 396.888 556.559 395.788 555.959 394.388C555.259 392.988 555.159 391.888 555.759 391.888C556.259 391.888 556.459 391.188 556.159 390.388C555.759 389.588 556.059 388.888 556.559 388.888C557.159 388.888 557.859 389.788 558.259 390.888ZM557.059 400.688C557.959 402.988 558.759 405.988 558.759 407.388C558.759 410.088 555.459 412.888 552.059 412.888C550.159 412.888 549.559 411.888 547.959 406.588L546.059 400.388L549.559 396.688C553.559 392.488 553.959 392.688 557.059 400.688ZM498.959 401.488C501.059 402.988 502.759 404.388 502.759 404.788C502.459 408.688 499.759 415.488 498.359 415.688C495.559 416.288 492.059 415.088 491.359 413.288C490.759 411.688 493.559 398.888 494.559 398.888C494.859 398.888 496.859 400.088 498.959 401.488ZM506.359 407.188C506.259 408.488 505.359 410.588 504.459 411.988L502.759 414.388L503.259 410.488C503.459 408.288 504.259 406.188 504.959 405.688C506.659 404.588 506.659 404.588 506.359 407.188Z" fill="white" fill-opacity="0.52"/>
<path d="M527.359 362.888C528.859 365.688 530.259 367.788 530.459 367.588C530.859 367.088 525.759 357.888 525.159 357.888C524.859 357.888 525.859 360.188 527.359 362.888Z" fill="white" fill-opacity="0.52"/>
<path d="M653.759 326.788C649.259 328.188 643.159 331.688 639.959 334.688C636.359 338.088 635.659 342.888 638.359 346.688C642.359 352.488 663.059 346.088 668.859 337.288C670.459 334.788 670.459 334.188 669.159 330.988C668.359 329.088 667.159 327.088 666.459 326.688C664.959 325.688 657.059 325.788 653.759 326.788ZM665.259 328.288C667.059 329.588 667.059 329.788 665.459 332.288C663.359 335.388 657.159 339.488 651.559 341.488C646.759 343.188 639.159 343.288 638.159 341.788C636.459 338.888 645.859 331.188 654.259 328.588C660.659 326.588 662.959 326.588 665.259 328.288ZM668.059 334.088C667.159 337.788 662.959 341.488 656.459 344.488C649.759 347.488 640.759 348.388 640.059 346.088C639.759 345.288 640.559 344.888 642.459 344.888C650.359 344.888 662.359 339.288 666.559 333.688C668.259 331.288 668.659 331.388 668.059 334.088Z" fill="white" fill-opacity="0.52"/>
<path d="M648.359 332.988C646.959 334.088 645.959 335.388 646.259 335.888C646.959 336.988 650.759 336.788 650.759 335.588C650.759 335.188 651.159 334.988 651.659 335.388C652.159 335.688 652.859 335.488 653.259 334.888C654.159 333.488 650.459 333.588 648.959 335.088C648.059 335.988 647.759 335.988 647.759 335.088C647.759 334.388 648.159 333.888 648.559 333.888C649.859 333.888 653.359 330.988 652.159 330.888C651.559 330.888 649.859 331.788 648.359 332.988Z" fill="white" fill-opacity="0.52"/>
<path d="M655.659 333.788C656.759 334.488 656.659 334.988 654.859 335.988C653.759 336.788 652.759 337.788 652.759 338.288C652.759 338.788 653.859 338.188 655.259 336.888C657.659 334.588 657.759 332.888 655.459 332.888C654.659 332.888 654.759 333.188 655.659 333.788Z" fill="white" fill-opacity="0.52"/>
<path d="M648.259 338.888C646.559 339.688 646.659 339.688 649.059 339.588C650.559 339.488 651.759 339.088 651.759 338.688C651.759 337.688 650.859 337.788 648.259 338.888Z" fill="white" fill-opacity="0.52"/>
<path d="M582.759 352.788C581.059 356.188 583.159 359.088 587.059 358.688C589.959 358.388 590.259 358.088 590.259 354.888C590.259 351.688 589.959 351.388 587.059 351.088C584.659 350.888 583.659 351.288 582.759 352.788ZM588.759 353.488C589.859 354.688 589.759 355.288 588.459 356.588C587.159 357.888 586.559 357.988 585.359 356.888C583.459 355.388 583.259 353.288 585.059 352.588C587.059 351.688 587.459 351.788 588.759 353.488Z" fill="white" fill-opacity="0.52"/>
<path d="M627.359 361.588C627.959 366.288 628.459 367.588 629.059 366.788C629.859 365.888 628.459 356.888 627.559 356.888C627.059 356.888 626.959 358.788 627.359 361.588Z" fill="white" fill-opacity="0.52"/>
<path d="M655.659 366.688C654.959 368.688 654.159 370.688 653.959 371.088C653.759 371.588 654.059 371.888 654.559 371.888C655.759 371.888 658.859 364.088 657.859 363.488C657.459 363.188 656.459 364.688 655.659 366.688Z" fill="white" fill-opacity="0.52"/>
<path d="M602.759 369.488C602.859 371.188 608.759 377.388 608.759 375.788C608.759 374.988 607.459 372.988 605.759 371.388C604.159 369.788 602.759 368.888 602.759 369.488Z" fill="white" fill-opacity="0.52"/>
<path d="M626.859 375.088C624.959 375.588 621.459 377.388 619.159 378.988C606.859 387.388 603.259 399.388 607.859 415.888C611.159 427.888 610.259 436.688 605.359 440.788C604.459 441.588 603.759 442.688 603.759 443.488C603.759 444.188 602.659 446.888 601.259 449.488C599.859 452.088 598.759 454.588 598.759 454.988C598.759 457.488 606.359 463.988 611.459 465.888C619.059 468.688 621.759 468.288 624.259 463.688C625.359 461.688 627.259 458.188 628.559 455.988C629.759 453.688 630.759 450.788 630.759 449.488C630.759 445.288 637.859 438.688 649.159 432.488C660.759 426.188 663.659 423.388 667.959 414.388C673.359 402.888 671.259 393.888 660.959 384.688C651.459 376.088 637.159 372.088 626.859 375.088ZM651.159 380.288C659.059 384.188 665.159 389.988 668.259 396.588C671.159 402.688 668.759 412.388 662.059 421.388C659.859 424.288 656.259 426.888 648.859 430.788C641.459 434.788 637.259 437.788 633.659 441.688C630.959 444.588 628.759 447.388 628.759 447.888C628.759 449.088 625.559 450.088 624.559 449.088C623.359 447.888 626.959 439.588 632.059 432.188C635.859 426.488 636.559 425.888 639.859 425.888C643.759 425.888 648.759 422.688 648.759 420.288C648.759 418.088 642.459 418.588 639.359 420.988C636.759 423.088 636.559 423.088 635.259 421.288C634.159 419.688 634.259 419.088 636.359 416.588C639.359 413.088 639.659 407.888 636.859 407.888C634.359 407.888 632.759 409.988 632.059 414.388C631.359 418.588 629.859 419.588 626.759 417.888C625.059 416.988 624.759 416.188 625.359 413.488C626.159 409.088 624.359 405.888 621.259 405.888C619.159 405.888 618.759 406.388 618.759 408.788C618.759 410.288 619.759 412.888 620.859 414.288C622.859 416.788 622.959 417.488 621.859 421.188C619.859 427.988 612.559 442.888 611.159 442.888C608.859 442.888 608.659 440.988 610.259 436.388C612.259 430.288 612.159 425.788 609.759 417.388C604.559 399.388 608.959 386.488 622.759 378.888C627.859 376.088 628.859 375.788 635.959 376.188C642.359 376.488 644.959 377.188 651.159 380.288ZM623.559 410.688C623.759 412.488 623.459 413.888 622.959 413.888C621.759 413.888 619.559 408.988 620.359 407.788C621.459 405.888 623.259 407.588 623.559 410.688ZM636.759 413.588C634.559 417.488 632.659 417.788 633.759 413.988C635.059 409.388 635.759 408.488 637.059 409.788C637.959 410.688 637.859 411.688 636.759 413.588ZM630.359 420.188C631.659 420.188 633.059 421.088 633.759 422.488C634.959 424.588 634.659 425.488 630.459 431.788C627.859 435.588 625.759 438.888 625.759 439.188C625.759 439.388 624.859 441.688 623.759 444.188C621.759 448.588 621.659 448.688 618.759 447.788C613.259 445.788 613.159 444.688 617.559 435.688C619.859 431.088 622.259 425.488 622.959 423.188C624.059 419.588 624.559 418.988 626.259 419.588C627.359 419.988 629.259 420.288 630.359 420.188ZM646.759 420.888C646.759 422.088 643.459 423.888 641.359 423.888C639.059 423.888 639.459 422.388 642.059 421.088C644.859 419.688 646.759 419.588 646.759 420.888ZM608.859 443.588C610.959 446.088 621.859 450.888 625.559 450.888C628.159 450.888 628.859 451.288 628.559 452.588C628.359 453.588 627.159 454.588 625.859 454.688C623.959 454.988 623.759 455.288 624.859 455.988C625.959 456.688 626.059 457.188 624.959 458.588C624.259 459.588 623.259 461.588 622.659 462.988C622.059 464.488 620.759 465.888 619.759 466.188C617.159 466.888 607.059 462.488 603.659 459.288C600.559 456.388 600.159 454.888 601.659 452.088C602.259 451.188 603.459 448.488 604.359 446.088C606.359 441.388 606.859 441.088 608.859 443.588Z" fill="white" fill-opacity="0.52"/>
<path d="M234.559 376.588C230.859 378.088 227.759 382.688 227.759 386.588C227.759 389.988 231.459 394.688 235.159 395.888C239.359 397.188 244.459 395.988 247.259 392.888C249.459 390.488 250.359 383.788 248.859 380.988C246.259 376.288 240.059 374.288 234.559 376.588ZM243.659 378.388C251.959 382.588 247.859 394.888 238.159 394.888C234.459 394.888 229.759 389.788 229.759 385.888C229.759 383.688 230.659 381.788 232.659 379.788C235.959 376.588 239.359 376.088 243.659 378.388Z" fill="white" fill-opacity="0.52"/>
<path d="M236.759 380.888C235.559 381.588 235.459 382.188 236.459 383.588C237.059 384.588 238.059 385.288 238.659 385.088C239.259 384.988 239.759 385.688 239.759 386.588C239.759 388.088 239.959 388.188 240.759 386.888C241.559 385.588 241.759 385.588 241.759 386.988C241.759 389.288 237.759 390.288 237.659 388.088C237.659 386.988 237.459 386.788 237.059 387.688C236.659 388.688 236.259 388.688 234.959 387.688C233.659 386.588 233.559 386.588 233.859 387.788C234.659 390.088 237.259 391.188 240.059 390.488C242.059 389.988 242.759 389.188 242.759 387.288C242.759 385.988 242.059 384.588 241.259 384.288C240.459 383.888 239.759 383.088 239.759 382.288C239.759 381.488 240.359 381.188 241.459 381.588C242.559 381.988 242.859 381.888 242.359 381.088C241.459 379.688 238.859 379.588 236.759 380.888Z" fill="white" fill-opacity="0.52"/>
<path d="M676.259 387.388C673.559 388.688 671.959 389.788 672.759 389.788C674.859 389.888 682.759 386.788 682.759 385.788C682.759 384.488 681.859 384.688 676.259 387.388Z" fill="white" fill-opacity="0.52"/>
<path d="M590.759 392.888C591.559 393.388 594.259 393.788 596.759 393.788C600.159 393.788 600.759 393.588 599.259 392.888C596.359 391.588 588.859 391.588 590.759 392.888Z" fill="white" fill-opacity="0.52"/>
<path d="M390.259 400.588C383.159 401.588 316.559 415.088 309.859 416.988C305.759 418.088 301.159 419.888 299.659 420.988C296.559 423.088 294.559 428.488 295.259 432.788C295.459 434.188 296.159 440.988 296.759 447.888C298.259 464.588 300.659 483.488 301.859 488.088C302.359 490.188 303.659 492.388 304.559 493.088C305.559 493.788 306.859 495.988 307.359 497.888C308.859 503.388 315.259 505.188 357.959 511.988L377.559 515.088L394.459 509.888C403.659 507.088 419.459 502.088 429.459 498.888C439.459 495.588 451.459 491.988 455.959 490.888C466.359 488.188 468.759 486.688 468.759 482.988C468.759 480.788 468.059 479.888 466.059 478.988C463.759 478.088 427.759 470.388 416.059 468.188C413.359 467.688 412.959 467.388 413.759 465.788C415.059 463.488 415.059 436.088 413.759 418.388C412.759 405.288 412.559 404.288 410.159 402.088C407.959 400.188 406.659 399.888 400.459 399.988C396.459 400.088 391.959 400.388 390.259 400.588ZM407.759 402.388C409.759 403.488 410.859 404.888 411.259 407.188C412.059 412.488 413.759 441.588 413.759 452.088C413.759 462.588 412.859 466.188 410.059 467.288C406.959 468.588 370.159 477.888 352.259 481.988C342.959 484.088 329.059 487.488 321.559 489.488C314.059 491.488 307.159 492.888 306.259 492.588C305.459 492.188 304.359 490.888 303.759 489.488C302.359 485.688 296.759 439.488 296.759 431.288C296.759 429.288 297.559 426.388 298.459 424.788C301.259 420.188 306.659 418.588 349.859 409.988C396.359 400.688 402.859 399.788 407.759 402.388ZM440.259 474.688C461.959 479.288 466.759 480.588 466.759 481.888C466.759 482.388 465.259 482.988 463.559 483.388C447.959 486.588 427.159 492.388 405.959 499.488C391.959 504.088 378.959 507.888 376.859 507.888C372.359 507.888 328.359 500.588 319.359 498.288C307.759 495.388 307.959 494.588 321.359 491.088C327.959 489.388 339.559 486.588 347.259 484.788C354.959 483.088 371.359 478.988 383.759 475.788C410.859 468.788 411.859 468.688 440.259 474.688ZM463.559 485.988C463.359 486.688 458.059 488.588 451.759 490.388C439.559 493.788 427.559 497.488 424.259 498.888C422.559 499.588 417.859 501.088 405.259 504.788C403.659 505.288 397.159 507.388 390.859 509.288C384.659 511.288 378.159 512.888 376.559 512.888C372.959 512.888 339.259 507.588 328.759 505.288C319.459 503.288 319.859 503.388 316.359 501.988C314.759 501.388 312.559 500.688 311.359 500.488C310.259 500.288 309.059 499.388 308.859 498.388C308.659 497.188 309.059 496.788 309.859 497.088C316.959 499.688 324.659 501.388 345.259 504.888C358.459 507.188 370.959 509.188 372.959 509.488C377.659 510.088 384.459 508.288 408.759 500.188C424.159 494.988 458.759 485.288 463.059 484.988C463.559 484.888 463.759 485.388 463.559 485.988Z" fill="white" fill-opacity="0.52"/>
<path d="M381.259 411.888C371.359 413.888 350.459 418.188 334.759 421.388C319.059 424.588 305.959 427.388 305.659 427.788C305.259 428.088 306.559 441.288 308.559 457.088C311.559 481.288 312.359 485.888 313.659 485.888C314.559 485.888 335.259 480.788 359.759 474.588L404.259 463.188L404.559 458.788C404.759 456.388 404.659 443.888 404.259 431.088C403.559 408.188 403.459 407.888 401.359 407.988C400.259 408.088 391.159 409.788 381.259 411.888ZM402.159 415.088C402.459 417.988 402.859 429.688 403.159 441.088L403.759 461.788L399.959 462.788C366.459 471.488 315.359 483.988 314.459 483.588C313.159 483.088 306.259 430.088 307.359 428.988C307.959 428.288 396.159 410.188 399.459 409.988C401.359 409.888 401.659 410.488 402.159 415.088Z" fill="white" fill-opacity="0.52"/>
<path d="M368.759 424.588L363.259 430.388L369.059 424.888C374.359 419.888 375.259 418.888 374.459 418.888C374.359 418.888 371.759 421.488 368.759 424.588Z" fill="white" fill-opacity="0.52"/>
<path d="M336.659 437.588C332.359 442.388 330.459 444.888 330.959 444.888C331.259 444.888 333.359 442.588 335.659 439.888C340.159 434.588 340.859 432.988 336.659 437.588Z" fill="white" fill-opacity="0.52"/>
<path d="M350.259 413.888C349.959 414.388 350.559 414.888 351.659 414.888C352.859 414.888 353.759 414.388 353.759 413.888C353.759 413.288 353.159 412.888 352.359 412.888C351.559 412.888 350.559 413.288 350.259 413.888Z" fill="white" fill-opacity="0.52"/>
<path d="M376.759 482.888C331.959 494.088 328.759 494.888 328.759 495.888C328.759 496.288 332.659 495.688 337.559 494.388C342.359 493.088 361.559 488.388 380.259 483.788C410.759 476.388 420.159 473.688 414.259 473.988C413.159 473.988 396.259 478.088 376.759 482.888Z" fill="white" fill-opacity="0.52"/>
<path d="M412.759 479.488C387.059 485.988 353.259 494.988 349.759 496.088C345.859 497.388 342.959 499.488 346.259 498.588C347.359 498.388 354.159 496.488 361.259 494.588C368.459 492.588 386.559 487.788 401.659 483.988C416.659 480.088 429.259 476.688 429.559 476.388C430.759 475.288 425.759 476.188 412.759 479.488Z" fill="white" fill-opacity="0.52"/>
<path d="M427.359 480.688C422.559 482.088 419.059 483.488 419.759 483.688C421.159 484.188 437.859 479.888 439.259 478.688C440.859 477.288 436.559 477.988 427.359 480.688Z" fill="white" fill-opacity="0.52"/>
<path d="M399.059 487.788C393.959 489.188 389.759 490.788 389.759 491.188C389.759 491.588 391.859 492.888 394.459 493.988L399.159 495.988L408.959 493.288C414.359 491.688 418.759 490.188 418.759 489.688C418.759 489.288 418.559 488.888 418.259 488.888C418.059 488.888 415.659 488.088 413.059 487.088C408.259 485.188 408.259 485.188 399.059 487.788ZM412.259 488.288C415.559 489.788 415.559 489.788 406.559 492.288C399.659 494.288 397.659 494.288 395.259 492.488C393.559 491.288 393.959 490.988 399.859 489.088C407.659 486.688 408.459 486.588 412.259 488.288Z" fill="white" fill-opacity="0.52"/>
<path d="M372.259 496.388C370.059 497.188 366.359 498.288 364.059 498.888C361.659 499.488 359.759 500.288 359.759 500.788C359.759 501.588 379.359 496.688 380.459 495.488C381.559 494.388 376.459 494.988 372.259 496.388Z" fill="white" fill-opacity="0.52"/>
<path d="M447.359 401.188C443.559 403.888 447.559 410.688 451.559 408.288C453.959 406.688 454.359 402.788 452.159 401.188C451.159 400.488 450.059 399.888 449.759 399.888C449.459 399.888 448.359 400.488 447.359 401.188ZM451.459 402.988C453.059 404.588 451.959 406.888 449.759 406.888C447.459 406.888 446.359 405.288 447.159 403.388C447.759 401.588 449.959 401.488 451.459 402.988Z" fill="white" fill-opacity="0.52"/>
<path d="M672.759 416.588C672.759 417.188 674.559 418.088 676.859 418.788C679.159 419.488 681.559 420.288 682.359 420.588C683.159 420.888 683.759 420.688 683.759 420.188C683.759 419.588 681.959 418.688 679.659 417.988C677.359 417.288 674.959 416.488 674.159 416.188C673.359 415.888 672.759 416.088 672.759 416.588Z" fill="white" fill-opacity="0.52"/>
<path d="M240.559 420.588C235.959 423.488 234.359 427.688 234.959 435.188C235.459 441.288 235.359 441.888 233.159 443.388C231.859 444.188 229.659 446.888 228.159 449.388C225.059 454.788 225.159 457.788 229.359 470.988C233.259 483.488 236.459 489.788 239.259 490.488C241.559 491.088 262.459 482.788 272.059 477.488C276.859 474.788 281.659 467.188 281.759 462.388C281.759 458.288 274.059 435.588 271.559 432.388C269.859 430.188 268.959 429.888 265.859 430.288C262.559 430.888 262.059 430.588 259.959 427.188C258.659 425.088 256.459 422.488 255.059 421.488C251.459 418.788 243.959 418.388 240.559 420.588ZM253.759 422.788C256.959 425.088 260.759 430.688 260.759 432.988C260.759 436.188 257.959 435.088 256.759 431.388C255.359 427.188 250.459 422.888 247.059 422.888C244.059 422.888 238.759 427.888 238.759 430.888C238.759 432.088 239.259 434.988 239.859 437.488C240.459 439.988 240.659 442.288 240.259 442.688C239.059 443.888 236.959 439.888 236.259 434.888C235.459 428.888 236.959 425.388 241.759 422.088C245.659 419.488 249.559 419.688 253.759 422.788ZM253.559 428.888C254.759 430.788 255.459 432.588 255.059 432.988C254.559 433.388 251.459 434.788 248.059 436.188C241.159 438.988 240.759 438.788 240.759 431.788C240.759 428.488 241.259 427.588 243.859 425.988C247.759 423.588 250.459 424.388 253.559 428.888ZM267.759 432.488C267.759 434.388 265.459 436.788 263.059 437.288C259.659 438.088 247.259 442.888 239.759 446.188C236.759 447.488 233.159 448.988 231.759 449.388C229.259 450.088 229.259 450.088 232.259 446.988C234.759 444.288 235.759 443.888 238.359 444.388C241.059 444.888 241.659 444.588 242.159 442.488C242.959 439.088 254.759 434.288 257.859 436.088C259.759 437.288 260.259 437.088 262.059 434.588C263.859 432.288 267.759 430.788 267.759 432.488ZM276.259 448.188C280.559 460.588 280.859 462.188 279.759 464.988C279.059 466.588 278.159 467.588 277.659 467.188C277.259 466.788 275.159 460.588 272.859 453.588C270.659 446.588 268.359 440.088 267.859 439.188C266.859 437.288 269.559 432.188 270.859 433.588C271.259 433.988 273.659 440.588 276.259 448.188ZM271.659 455.188L276.959 470.988L274.759 473.388C272.259 475.988 250.659 486.088 243.259 488.088C237.759 489.588 238.159 489.888 233.659 478.388C229.159 466.788 226.759 456.788 227.959 454.588C228.959 452.588 231.559 451.288 249.759 443.788C256.059 441.088 262.359 439.088 263.759 439.188C266.059 439.388 266.659 440.688 271.659 455.188Z" fill="white" fill-opacity="0.52"/>
<path d="M245.259 454.388C241.359 458.188 242.059 462.988 246.859 465.388C248.759 466.388 250.059 468.188 250.859 470.888C252.259 475.388 253.459 475.788 256.859 472.988C259.159 471.088 259.159 470.888 257.659 468.088C256.459 465.988 256.159 463.688 256.459 460.688C256.959 456.688 256.659 455.988 254.259 454.088C250.659 451.288 248.259 451.288 245.259 454.388ZM251.759 455.788C251.759 457.188 251.959 457.188 252.759 455.888C253.659 454.388 253.659 454.288 255.259 459.388C255.459 460.188 255.259 460.888 254.759 460.888C254.159 460.888 253.759 460.388 253.759 459.688C253.759 459.088 253.559 458.788 253.259 459.088C252.859 459.388 253.559 462.288 254.659 465.488C256.259 469.988 256.459 471.488 255.459 472.088C253.359 473.388 252.959 472.988 251.259 467.988C250.259 464.788 249.159 463.188 248.359 463.488C247.659 463.788 246.259 462.988 245.159 461.788C243.759 460.188 243.659 459.488 244.559 459.188C245.159 458.888 245.559 458.288 245.259 457.788C244.359 456.388 246.959 454.088 249.459 454.088C250.959 454.088 251.759 454.788 251.759 455.788Z" fill="white" fill-opacity="0.52"/>
<path d="M568.059 427.688C558.959 432.588 557.659 444.088 565.259 450.788C568.159 453.288 569.659 453.888 573.559 453.888C581.559 453.888 587.059 449.188 588.259 441.388C589.859 430.788 577.459 422.388 568.059 427.688ZM580.759 429.388C589.859 434.088 587.859 448.988 577.759 451.988C567.559 455.088 558.359 444.288 563.259 434.888C566.659 428.388 574.159 425.988 580.759 429.388Z" fill="white" fill-opacity="0.52"/>
<path d="M572.759 433.588C570.859 434.288 568.759 436.888 568.759 438.488C568.759 439.088 569.659 439.888 570.759 440.188C572.159 440.488 572.759 441.588 572.759 443.288C572.759 444.688 572.359 445.888 571.759 445.888C571.259 445.888 570.759 446.388 570.759 446.988C570.759 447.488 571.259 447.688 571.859 447.288C572.459 446.988 573.359 447.288 573.859 447.988C574.559 449.088 574.759 448.988 574.759 447.588C574.759 446.588 575.359 445.888 575.959 446.088C577.959 446.788 581.059 443.288 580.359 441.188C579.759 439.288 574.759 436.388 574.759 437.988C574.759 438.488 574.359 438.888 573.759 438.888C573.259 438.888 572.759 437.988 572.759 436.888C572.759 435.388 573.459 434.888 575.559 434.888C577.659 434.888 577.959 434.688 576.759 433.888C575.059 432.788 574.959 432.788 572.759 433.588ZM575.759 442.488C575.759 443.888 575.359 444.788 574.759 444.388C574.259 444.088 573.759 442.888 573.759 441.788C573.759 440.788 574.259 439.888 574.759 439.888C575.359 439.888 575.759 441.088 575.759 442.488ZM578.759 442.488C578.759 443.288 578.359 443.888 577.759 443.888C577.259 443.888 576.759 442.988 576.759 441.788C576.759 440.688 577.259 440.088 577.759 440.388C578.359 440.688 578.759 441.688 578.759 442.488Z" fill="white" fill-opacity="0.52"/>
<path d="M434.759 428.688C434.759 429.588 437.359 433.288 440.459 436.888C446.159 443.488 464.959 466.088 476.559 480.188C479.959 484.388 483.459 487.888 484.159 487.888C484.959 487.888 488.559 484.288 492.159 479.888C495.859 475.488 499.259 471.888 499.759 471.888C500.259 471.888 503.159 473.488 506.159 475.388C513.859 480.288 514.759 480.088 514.759 473.588C514.659 470.788 514.059 465.488 513.359 461.988C511.659 454.488 511.859 454.288 522.359 448.088C529.459 443.988 534.559 439.388 533.459 438.288C532.159 436.888 476.359 428.988 460.759 427.988C437.359 426.388 434.759 426.488 434.759 428.688ZM459.759 429.388C470.259 429.988 510.159 435.288 525.659 438.188L532.059 439.388L528.659 441.988C524.159 445.388 511.759 452.888 510.659 452.888C510.159 452.888 502.659 449.988 494.059 446.488C479.259 440.488 447.959 429.888 445.059 429.888C444.359 429.888 443.759 429.388 443.759 428.888C443.759 428.288 444.759 428.088 446.059 428.288C447.259 428.588 453.459 429.088 459.759 429.388ZM460.059 435.988C475.259 440.788 506.959 452.988 509.359 454.988C510.659 456.088 514.159 474.188 513.459 476.088C513.259 476.788 511.559 474.288 509.659 470.588L506.259 463.788L473.259 447.188C455.159 438.088 440.059 430.388 439.759 430.188C439.059 429.488 441.559 430.188 460.059 435.988ZM473.059 449.088L502.859 463.988L501.059 466.188C500.059 467.388 495.959 472.588 491.959 477.688C487.859 482.688 484.459 486.888 484.259 486.888C484.159 486.888 481.359 483.588 478.159 479.588C466.159 464.588 448.259 443.188 443.359 437.988C439.059 433.588 438.659 432.788 440.759 433.388C442.159 433.788 456.659 440.888 473.059 449.088ZM507.559 469.588C508.659 472.188 509.459 474.588 509.159 474.788C508.959 474.988 506.959 473.988 504.759 472.488C500.859 469.888 500.759 469.788 502.359 467.388C503.259 465.988 504.359 464.888 504.759 464.888C505.159 464.888 506.459 466.988 507.559 469.588Z" fill="white" fill-opacity="0.52"/>
<path d="M649.859 453.088C649.159 459.288 648.359 465.888 648.059 467.588C647.359 471.688 649.059 471.888 652.959 468.188C654.459 466.788 656.059 465.888 656.459 466.288C657.959 467.788 657.159 488.188 655.359 494.888C654.359 498.488 653.459 501.988 653.459 502.788C653.259 504.688 660.159 508.588 665.159 509.488C670.059 510.288 670.759 509.288 670.759 501.188C670.759 494.488 666.359 468.888 664.659 465.688C663.559 463.688 663.759 463.688 668.259 464.288C671.859 464.888 672.859 464.788 672.559 463.788C671.859 461.788 653.459 442.088 652.159 441.988C651.459 441.888 650.559 446.088 649.859 453.088ZM657.759 449.588C660.259 452.288 664.059 456.388 666.259 458.788L670.259 463.088L666.059 462.388C661.259 461.588 660.959 462.088 663.259 467.088C665.559 472.288 668.759 491.188 668.759 499.988V507.888H666.059C663.459 507.888 654.759 504.488 654.759 503.588C654.759 503.388 655.659 499.688 656.759 495.388C658.959 486.788 659.459 469.988 657.759 465.288L656.659 462.588L653.059 465.988L649.459 469.388L650.059 464.388C650.459 461.588 650.959 456.088 651.359 452.088C651.759 448.188 652.359 444.888 652.659 444.888C653.059 444.888 655.359 446.988 657.759 449.588Z" fill="white" fill-opacity="0.52"/>
<path d="M555.759 477.088C555.759 477.288 554.659 486.188 553.259 496.888C549.759 524.288 549.159 521.588 559.059 522.388C563.559 522.688 567.959 523.188 568.859 523.488C569.759 523.688 571.359 526.888 572.759 531.388C574.059 535.488 575.559 538.888 576.059 538.888C577.559 538.888 637.159 516.888 638.059 515.988C638.859 515.188 628.259 478.988 626.759 477.488C626.259 476.988 623.359 477.488 620.059 478.588C614.359 480.588 613.959 480.588 588.759 478.788C563.959 476.988 555.759 476.588 555.759 477.088ZM582.259 479.988C613.359 481.788 613.059 481.088 586.759 490.788C574.359 495.388 563.959 499.488 563.559 499.788C563.159 500.188 563.159 501.888 563.659 503.688L564.659 506.888H559.159C555.459 506.888 553.759 506.488 553.759 505.588C553.759 503.388 556.759 480.488 557.259 479.088C557.559 478.388 558.659 478.088 559.959 478.288C561.259 478.588 571.259 479.288 582.259 479.988ZM631.459 496.388C634.359 505.788 636.559 513.888 636.359 514.388C635.959 515.488 576.959 537.488 576.359 536.788C575.259 535.588 564.759 501.588 565.259 500.988C566.459 499.788 623.259 478.888 624.659 479.188C625.659 479.288 628.059 485.388 631.459 496.388ZM565.559 510.588C565.859 512.688 565.659 512.688 560.059 512.188C553.859 511.588 552.059 510.788 553.259 508.888C553.659 508.188 556.159 507.888 559.559 508.088C564.559 508.388 565.259 508.688 565.559 510.588ZM566.959 514.788C567.359 515.188 568.059 516.988 568.359 518.788L569.059 522.188L565.159 521.588C563.059 521.188 559.659 520.888 557.759 520.888C552.759 520.888 551.659 519.788 552.359 516.088L553.059 512.888L559.659 513.488C563.259 513.888 566.559 514.388 566.959 514.788Z" fill="white" fill-opacity="0.52"/>
<path d="M577.859 509.188C574.759 510.188 574.559 510.488 575.159 513.688C575.959 518.788 576.959 519.488 581.759 517.888C584.059 517.188 586.059 516.188 586.259 515.888C586.459 515.488 586.259 513.588 585.659 511.588C584.559 507.588 583.659 507.288 577.859 509.188ZM584.759 513.888C584.759 515.988 578.659 518.388 577.559 516.588C575.959 513.988 576.759 511.288 579.559 510.288C582.459 509.088 584.759 510.688 584.759 513.888Z" fill="white" fill-opacity="0.52"/>
<path d="M620.559 511.588C619.559 511.788 618.759 512.488 618.759 512.988C618.759 513.988 621.959 513.388 624.759 511.788C625.959 511.088 625.859 510.988 624.259 510.988C623.159 511.088 621.459 511.288 620.559 511.588Z" fill="white" fill-opacity="0.52"/>
<path d="M607.759 516.088C606.359 516.688 605.759 517.288 606.359 517.588C607.059 517.788 609.059 517.288 610.859 516.488C613.259 515.488 613.659 515.088 612.259 514.988C611.159 514.988 609.159 515.488 607.759 516.088Z" fill="white" fill-opacity="0.52"/>
<path d="M596.259 520.388C593.959 521.388 593.759 521.788 595.259 521.788C597.359 521.888 600.459 520.288 599.759 519.488C599.459 519.288 597.959 519.688 596.259 520.388Z" fill="white" fill-opacity="0.52"/>
<path d="M582.259 525.388C579.859 526.488 579.659 526.788 581.359 526.788C582.459 526.888 584.259 526.188 585.359 525.388C587.759 523.588 586.159 523.588 582.259 525.388Z" fill="white" fill-opacity="0.52"/>
<path d="M518.759 484.088C518.759 484.488 520.159 486.988 521.759 489.588C523.759 492.688 524.759 493.588 524.759 492.288C524.659 490.588 518.859 482.488 518.759 484.088Z" fill="white" fill-opacity="0.52"/>
<path d="M504.759 498.388C504.759 499.188 505.259 499.888 505.759 499.888C506.359 499.888 506.759 499.188 506.759 498.388C506.759 497.588 506.359 496.888 505.759 496.888C505.259 496.888 504.759 497.588 504.759 498.388Z" fill="white" fill-opacity="0.52"/>
<path d="M477.759 501.188C472.259 503.988 471.559 511.988 476.459 515.888C480.159 518.788 484.359 518.488 487.859 514.988C495.259 507.488 487.159 496.388 477.759 501.188ZM487.259 503.888C491.659 508.688 488.259 515.888 481.659 515.888C475.259 515.888 472.459 508.988 476.959 504.188C479.659 501.288 484.759 501.088 487.259 503.888Z" fill="white" fill-opacity="0.52"/>
<path d="M477.959 508.088C478.259 510.688 481.559 511.788 482.859 509.788C483.259 509.088 483.959 508.788 484.359 509.188C484.759 509.488 484.459 510.588 483.659 511.488C482.459 512.988 482.459 513.188 483.659 512.788C485.859 511.988 487.359 509.088 486.259 507.988C485.659 507.588 483.559 506.788 481.459 506.488C477.859 505.788 477.659 505.888 477.959 508.088Z" fill="white" fill-opacity="0.52"/>
<path d="M528.159 502.088C528.559 503.388 529.059 505.888 529.459 507.588C529.759 509.388 530.459 510.888 530.959 510.888C531.559 510.888 531.659 509.488 531.259 507.588C530.259 503.188 528.959 499.888 528.159 499.888C527.859 499.888 527.859 500.888 528.159 502.088Z" fill="white" fill-opacity="0.52"/>
<path d="M498.759 504.388C498.759 505.288 499.259 505.888 499.859 505.688C500.459 505.488 500.959 504.888 500.959 504.388C500.959 503.888 500.459 503.288 499.859 503.088C499.259 502.888 498.759 503.488 498.759 504.388Z" fill="white" fill-opacity="0.52"/>
<path d="M253.859 512.488C250.059 515.588 249.659 520.788 252.759 523.888C258.059 529.188 268.159 524.888 268.159 517.288C268.159 510.188 259.859 507.388 253.859 512.488ZM265.059 513.688C267.459 515.788 267.159 519.588 264.259 522.388C261.159 525.588 256.559 525.688 253.759 522.688C251.259 519.988 251.259 517.888 253.759 514.588C256.759 510.788 261.259 510.488 265.059 513.688Z" fill="white" fill-opacity="0.52"/>
<path d="M298.759 521.188C288.959 524.188 276.759 528.988 276.759 529.888C276.759 530.288 278.959 530.388 281.559 530.088C285.159 529.788 287.459 530.188 290.559 531.788C292.859 532.988 294.759 534.288 294.759 534.788C294.759 535.188 292.859 536.088 290.559 536.788C288.159 537.488 282.959 539.588 278.959 541.488C270.759 545.388 268.459 548.188 266.659 556.388C265.059 563.888 266.959 568.588 272.759 571.588C277.859 574.088 295.359 578.788 322.759 584.788C332.959 586.988 345.859 590.288 351.559 592.088L361.859 595.288L381.559 588.988C392.359 585.488 402.759 582.088 404.459 581.388L407.759 579.988L407.159 572.688C406.859 568.688 406.459 564.488 406.259 563.288C405.759 560.888 400.959 558.988 373.259 549.888C360.859 545.788 350.459 541.688 343.159 537.888C337.159 534.688 330.259 531.488 328.059 530.888C325.459 530.088 323.559 528.788 322.859 527.288C321.459 523.988 314.659 519.788 310.059 519.288C307.859 519.088 303.159 519.788 298.759 521.188ZM314.559 522.288C318.259 524.288 322.459 528.888 323.259 531.888C323.859 534.588 325.359 533.988 300.859 540.988C299.959 541.288 299.159 540.188 298.559 538.188C297.559 534.488 292.659 529.988 288.659 529.188C287.059 528.888 285.759 528.288 285.759 527.888C285.759 526.688 303.859 520.988 308.059 520.988C310.159 520.888 313.059 521.488 314.559 522.288ZM340.459 538.488C347.359 542.188 358.659 546.688 375.859 552.488C397.459 559.688 405.559 562.888 402.459 562.888C402.059 562.888 392.759 565.588 381.659 568.888L361.659 574.988L347.459 569.788C329.759 563.388 321.859 559.988 313.159 554.988C303.959 549.688 292.459 545.188 286.059 544.288C283.159 543.988 280.759 543.288 280.759 542.888C280.759 542.088 286.959 539.588 292.859 537.888C296.559 536.788 297.759 537.688 297.759 541.688C297.759 543.188 298.259 543.888 299.059 543.488C301.059 542.688 315.859 538.088 320.359 536.988C323.259 536.188 324.659 535.188 325.059 533.788C325.759 531.088 327.359 531.588 340.459 538.488ZM288.759 546.388C292.559 547.288 302.759 551.588 313.259 556.888C323.159 561.788 337.159 567.888 344.259 570.388C351.459 572.888 357.959 575.288 358.759 575.788C359.859 576.388 360.359 578.788 360.559 584.788C360.759 589.188 360.459 592.888 360.059 592.888C359.659 592.888 355.759 591.688 351.359 590.388C347.059 588.988 335.359 585.988 325.359 583.788C301.559 578.588 277.359 572.288 273.759 570.388C272.159 569.588 270.159 567.888 269.359 566.688C266.159 562.088 268.159 551.388 273.059 547.288C276.359 544.488 279.559 544.288 288.759 546.388ZM405.559 571.988L405.859 579.488L384.659 586.288C367.559 591.788 363.359 592.888 362.659 591.788C362.159 590.988 361.859 587.188 361.959 583.388L362.259 576.388L375.259 572.588C382.459 570.488 391.459 567.688 395.259 566.388C405.159 562.988 405.159 563.088 405.559 571.988Z" fill="white" fill-opacity="0.52"/>
<path d="M328.259 539.788C320.259 542.688 309.759 547.688 309.759 548.588C309.859 549.488 318.359 554.888 319.859 554.888C320.359 554.888 322.959 553.788 325.559 552.488C328.159 551.188 333.159 549.088 336.759 547.888C340.359 546.588 343.659 545.188 344.159 544.788C345.059 543.988 338.659 539.488 335.259 538.488C334.159 538.188 331.059 538.788 328.259 539.788ZM338.659 541.588C340.359 542.588 341.759 543.688 341.759 543.988C341.759 544.288 339.859 545.088 337.659 545.788C335.359 546.488 330.359 548.588 326.559 550.388L319.559 553.788L316.459 551.588C314.659 550.388 313.059 549.288 312.859 549.188C311.959 548.588 313.759 547.688 322.459 543.888C332.459 539.488 334.359 539.188 338.659 541.588Z" fill="white" fill-opacity="0.52"/>
<path d="M342.759 552.988C337.059 555.188 331.959 557.288 331.459 557.788C330.659 558.588 334.359 560.288 350.759 566.788L360.259 570.588L372.259 566.788C378.859 564.688 385.059 562.988 386.059 562.988C390.459 562.788 386.359 560.288 376.159 556.888C370.159 554.788 362.759 552.188 359.759 550.988C356.759 549.888 354.059 548.888 353.759 548.988C353.459 548.988 348.559 550.788 342.759 552.988ZM359.359 552.388C361.659 553.288 362.659 554.288 362.159 554.988C361.759 555.788 361.859 555.888 362.659 555.488C363.859 554.688 372.759 556.788 372.759 557.888C372.759 558.188 373.759 558.488 375.059 558.488C376.259 558.588 378.859 559.288 380.759 560.088L384.259 561.588L378.259 563.388C374.959 564.388 370.859 565.188 369.059 565.288C367.359 565.388 365.959 565.788 366.059 566.288C366.159 566.788 364.959 567.588 363.259 567.988C360.959 568.688 358.759 568.188 353.759 566.288C339.459 560.688 334.759 558.488 335.459 557.788C335.859 557.388 339.559 555.888 343.559 554.588C347.559 553.188 351.159 551.888 351.459 551.488C352.559 550.488 355.659 550.788 359.359 552.388Z" fill="white" fill-opacity="0.52"/>
<path d="M532.659 519.388C531.859 520.088 533.659 527.988 534.859 529.288C536.059 530.588 535.959 529.388 534.459 523.588C533.759 520.888 532.959 518.988 532.659 519.388Z" fill="white" fill-opacity="0.52"/>
<path d="M410.159 524.788C403.959 528.588 403.559 536.788 409.459 541.888C412.159 544.288 413.759 544.888 417.359 544.888C421.259 544.888 422.459 544.388 425.359 541.488C427.759 539.088 428.759 537.188 428.759 534.888C428.759 525.688 418.159 519.888 410.159 524.788ZM423.059 526.888C428.959 531.488 427.959 539.688 421.159 542.488C410.459 546.988 401.559 533.188 410.659 526.188C413.259 524.188 420.159 524.588 423.059 526.888Z" fill="white" fill-opacity="0.52"/>
<path d="M415.359 529.788C413.259 532.088 413.959 533.888 416.859 533.888C419.259 533.888 420.559 536.788 418.759 537.888C418.059 538.388 416.359 538.288 415.059 537.788C413.359 537.188 412.859 537.188 413.259 537.988C414.659 540.088 418.059 540.588 419.959 538.988C420.959 538.188 421.759 536.888 421.759 536.288C421.759 534.488 418.659 532.388 416.559 532.688C414.259 533.088 414.159 531.288 416.459 529.988C417.659 529.388 418.859 529.388 420.259 530.088C422.059 531.088 422.159 531.088 420.859 529.588C419.059 527.388 417.459 527.488 415.359 529.788Z" fill="white" fill-opacity="0.52"/>
<path d="M361.959 527.088C358.859 530.188 362.059 535.888 366.859 535.888C369.959 535.888 371.759 534.188 371.759 531.388C371.759 526.988 364.959 524.088 361.959 527.088ZM369.759 531.388C369.759 533.488 369.259 533.888 366.759 533.888C362.159 533.888 360.559 529.088 364.759 527.688C367.159 526.888 369.759 528.788 369.759 531.388Z" fill="white" fill-opacity="0.52"/>
<path d="M482.959 531.188C472.059 539.288 463.059 559.588 462.059 578.388C461.459 589.388 462.459 594.988 465.959 599.388C467.959 601.988 468.359 602.088 474.159 601.488C497.259 599.288 510.159 599.888 524.359 604.088C532.659 606.488 532.759 606.888 526.659 613.488C522.059 618.688 520.559 621.288 521.359 623.388C521.759 624.288 520.759 627.488 519.259 630.588C517.559 633.788 516.259 638.388 515.959 641.488C515.559 646.388 515.759 647.088 518.559 649.888C525.059 656.388 533.459 651.688 535.659 640.388C537.859 629.088 541.759 617.888 544.659 614.688L547.359 611.588L552.659 612.888C559.159 614.388 566.159 613.688 569.659 611.188C574.759 607.288 578.059 601.388 578.559 594.988C579.059 587.488 577.659 583.088 572.959 578.388C568.159 573.588 564.259 571.688 548.359 566.188C530.359 560.088 526.659 557.688 506.759 539.588C494.859 528.688 489.159 526.688 482.959 531.188ZM494.959 533.088C497.259 535.688 498.759 541.288 498.759 547.488V552.688L493.159 555.388C486.659 558.588 482.759 563.788 482.059 570.088C481.659 573.488 482.159 575.588 484.659 580.288C486.359 583.488 487.759 586.488 487.759 586.888C487.759 588.588 477.659 598.688 474.759 599.888C470.759 601.588 467.559 599.988 465.059 594.988C462.559 590.088 462.859 575.188 465.659 564.688C470.759 545.288 483.359 528.388 491.259 530.488C492.359 530.788 494.059 531.988 494.959 533.088ZM505.759 540.788L512.259 546.688L512.059 554.488C511.659 568.788 505.059 588.388 498.359 594.688C495.659 597.288 494.259 597.888 487.859 598.488L480.459 599.188L484.759 593.788C490.159 586.988 495.359 575.688 497.859 565.388C499.859 556.788 500.459 541.788 498.759 537.488C498.259 536.088 498.159 534.888 498.559 534.888C498.959 534.888 502.159 537.588 505.759 540.788ZM517.359 550.988C522.759 557.088 533.059 562.788 546.759 567.388C554.359 569.888 561.159 572.688 561.859 573.488C566.659 579.388 560.659 599.088 551.259 607.888L548.759 610.288L533.959 605.488C518.959 600.688 510.559 598.888 503.059 598.888C500.659 598.888 498.759 598.688 498.759 598.388C498.759 598.088 500.359 595.488 502.259 592.588C508.459 583.288 513.759 565.288 513.759 553.888C513.759 548.388 514.459 547.788 517.359 550.988ZM497.759 557.588C497.759 559.888 494.659 572.188 493.759 573.388C493.359 573.888 492.759 575.588 492.359 577.088C492.059 578.688 491.259 579.888 490.659 579.888C490.059 579.888 489.859 580.288 490.159 580.688C490.359 581.088 490.259 582.088 489.859 582.788C489.259 583.688 488.359 583.188 486.659 580.688C484.759 578.088 484.259 576.088 484.259 571.188C484.259 564.488 485.959 561.688 492.259 557.788C495.959 555.488 497.759 555.388 497.759 557.588ZM570.059 577.988C572.159 579.688 574.459 582.288 575.159 583.688C582.159 597.488 571.659 614.188 557.259 612.188C554.759 611.888 552.459 611.188 552.159 610.688C551.859 610.288 553.259 607.988 555.259 605.688C561.659 598.088 566.759 583.588 565.159 577.288C564.359 574.088 565.559 574.288 570.059 577.988ZM543.059 610.288C544.859 610.888 544.759 610.988 542.859 613.488C540.559 616.388 536.659 627.888 534.759 637.388C533.159 645.288 531.359 648.488 527.759 650.388C525.159 651.688 524.259 651.788 521.959 650.688C517.759 648.688 516.359 644.688 517.759 639.088C518.359 636.488 519.759 632.888 520.859 631.088C521.859 629.288 522.759 626.088 522.759 623.988C522.759 621.388 523.459 619.588 524.859 618.288C525.959 617.288 528.459 614.288 530.359 611.688L533.859 606.988L537.559 608.288C539.559 609.088 542.059 609.988 543.059 610.288Z" fill="white" fill-opacity="0.52"/>
<path d="M466.959 580.888C466.959 582.788 467.159 583.588 467.459 582.588C467.659 581.688 467.659 580.088 467.459 579.088C467.159 578.188 466.959 578.988 466.959 580.888Z" fill="white" fill-opacity="0.52"/>
<path d="M552.659 600.588C549.759 604.088 548.559 605.888 549.059 605.888C549.259 605.888 550.759 604.288 552.159 602.388C554.959 598.788 555.259 597.488 552.659 600.588Z" fill="white" fill-opacity="0.52"/>
<path d="M518.959 643.888C518.959 645.788 519.159 646.588 519.459 645.588C519.659 644.688 519.659 643.088 519.459 642.088C519.159 641.188 518.959 641.988 518.959 643.888Z" fill="white" fill-opacity="0.52"/>
<path d="M460.759 533.088C460.759 535.288 462.859 539.888 463.959 539.888C465.159 539.888 464.859 538.788 462.759 534.888C461.659 532.788 460.859 532.088 460.759 533.088Z" fill="white" fill-opacity="0.52"/>
<path d="M539.759 538.688C539.759 539.088 541.359 540.988 543.259 542.888C547.459 546.988 547.859 545.688 543.759 541.088C540.759 537.888 539.759 537.188 539.759 538.688Z" fill="white" fill-opacity="0.52"/>
<path d="M664.259 540.588C660.359 542.688 662.659 543.488 666.659 541.388C668.359 540.588 669.759 539.588 669.759 539.388C669.759 538.388 667.159 538.988 664.259 540.588Z" fill="white" fill-opacity="0.52"/>
<path d="M442.759 544.988C442.759 545.988 450.559 551.888 451.959 551.888C453.859 551.888 452.359 550.188 447.659 547.188C444.959 545.488 442.759 544.488 442.759 544.988Z" fill="white" fill-opacity="0.52"/>
<path d="M624.759 545.888C624.759 546.388 627.259 546.888 630.259 546.888C633.259 546.888 635.759 546.388 635.759 545.888C635.759 545.288 633.259 544.888 630.259 544.888C627.259 544.888 624.759 545.288 624.759 545.888Z" fill="white" fill-opacity="0.52"/>
<path d="M644.759 545.888C644.759 547.088 649.459 547.088 652.259 545.888C653.759 545.288 653.059 544.988 649.559 544.988C646.859 544.888 644.759 545.288 644.759 545.888Z" fill="white" fill-opacity="0.52"/>
<path d="M609.759 548.088C605.859 549.688 608.959 550.088 613.359 548.488C616.459 547.288 616.759 546.988 614.759 546.988C613.359 546.988 611.159 547.488 609.759 548.088Z" fill="white" fill-opacity="0.52"/>
<path d="M552.759 551.288C552.759 551.888 559.259 555.588 561.659 556.388C565.559 557.588 563.659 555.388 558.859 553.088C554.159 550.888 552.759 550.488 552.759 551.288Z" fill="white" fill-opacity="0.52"/>
<path d="M595.259 556.388C593.059 557.688 591.759 558.888 592.459 558.888C593.959 558.888 599.759 555.588 599.759 554.588C599.759 553.588 599.759 553.588 595.259 556.388Z" fill="white" fill-opacity="0.52"/>
<path d="M573.259 559.888C573.559 560.388 575.759 560.888 578.059 560.888C581.159 560.888 581.859 560.588 580.759 559.888C578.759 558.588 572.459 558.588 573.259 559.888Z" fill="white" fill-opacity="0.52"/>
<path d="M442.859 565.788C441.459 566.188 440.259 566.988 440.059 567.588C439.759 568.388 440.659 568.388 443.659 567.488C445.859 566.888 447.959 565.988 448.359 565.588C449.259 564.788 446.259 564.788 442.859 565.788Z" fill="white" fill-opacity="0.52"/>
<path d="M610.759 569.388C610.759 570.188 611.259 570.888 611.759 570.888C612.359 570.888 612.759 570.188 612.759 569.388C612.759 568.588 612.359 567.888 611.759 567.888C611.259 567.888 610.759 568.588 610.759 569.388Z" fill="white" fill-opacity="0.52"/>
<path d="M448.559 579.888C446.759 581.488 445.759 582.888 446.459 582.888C447.059 582.888 449.159 581.488 450.959 579.888C452.759 578.188 453.659 576.888 452.959 576.888C452.359 576.888 450.359 578.188 448.559 579.888Z" fill="white" fill-opacity="0.52"/>
<path d="M613.559 580.588C610.959 583.488 610.559 586.588 612.159 589.688C614.659 594.588 619.459 595.288 623.259 591.388C626.359 588.388 626.559 583.688 623.759 580.888C621.259 578.388 615.659 578.188 613.559 580.588ZM623.059 582.988C624.759 585.388 624.859 585.988 623.659 588.488C621.059 593.888 612.759 592.088 612.759 586.188C612.759 583.188 616.259 579.688 618.959 580.088C620.159 580.288 621.959 581.588 623.059 582.988Z" fill="white" fill-opacity="0.52"/>
<path d="M385.259 602.388C386.859 615.488 392.359 638.888 393.759 638.888C394.259 638.888 396.059 636.888 397.759 634.388C399.459 631.888 401.059 629.888 401.359 629.888C402.159 629.888 404.159 632.288 413.959 645.188C423.459 657.488 421.459 656.988 437.359 650.788C442.859 648.688 447.759 646.888 448.359 646.888C448.859 646.888 451.859 649.088 455.059 651.788C458.159 654.588 461.959 657.688 463.559 658.688L466.259 660.688L475.259 654.688C480.259 651.488 489.559 645.588 496.059 641.688C502.459 637.788 507.759 634.388 507.759 633.988C507.759 632.688 495.159 620.888 493.759 620.888C492.959 620.888 488.959 623.488 484.759 626.688C480.659 629.888 475.659 633.488 473.659 634.688L470.159 636.788L464.259 630.888C460.959 627.588 457.559 624.888 456.659 624.888C455.659 624.888 449.559 626.888 442.959 629.388C436.359 631.888 430.659 633.888 430.259 633.888C429.259 633.888 424.059 629.188 418.959 623.788L414.759 619.088L419.759 615.888C422.559 614.088 424.659 612.188 424.459 611.588C424.359 611.088 422.659 610.088 420.759 609.288C401.359 601.988 387.059 596.888 385.959 596.888C384.859 596.888 384.659 597.988 385.259 602.388ZM405.559 605.388C414.459 608.688 421.759 611.688 421.759 612.188C421.759 612.588 419.759 614.188 417.259 615.688C414.759 617.188 412.759 618.688 412.759 619.088C412.759 620.288 427.959 635.888 429.159 635.888C429.759 635.888 435.659 633.888 442.259 631.388C448.859 628.888 454.959 626.888 455.759 626.888C456.559 626.888 459.959 629.588 463.359 632.988L469.559 639.088L474.059 636.388C476.559 634.988 481.759 631.288 485.459 628.288C489.159 625.388 492.759 622.888 493.259 622.888C493.859 622.888 496.759 625.388 499.759 628.488C504.659 633.388 505.059 634.088 503.559 635.188C502.659 635.888 494.759 640.788 486.059 646.188C477.359 651.588 469.359 656.588 468.159 657.388C466.259 658.788 465.559 658.488 457.659 651.888C453.059 648.088 448.959 644.888 448.559 644.888C448.259 644.888 442.759 646.888 436.459 649.388C430.059 651.888 424.559 653.888 424.059 653.888C423.559 653.888 418.459 647.988 412.859 640.888C407.159 633.688 401.959 627.888 401.259 627.888C400.559 627.888 398.759 629.788 397.259 631.988C395.759 634.388 394.159 635.688 393.659 635.188C392.759 634.288 386.759 605.088 386.759 601.288C386.759 598.188 385.459 597.888 405.559 605.388Z" fill="white" fill-opacity="0.52"/>
<path d="M593.359 606.588C592.259 607.688 592.759 608.888 594.259 608.888C595.059 608.888 595.759 608.488 595.759 607.988C595.759 606.688 594.159 605.788 593.359 606.588Z" fill="white" fill-opacity="0.52"/>
<path d="M341.759 610.588C332.559 614.088 334.359 626.888 343.959 626.888C348.559 626.888 351.659 624.288 352.359 619.788C352.859 616.988 352.459 615.688 350.659 613.588C348.159 610.888 344.359 609.588 341.759 610.588ZM348.559 613.488C351.759 615.688 351.559 621.088 348.159 623.788C346.659 624.988 344.659 625.888 343.559 625.888C341.059 625.888 336.759 621.488 336.759 618.888C336.759 616.088 341.059 611.888 343.959 611.888C345.259 611.888 347.359 612.588 348.559 613.488Z" fill="white" fill-opacity="0.52"/>
<path d="M589.759 617.388C589.759 618.188 590.259 618.888 590.759 618.888C591.359 618.888 591.759 618.188 591.759 617.388C591.759 616.588 591.359 615.888 590.759 615.888C590.259 615.888 589.759 616.588 589.759 617.388Z" fill="white" fill-opacity="0.52"/>
<rect x="756" y="159" width="590" height="545" fill="white"/>
<path d="M216.032 659.224H221.888V661H213.848V644.272H216.032V659.224ZM236.207 653.92C236.207 654.336 236.183 654.776 236.135 655.24H225.623C225.703 656.536 226.143 657.552 226.943 658.288C227.759 659.008 228.743 659.368 229.895 659.368C230.839 659.368 231.623 659.152 232.247 658.72C232.887 658.272 233.335 657.68 233.591 656.944H235.943C235.591 658.208 234.887 659.24 233.831 660.04C232.775 660.824 231.463 661.216 229.895 661.216C228.647 661.216 227.527 660.936 226.535 660.376C225.559 659.816 224.791 659.024 224.231 658C223.671 656.96 223.391 655.76 223.391 654.4C223.391 653.04 223.663 651.848 224.207 650.824C224.751 649.8 225.511 649.016 226.487 648.472C227.479 647.912 228.615 647.632 229.895 647.632C231.143 647.632 232.247 647.904 233.207 648.448C234.167 648.992 234.903 649.744 235.415 650.704C235.943 651.648 236.207 652.72 236.207 653.92ZM233.951 653.464C233.951 652.632 233.767 651.92 233.399 651.328C233.031 650.72 232.527 650.264 231.887 649.96C231.263 649.64 230.567 649.48 229.799 649.48C228.695 649.48 227.751 649.832 226.967 650.536C226.199 651.24 225.759 652.216 225.647 653.464H233.951ZM241.754 649.648V657.4C241.754 658.04 241.89 658.496 242.162 658.768C242.434 659.024 242.906 659.152 243.578 659.152H245.186V661H243.218C242.002 661 241.09 660.72 240.482 660.16C239.874 659.6 239.57 658.68 239.57 657.4V649.648H237.866V647.848H239.57V644.536H241.754V647.848H245.186V649.648H241.754ZM248.168 644.272H250.592L248.288 649.72H246.752L248.168 644.272ZM257.738 661.216C256.73 661.216 255.826 661.048 255.026 660.712C254.226 660.36 253.594 659.88 253.13 659.272C252.666 658.648 252.41 657.936 252.362 657.136H254.618C254.682 657.792 254.986 658.328 255.53 658.744C256.09 659.16 256.818 659.368 257.714 659.368C258.546 659.368 259.202 659.184 259.682 658.816C260.162 658.448 260.402 657.984 260.402 657.424C260.402 656.848 260.146 656.424 259.634 656.152C259.122 655.864 258.33 655.584 257.258 655.312C256.282 655.056 255.482 654.8 254.858 654.544C254.25 654.272 253.722 653.88 253.274 653.368C252.842 652.84 252.626 652.152 252.626 651.304C252.626 650.632 252.826 650.016 253.226 649.456C253.626 648.896 254.194 648.456 254.93 648.136C255.666 647.8 256.506 647.632 257.45 647.632C258.906 647.632 260.082 648 260.978 648.736C261.874 649.472 262.354 650.48 262.418 651.76H260.234C260.186 651.072 259.906 650.52 259.394 650.104C258.898 649.688 258.226 649.48 257.378 649.48C256.594 649.48 255.97 649.648 255.506 649.984C255.042 650.32 254.81 650.76 254.81 651.304C254.81 651.736 254.946 652.096 255.218 652.384C255.506 652.656 255.858 652.88 256.274 653.056C256.706 653.216 257.298 653.4 258.05 653.608C258.994 653.864 259.762 654.12 260.354 654.376C260.946 654.616 261.45 654.984 261.866 655.48C262.298 655.976 262.522 656.624 262.538 657.424C262.538 658.144 262.338 658.792 261.938 659.368C261.538 659.944 260.97 660.4 260.234 660.736C259.514 661.056 258.682 661.216 257.738 661.216ZM284.692 649.12C284.228 648.144 283.556 647.392 282.676 646.864C281.796 646.32 280.772 646.048 279.604 646.048C278.436 646.048 277.38 646.32 276.436 646.864C275.508 647.392 274.772 648.16 274.228 649.168C273.7 650.16 273.436 651.312 273.436 652.624C273.436 653.936 273.7 655.088 274.228 656.08C274.772 657.072 275.508 657.84 276.436 658.384C277.38 658.912 278.436 659.176 279.604 659.176C281.236 659.176 282.58 658.688 283.636 657.712C284.692 656.736 285.308 655.416 285.484 653.752H278.812V651.976H287.812V653.656C287.684 655.032 287.252 656.296 286.516 657.448C285.78 658.584 284.812 659.488 283.612 660.16C282.412 660.816 281.076 661.144 279.604 661.144C278.052 661.144 276.636 660.784 275.356 660.064C274.076 659.328 273.06 658.312 272.308 657.016C271.572 655.72 271.204 654.256 271.204 652.624C271.204 650.992 271.572 649.528 272.308 648.232C273.06 646.92 274.076 645.904 275.356 645.184C276.636 644.448 278.052 644.08 279.604 644.08C281.38 644.08 282.948 644.52 284.308 645.4C285.684 646.28 286.684 647.52 287.308 649.12H284.692ZM296.436 661.216C295.204 661.216 294.084 660.936 293.076 660.376C292.084 659.816 291.3 659.024 290.724 658C290.164 656.96 289.884 655.76 289.884 654.4C289.884 653.056 290.172 651.872 290.748 650.848C291.34 649.808 292.14 649.016 293.148 648.472C294.156 647.912 295.284 647.632 296.532 647.632C297.78 647.632 298.908 647.912 299.916 648.472C300.924 649.016 301.716 649.8 302.292 650.824C302.884 651.848 303.18 653.04 303.18 654.4C303.18 655.76 302.876 656.96 302.268 658C301.676 659.024 300.868 659.816 299.844 660.376C298.82 660.936 297.684 661.216 296.436 661.216ZM296.436 659.296C297.22 659.296 297.956 659.112 298.644 658.744C299.332 658.376 299.884 657.824 300.3 657.088C300.732 656.352 300.948 655.456 300.948 654.4C300.948 653.344 300.74 652.448 300.324 651.712C299.908 650.976 299.364 650.432 298.692 650.08C298.02 649.712 297.292 649.528 296.508 649.528C295.708 649.528 294.972 649.712 294.3 650.08C293.644 650.432 293.116 650.976 292.716 651.712C292.316 652.448 292.116 653.344 292.116 654.4C292.116 655.472 292.308 656.376 292.692 657.112C293.092 657.848 293.62 658.4 294.276 658.768C294.932 659.12 295.652 659.296 296.436 659.296Z" fill="white"/>
<path d="M382.707 653.707C383.098 653.317 383.098 652.683 382.707 652.293L376.343 645.929C375.953 645.538 375.319 645.538 374.929 645.929C374.538 646.319 374.538 646.953 374.929 647.343L380.586 653L374.929 658.657C374.538 659.047 374.538 659.681 374.929 660.071C375.319 660.462 375.953 660.462 376.343 660.071L382.707 653.707ZM319 653V654H382V653V652H319V653Z" fill="white"/>
<g opacity="0.35">
<path d="M1533 440C1533 557.637 1437.64 653 1320 653C1202.36 653 1107 557.637 1107 440C1107 322.363 1202.36 227 1320 227C1437.64 227 1533 322.363 1533 440ZM1110.41 440C1110.41 555.756 1204.24 649.595 1320 649.595C1435.76 649.595 1529.59 555.756 1529.59 440C1529.59 324.244 1435.76 230.405 1320 230.405C1204.24 230.405 1110.41 324.244 1110.41 440Z" fill="#CA0000"/>
<circle cx="1320" cy="440" r="158.867" fill="#CA0000" fill-opacity="0.33"/>
<circle cx="1320" cy="440" r="112.58" fill="#CA0000"/>
<circle cx="1161.13" cy="296.823" r="15.6906" fill="#CA0000"/>
<circle cx="1122.69" cy="527.475" r="15.6906" fill="#CA0000"/>
</g>
</g>
<rect x="166.5" y="159.5" width="1179" height="544" rx="19.5" stroke="#CA0000" stroke-opacity="0.1"/>
</g>
<defs>
<filter id="filter0_d_56_54" x="124.1" y="118.1" width="1269.8" height="634.8" filterUnits="userSpaceOnUse" color-interpolation-filters="sRGB">
<feFlood flood-opacity="0" result="BackgroundImageFix"/>
<feColorMatrix in="SourceAlpha" type="matrix" values="0 0 0 0 0 0 0 0 0 0 0 0 0 0 0 0 0 0 127 0" result="hardAlpha"/>
<feOffset dx="3" dy="4"/>
<feGaussianBlur stdDeviation="22.45"/>
<feComposite in2="hardAlpha" operator="out"/>
<feColorMatrix type="matrix" values="0 0 0 0 0 0 0 0 0 0 0 0 0 0 0 0 0 0 0.12 0"/>
<feBlend mode="normal" in2="BackgroundImageFix" result="effect1_dropShadow_56_54"/>
<feBlend mode="normal" in="SourceGraphic" in2="effect1_dropShadow_56_54" result="shape"/>
</filter>
<linearGradient id="paint0_linear_56_54" x1="755.5" y1="205" x2="755.5" y2="60" gradientUnits="userSpaceOnUse">
<stop offset="0.370192" stop-color="#F8F8F8"/>
<stop offset="1" stop-color="#CA0000"/>
</linearGradient>
<clipPath id="clip0_56_54">
<rect x="166" y="159" width="1180" height="545" rx="20" fill="white"/>
</clipPath>
</defs>
</svg>
