<svg width="239" height="426" viewBox="0 0 239 426" fill="none" xmlns="http://www.w3.org/2000/svg">
<g opacity="0.35">
<path d="M426 213C426 330.637 330.637 426 213 426C95.3633 426 0 330.637 0 213C0 95.3633 95.3633 0 213 0C330.637 0 426 95.3633 426 213ZM3.40536 213C3.40536 328.756 97.2441 422.595 213 422.595C328.756 422.595 422.595 328.756 422.595 213C422.595 97.2441 328.756 3.40536 213 3.40536C97.2441 3.40536 3.40536 97.2441 3.40536 213Z" fill="#CA0000"/>
<circle cx="213" cy="213" r="158.867" fill="#CA0000" fill-opacity="0.33"/>
<circle cx="213" cy="213" r="112.58" fill="#CA0000"/>
<circle cx="54.1326" cy="69.8234" r="15.6906" fill="#CA0000"/>
<circle cx="15.6906" cy="300.475" r="15.6906" fill="#CA0000"/>
</g>
</svg>
