<svg width="1310" height="90" viewBox="0 0 1310 90" fill="none" xmlns="http://www.w3.org/2000/svg">
<path opacity="0.14" d="M19.7727 88.4658H1.12802e-05L30.1279 1.19309H53.9063L83.9915 88.4658H64.2188L42.358 21.1363H41.6761L19.7727 88.4658ZM18.5369 54.1618H65.2415V68.5653H18.5369V54.1618ZM139.847 26.2925C139.506 22.855 138.043 20.1846 135.458 18.2812C132.873 16.3777 129.364 15.426 124.933 15.426C121.921 15.426 119.379 15.8522 117.305 16.7045C115.231 17.5283 113.64 18.6789 112.532 20.1562C111.452 21.6334 110.913 23.3096 110.913 25.1846C110.856 26.7471 111.183 28.1107 111.893 29.2755C112.631 30.4403 113.64 31.4488 114.918 32.301C116.197 33.1249 117.674 33.8493 119.35 34.4743C121.026 35.0709 122.816 35.5823 124.719 36.0084L132.56 37.8834C136.367 38.7357 139.862 39.8721 143.043 41.2925C146.225 42.713 148.981 44.4601 151.31 46.534C153.64 48.6079 155.444 51.051 156.722 53.8635C158.029 56.676 158.697 59.9005 158.725 63.5368C158.697 68.8778 157.333 73.5084 154.634 77.4289C151.964 81.3209 148.1 84.3465 143.043 86.5056C138.015 88.6363 131.95 89.7016 124.847 89.7016C117.802 89.7016 111.665 88.6221 106.438 86.463C101.239 84.3039 97.1769 81.1079 94.2507 76.8749C91.353 72.6135 89.8331 67.3437 89.6911 61.0653H107.546C107.745 63.9914 108.583 66.4346 110.06 68.3948C111.566 70.3266 113.569 71.7897 116.069 72.784C118.597 73.7499 121.452 74.2329 124.634 74.2329C127.759 74.2329 130.472 73.7783 132.773 72.8692C135.103 71.9601 136.907 70.6959 138.185 69.0766C139.464 67.4573 140.103 65.5965 140.103 63.4942C140.103 61.534 139.521 59.8863 138.356 58.551C137.219 57.2158 135.543 56.0795 133.327 55.142C131.14 54.2045 128.455 53.3522 125.273 52.5851L115.771 50.1988C108.413 48.409 102.603 45.6107 98.3416 41.8039C94.0803 37.9971 91.9638 32.8692 91.9922 26.4204C91.9638 21.1363 93.37 16.5198 96.2109 12.5709C99.0803 8.62207 103.015 5.53968 108.015 3.32377C113.015 1.10786 118.697 -9.20296e-05 125.06 -9.20296e-05C131.538 -9.20296e-05 137.191 1.10786 142.021 3.32377C146.879 5.53968 150.657 8.62207 153.356 12.5709C156.055 16.5198 157.447 21.0937 157.532 26.2925H139.847ZM218.48 26.2925C218.139 22.855 216.676 20.1846 214.091 18.2812C211.506 16.3777 207.997 15.426 203.565 15.426C200.554 15.426 198.011 15.8522 195.938 16.7045C193.864 17.5283 192.273 18.6789 191.165 20.1562C190.085 21.6334 189.545 23.3096 189.545 25.1846C189.489 26.7471 189.815 28.1107 190.526 29.2755C191.264 30.4403 192.273 31.4488 193.551 32.301C194.83 33.1249 196.307 33.8493 197.983 34.4743C199.659 35.0709 201.449 35.5823 203.352 36.0084L211.193 37.8834C215 38.7357 218.494 39.8721 221.676 41.2925C224.858 42.713 227.614 44.4601 229.943 46.534C232.273 48.6079 234.077 51.051 235.355 53.8635C236.662 56.676 237.33 59.9005 237.358 63.5368C237.33 68.8778 235.966 73.5084 233.267 77.4289C230.597 81.3209 226.733 84.3465 221.676 86.5056C216.648 88.6363 210.582 89.7016 203.48 89.7016C196.435 89.7016 190.298 88.6221 185.071 86.463C179.872 84.3039 175.81 81.1079 172.884 76.8749C169.986 72.6135 168.466 67.3437 168.324 61.0653H186.179C186.378 63.9914 187.216 66.4346 188.693 68.3948C190.199 70.3266 192.202 71.7897 194.702 72.784C197.23 73.7499 200.085 74.2329 203.267 74.2329C206.392 74.2329 209.105 73.7783 211.406 72.8692C213.736 71.9601 215.54 70.6959 216.818 69.0766C218.097 67.4573 218.736 65.5965 218.736 63.4942C218.736 61.534 218.153 59.8863 216.989 58.551C215.852 57.2158 214.176 56.0795 211.96 55.142C209.773 54.2045 207.088 53.3522 203.906 52.5851L194.403 50.1988C187.045 48.409 181.236 45.6107 176.974 41.8039C172.713 37.9971 170.597 32.8692 170.625 26.4204C170.597 21.1363 172.003 16.5198 174.844 12.5709C177.713 8.62207 181.648 5.53968 186.648 3.32377C191.648 1.10786 197.33 -9.20296e-05 203.693 -9.20296e-05C210.17 -9.20296e-05 215.824 1.10786 220.653 3.32377C225.511 5.53968 229.29 8.62207 231.989 12.5709C234.688 16.5198 236.08 21.0937 236.165 26.2925H218.48ZM249.769 88.4658V1.19309H308.576V16.4062H268.221V37.2016H305.55V52.4147H268.221V73.2528H308.746V88.4658H249.769ZM319.922 16.4062V1.19309H391.598V16.4062H364.879V88.4658H346.641V16.4062H319.922ZM431.175 1.19309H453.931L477.965 59.8295H478.988L503.022 1.19309H525.778V88.4658H507.88V31.6618H507.156L484.57 88.0397H472.383L449.798 31.4488H449.073V88.4658H431.175V1.19309ZM556.023 88.4658H536.25L566.378 1.19309H590.156L620.241 88.4658H600.469L578.608 21.1363H577.926L556.023 88.4658ZM554.787 54.1618H601.491V68.5653H554.787V54.1618ZM703.743 1.19309V88.4658H687.805L649.837 33.5368H649.197V88.4658H630.746V1.19309H646.939L684.609 56.0795H685.376V1.19309H703.743ZM734.031 88.4658H714.258L744.386 1.19309H768.164L798.249 88.4658H778.477L756.616 21.1363H755.934L734.031 88.4658ZM732.795 54.1618H779.499V68.5653H732.795V54.1618ZM862.521 29.4033C861.925 27.3295 861.087 25.4971 860.007 23.9062C858.928 22.2868 857.607 20.9232 856.044 19.8153C854.51 18.6789 852.749 17.8124 850.76 17.2158C848.8 16.6192 846.626 16.3209 844.24 16.3209C839.78 16.3209 835.859 17.4289 832.479 19.6448C829.126 21.8607 826.513 25.0851 824.638 29.3181C822.763 33.5226 821.825 38.6647 821.825 44.7442C821.825 50.8238 822.749 55.9942 824.595 60.2556C826.442 64.517 829.055 67.7698 832.436 70.0141C835.817 72.23 839.808 73.338 844.411 73.338C848.587 73.338 852.152 72.5993 855.107 71.1221C858.09 69.6164 860.362 67.4999 861.925 64.7726C863.516 62.0454 864.311 58.8209 864.311 55.0993L868.061 55.6533H845.561V41.7613H882.081V52.7556C882.081 60.426 880.462 67.017 877.223 72.5283C873.984 78.0113 869.524 82.2442 863.842 85.2272C858.161 88.1817 851.655 89.659 844.325 89.659C836.143 89.659 828.956 87.855 822.763 84.2471C816.57 80.6107 811.74 75.4545 808.274 68.7783C804.837 62.0738 803.118 54.1192 803.118 44.9147C803.118 37.8408 804.141 31.534 806.186 25.9942C808.26 20.426 811.158 15.7101 814.879 11.8465C818.601 7.98286 822.933 5.04252 827.876 3.02548C832.82 1.00843 838.175 -9.20296e-05 843.942 -9.20296e-05C848.885 -9.20296e-05 853.487 0.72434 857.749 2.17321C862.01 3.59366 865.788 5.61071 869.084 8.22434C872.408 10.838 875.121 13.9488 877.223 17.5567C879.325 21.1363 880.675 25.0851 881.271 29.4033H862.521ZM895.941 88.4658V1.19309H954.748V16.4062H914.393V37.2016H951.722V52.4147H914.393V73.2528H954.918V88.4658H895.941ZM969.418 1.19309H992.173L1016.21 59.8295H1017.23L1041.26 1.19309H1064.02V88.4658H1046.12V31.6618H1045.4L1022.81 88.0397H1010.63L988.04 31.4488H987.315V88.4658H969.418V1.19309ZM1079.22 88.4658V1.19309H1138.03V16.4062H1097.67V37.2016H1135V52.4147H1097.67V73.2528H1138.2V88.4658H1079.22ZM1225.7 1.19309V88.4658H1209.76L1171.79 33.5368H1171.15V88.4658H1152.7V1.19309H1168.89L1206.56 56.0795H1207.33V1.19309H1225.7ZM1237.62 16.4062V1.19309H1309.29V16.4062H1282.57V88.4658H1264.34V16.4062H1237.62Z" fill="url(#paint0_linear_10_1884)"/>
<defs>
<linearGradient id="paint0_linear_10_1884" x1="655.645" y1="117.466" x2="655.645" y2="-27.5342" gradientUnits="userSpaceOnUse">
<stop offset="0.370192" stop-color="#F8F8F8"/>
<stop offset="1" stop-color="#CA0000"/>
</linearGradient>
</defs>
</svg>
